<svg xmlns="http://www.w3.org/2000/svg" xmlns:xlink="http://www.w3.org/1999/xlink" width="500" zoomAndPan="magnify" viewBox="0 0 375 374.999991" height="500" preserveAspectRatio="xMidYMid meet" version="1.0"><defs><g/></defs><rect x="-37.5" width="450" fill="#ffffff" y="-37.499999" height="449.999989" fill-opacity="1"/><rect x="-37.5" width="450" fill="#ffffff" y="-37.499999" height="449.999989" fill-opacity="1"/><g fill="#007bff" fill-opacity="1"><g transform="translate(76.65107, 211.416286)"><g><path d="M 5.8125 -11.421875 C 6.601562 -11.421875 7.28125 -11.28125 7.84375 -11 C 8.40625 -10.71875 8.832031 -10.316406 9.125 -9.796875 C 9.414062 -9.273438 9.5625 -8.660156 9.5625 -7.953125 C 9.5625 -7.242188 9.414062 -6.628906 9.125 -6.109375 C 8.832031 -5.585938 8.40625 -5.179688 7.84375 -4.890625 C 7.28125 -4.609375 6.601562 -4.46875 5.8125 -4.46875 L 3.078125 -4.46875 L 3.078125 0 L 1.734375 0 L 1.734375 -11.421875 Z M 5.78125 -5.625 C 7.363281 -5.625 8.15625 -6.398438 8.15625 -7.953125 C 8.15625 -9.503906 7.363281 -10.28125 5.78125 -10.28125 L 3.078125 -10.28125 L 3.078125 -5.625 Z M 5.78125 -5.625 "/></g></g></g><g fill="#007bff" fill-opacity="1"><g transform="translate(87.062595, 211.416286)"><g><path d="M 3.5625 0.171875 C 2.707031 0.171875 2.039062 -0.0507812 1.5625 -0.5 C 1.09375 -0.945312 0.859375 -1.582031 0.859375 -2.40625 C 0.859375 -2.914062 0.960938 -3.34375 1.171875 -3.6875 C 1.378906 -4.039062 1.703125 -4.328125 2.140625 -4.546875 C 2.585938 -4.773438 3.171875 -4.945312 3.890625 -5.0625 C 4.515625 -5.164062 4.988281 -5.28125 5.3125 -5.40625 C 5.632812 -5.539062 5.851562 -5.6875 5.96875 -5.84375 C 6.082031 -6.007812 6.140625 -6.21875 6.140625 -6.46875 C 6.140625 -6.851562 6.003906 -7.148438 5.734375 -7.359375 C 5.460938 -7.566406 5.03125 -7.671875 4.4375 -7.671875 C 3.882812 -7.671875 3.40625 -7.5625 3 -7.34375 C 2.601562 -7.132812 2.238281 -6.816406 1.90625 -6.390625 L 1.75 -6.390625 L 1.125 -7.265625 C 1.488281 -7.734375 1.953125 -8.101562 2.515625 -8.375 C 3.078125 -8.644531 3.71875 -8.78125 4.4375 -8.78125 C 5.457031 -8.78125 6.207031 -8.554688 6.6875 -8.109375 C 7.164062 -7.671875 7.40625 -7.054688 7.40625 -6.265625 L 7.40625 -1.703125 C 7.40625 -1.222656 7.609375 -0.984375 8.015625 -0.984375 C 8.148438 -0.984375 8.28125 -1.003906 8.40625 -1.046875 L 8.515625 -1.015625 L 8.671875 -0.140625 C 8.578125 -0.078125 8.453125 -0.03125 8.296875 0 C 8.140625 0.0390625 7.984375 0.0625 7.828125 0.0625 C 7.347656 0.0625 6.988281 -0.0390625 6.75 -0.25 C 6.507812 -0.457031 6.351562 -0.765625 6.28125 -1.171875 L 6.125 -1.1875 C 5.875 -0.738281 5.539062 -0.398438 5.125 -0.171875 C 4.707031 0.0546875 4.1875 0.171875 3.5625 0.171875 Z M 3.84375 -0.859375 C 4.320312 -0.859375 4.734375 -0.96875 5.078125 -1.1875 C 5.429688 -1.40625 5.703125 -1.710938 5.890625 -2.109375 C 6.078125 -2.515625 6.171875 -2.984375 6.171875 -3.515625 L 6.171875 -4.609375 L 6.03125 -4.640625 C 5.832031 -4.503906 5.59375 -4.390625 5.3125 -4.296875 C 5.039062 -4.203125 4.660156 -4.117188 4.171875 -4.046875 C 3.671875 -3.984375 3.269531 -3.878906 2.96875 -3.734375 C 2.675781 -3.597656 2.46875 -3.421875 2.34375 -3.203125 C 2.21875 -2.984375 2.15625 -2.71875 2.15625 -2.40625 C 2.15625 -1.894531 2.300781 -1.507812 2.59375 -1.25 C 2.894531 -0.988281 3.3125 -0.859375 3.84375 -0.859375 Z M 3.84375 -0.859375 "/></g></g></g><g fill="#007bff" fill-opacity="1"><g transform="translate(95.974486, 211.416286)"><g><path d="M 3.9375 0.171875 C 3.394531 0.171875 2.890625 0.0976562 2.421875 -0.046875 C 1.960938 -0.191406 1.570312 -0.390625 1.25 -0.640625 C 0.9375 -0.890625 0.71875 -1.171875 0.59375 -1.484375 L 1.34375 -2.265625 L 1.5 -2.265625 C 1.78125 -1.835938 2.117188 -1.515625 2.515625 -1.296875 C 2.910156 -1.085938 3.382812 -0.984375 3.9375 -0.984375 C 4.570312 -0.984375 5.050781 -1.101562 5.375 -1.34375 C 5.707031 -1.59375 5.875 -1.941406 5.875 -2.390625 C 5.875 -2.722656 5.773438 -3 5.578125 -3.21875 C 5.378906 -3.445312 5.054688 -3.613281 4.609375 -3.71875 L 3.15625 -4.078125 C 2.375 -4.265625 1.804688 -4.5625 1.453125 -4.96875 C 1.097656 -5.375 0.921875 -5.878906 0.921875 -6.484375 C 0.921875 -6.953125 1.039062 -7.359375 1.28125 -7.703125 C 1.519531 -8.046875 1.863281 -8.3125 2.3125 -8.5 C 2.757812 -8.6875 3.296875 -8.78125 3.921875 -8.78125 C 4.710938 -8.78125 5.332031 -8.671875 5.78125 -8.453125 C 6.238281 -8.234375 6.597656 -7.925781 6.859375 -7.53125 L 6.140625 -6.828125 L 5.984375 -6.828125 C 5.703125 -7.140625 5.398438 -7.363281 5.078125 -7.5 C 4.753906 -7.644531 4.367188 -7.71875 3.921875 -7.71875 C 3.347656 -7.71875 2.910156 -7.613281 2.609375 -7.40625 C 2.304688 -7.207031 2.15625 -6.914062 2.15625 -6.53125 C 2.15625 -6.1875 2.257812 -5.90625 2.46875 -5.6875 C 2.6875 -5.476562 3.0625 -5.304688 3.59375 -5.171875 L 5.03125 -4.828125 C 5.78125 -4.648438 6.320312 -4.351562 6.65625 -3.9375 C 6.988281 -3.53125 7.15625 -3.019531 7.15625 -2.40625 C 7.15625 -1.894531 7.035156 -1.445312 6.796875 -1.0625 C 6.554688 -0.675781 6.191406 -0.375 5.703125 -0.15625 C 5.222656 0.0625 4.632812 0.171875 3.9375 0.171875 Z M 3.9375 0.171875 "/></g></g></g><g fill="#007bff" fill-opacity="1"><g transform="translate(103.94129, 211.416286)"><g><path d="M 3.9375 0.171875 C 3.394531 0.171875 2.890625 0.0976562 2.421875 -0.046875 C 1.960938 -0.191406 1.570312 -0.390625 1.25 -0.640625 C 0.9375 -0.890625 0.71875 -1.171875 0.59375 -1.484375 L 1.34375 -2.265625 L 1.5 -2.265625 C 1.78125 -1.835938 2.117188 -1.515625 2.515625 -1.296875 C 2.910156 -1.085938 3.382812 -0.984375 3.9375 -0.984375 C 4.570312 -0.984375 5.050781 -1.101562 5.375 -1.34375 C 5.707031 -1.59375 5.875 -1.941406 5.875 -2.390625 C 5.875 -2.722656 5.773438 -3 5.578125 -3.21875 C 5.378906 -3.445312 5.054688 -3.613281 4.609375 -3.71875 L 3.15625 -4.078125 C 2.375 -4.265625 1.804688 -4.5625 1.453125 -4.96875 C 1.097656 -5.375 0.921875 -5.878906 0.921875 -6.484375 C 0.921875 -6.953125 1.039062 -7.359375 1.28125 -7.703125 C 1.519531 -8.046875 1.863281 -8.3125 2.3125 -8.5 C 2.757812 -8.6875 3.296875 -8.78125 3.921875 -8.78125 C 4.710938 -8.78125 5.332031 -8.671875 5.78125 -8.453125 C 6.238281 -8.234375 6.597656 -7.925781 6.859375 -7.53125 L 6.140625 -6.828125 L 5.984375 -6.828125 C 5.703125 -7.140625 5.398438 -7.363281 5.078125 -7.5 C 4.753906 -7.644531 4.367188 -7.71875 3.921875 -7.71875 C 3.347656 -7.71875 2.910156 -7.613281 2.609375 -7.40625 C 2.304688 -7.207031 2.15625 -6.914062 2.15625 -6.53125 C 2.15625 -6.1875 2.257812 -5.90625 2.46875 -5.6875 C 2.6875 -5.476562 3.0625 -5.304688 3.59375 -5.171875 L 5.03125 -4.828125 C 5.78125 -4.648438 6.320312 -4.351562 6.65625 -3.9375 C 6.988281 -3.53125 7.15625 -3.019531 7.15625 -2.40625 C 7.15625 -1.894531 7.035156 -1.445312 6.796875 -1.0625 C 6.554688 -0.675781 6.191406 -0.375 5.703125 -0.15625 C 5.222656 0.0625 4.632812 0.171875 3.9375 0.171875 Z M 3.9375 0.171875 "/></g></g></g><g fill="#007bff" fill-opacity="1"><g transform="translate(111.908094, 211.416286)"><g><path d="M 2.140625 -10.28125 C 1.867188 -10.28125 1.648438 -10.363281 1.484375 -10.53125 C 1.316406 -10.707031 1.234375 -10.925781 1.234375 -11.1875 C 1.234375 -11.445312 1.316406 -11.660156 1.484375 -11.828125 C 1.648438 -11.992188 1.867188 -12.078125 2.140625 -12.078125 C 2.410156 -12.078125 2.628906 -11.992188 2.796875 -11.828125 C 2.972656 -11.660156 3.0625 -11.445312 3.0625 -11.1875 C 3.0625 -10.925781 2.972656 -10.707031 2.796875 -10.53125 C 2.628906 -10.363281 2.410156 -10.28125 2.140625 -10.28125 Z M 1.5 0 L 1.5 -8.625 L 2.78125 -8.625 L 2.78125 0 Z M 1.5 0 "/></g></g></g><g fill="#007bff" fill-opacity="1"><g transform="translate(116.180494, 211.416286)"><g><path d="M 5.453125 0 L 3.703125 0 L 0.421875 -8.625 L 1.796875 -8.625 L 4.515625 -1.453125 L 4.6875 -1.453125 L 7.375 -8.625 L 8.71875 -8.625 Z M 5.453125 0 "/></g></g></g><g fill="#007bff" fill-opacity="1"><g transform="translate(125.311082, 211.416286)"><g><path d="M 8.21875 -4.015625 L 2.296875 -4.015625 C 2.328125 -2.972656 2.578125 -2.207031 3.046875 -1.71875 C 3.515625 -1.226562 4.15625 -0.984375 4.96875 -0.984375 C 5.582031 -0.984375 6.078125 -1.09375 6.453125 -1.3125 C 6.828125 -1.53125 7.117188 -1.875 7.328125 -2.34375 L 7.5 -2.34375 L 8.328125 -1.84375 C 8.078125 -1.21875 7.675781 -0.722656 7.125 -0.359375 C 6.570312 -0.00390625 5.851562 0.171875 4.96875 0.171875 C 4.132812 0.171875 3.414062 0.00390625 2.8125 -0.328125 C 2.21875 -0.660156 1.757812 -1.160156 1.4375 -1.828125 C 1.113281 -2.492188 0.953125 -3.320312 0.953125 -4.3125 C 0.953125 -5.289062 1.117188 -6.113281 1.453125 -6.78125 C 1.796875 -7.457031 2.265625 -7.957031 2.859375 -8.28125 C 3.453125 -8.613281 4.128906 -8.78125 4.890625 -8.78125 C 5.992188 -8.78125 6.851562 -8.46875 7.46875 -7.84375 C 8.09375 -7.226562 8.40625 -6.304688 8.40625 -5.078125 C 8.40625 -4.597656 8.394531 -4.273438 8.375 -4.109375 Z M 7.15625 -5.078125 C 7.132812 -5.992188 6.929688 -6.660156 6.546875 -7.078125 C 6.160156 -7.492188 5.609375 -7.703125 4.890625 -7.703125 C 4.128906 -7.703125 3.535156 -7.492188 3.109375 -7.078125 C 2.679688 -6.660156 2.421875 -5.992188 2.328125 -5.078125 Z M 7.15625 -5.078125 "/></g></g></g><g fill="#007bff" fill-opacity="1"><g transform="translate(134.496338, 211.416286)"><g/></g></g><g fill="#007bff" fill-opacity="1"><g transform="translate(138.417255, 211.416286)"><g><path d="M 3.078125 0 L 1.734375 0 L 1.734375 -11.421875 L 3.078125 -11.421875 Z M 3.078125 0 "/></g></g></g><g fill="#007bff" fill-opacity="1"><g transform="translate(143.220775, 211.416286)"><g><path d="M 1.5 0 L 1.5 -8.625 L 2.71875 -8.625 L 2.71875 -7.265625 L 2.875 -7.234375 C 3.164062 -7.734375 3.53125 -8.113281 3.96875 -8.375 C 4.414062 -8.644531 4.960938 -8.78125 5.609375 -8.78125 C 6.640625 -8.78125 7.390625 -8.515625 7.859375 -7.984375 C 8.328125 -7.460938 8.5625 -6.648438 8.5625 -5.546875 L 8.5625 0 L 7.28125 0 L 7.28125 -5.515625 C 7.28125 -6.035156 7.210938 -6.453125 7.078125 -6.765625 C 6.953125 -7.085938 6.75 -7.316406 6.46875 -7.453125 C 6.1875 -7.597656 5.820312 -7.671875 5.375 -7.671875 C 4.59375 -7.671875 3.960938 -7.414062 3.484375 -6.90625 C 3.015625 -6.394531 2.78125 -5.566406 2.78125 -4.421875 L 2.78125 0 Z M 1.5 0 "/></g></g></g><g fill="#007bff" fill-opacity="1"><g transform="translate(153.140227, 211.416286)"><g><path d="M 4.953125 0.171875 C 4.191406 0.171875 3.507812 0 2.90625 -0.34375 C 2.300781 -0.695312 1.820312 -1.210938 1.46875 -1.890625 C 1.125 -2.566406 0.953125 -3.375 0.953125 -4.3125 C 0.953125 -5.25 1.125 -6.054688 1.46875 -6.734375 C 1.820312 -7.410156 2.300781 -7.921875 2.90625 -8.265625 C 3.507812 -8.609375 4.191406 -8.78125 4.953125 -8.78125 C 5.859375 -8.78125 6.582031 -8.609375 7.125 -8.265625 C 7.664062 -7.921875 8.054688 -7.460938 8.296875 -6.890625 L 7.421875 -6.265625 L 7.265625 -6.265625 C 7.035156 -6.742188 6.734375 -7.09375 6.359375 -7.3125 C 5.992188 -7.53125 5.523438 -7.640625 4.953125 -7.640625 C 4.421875 -7.640625 3.953125 -7.515625 3.546875 -7.265625 C 3.148438 -7.015625 2.835938 -6.640625 2.609375 -6.140625 C 2.390625 -5.640625 2.28125 -5.03125 2.28125 -4.3125 C 2.28125 -3.59375 2.390625 -2.984375 2.609375 -2.484375 C 2.835938 -1.984375 3.148438 -1.609375 3.546875 -1.359375 C 3.953125 -1.109375 4.421875 -0.984375 4.953125 -0.984375 C 5.546875 -0.984375 6.039062 -1.117188 6.4375 -1.390625 C 6.832031 -1.660156 7.140625 -2.085938 7.359375 -2.671875 L 7.53125 -2.671875 L 8.359375 -2.171875 C 8.140625 -1.453125 7.738281 -0.878906 7.15625 -0.453125 C 6.582031 -0.0351562 5.847656 0.171875 4.953125 0.171875 Z M 4.953125 0.171875 "/></g></g></g><g fill="#007bff" fill-opacity="1"><g transform="translate(162.020876, 211.416286)"><g><path d="M 4.953125 0.171875 C 4.140625 0.171875 3.429688 0 2.828125 -0.34375 C 2.222656 -0.695312 1.757812 -1.207031 1.4375 -1.875 C 1.113281 -2.539062 0.953125 -3.351562 0.953125 -4.3125 C 0.953125 -5.257812 1.113281 -6.066406 1.4375 -6.734375 C 1.757812 -7.410156 2.222656 -7.921875 2.828125 -8.265625 C 3.429688 -8.609375 4.140625 -8.78125 4.953125 -8.78125 C 5.765625 -8.78125 6.46875 -8.609375 7.0625 -8.265625 C 7.664062 -7.921875 8.128906 -7.410156 8.453125 -6.734375 C 8.785156 -6.066406 8.953125 -5.257812 8.953125 -4.3125 C 8.953125 -3.351562 8.785156 -2.539062 8.453125 -1.875 C 8.128906 -1.207031 7.664062 -0.695312 7.0625 -0.34375 C 6.46875 0 5.765625 0.171875 4.953125 0.171875 Z M 4.953125 -0.984375 C 5.804688 -0.984375 6.460938 -1.253906 6.921875 -1.796875 C 7.378906 -2.335938 7.609375 -3.175781 7.609375 -4.3125 C 7.609375 -5.445312 7.378906 -6.285156 6.921875 -6.828125 C 6.460938 -7.367188 5.804688 -7.640625 4.953125 -7.640625 C 4.085938 -7.640625 3.425781 -7.367188 2.96875 -6.828125 C 2.507812 -6.285156 2.28125 -5.445312 2.28125 -4.3125 C 2.28125 -3.175781 2.507812 -2.335938 2.96875 -1.796875 C 3.425781 -1.253906 4.085938 -0.984375 4.953125 -0.984375 Z M 4.953125 -0.984375 "/></g></g></g><g fill="#007bff" fill-opacity="1"><g transform="translate(171.909086, 211.416286)"><g><path d="M 1.5 0 L 1.5 -8.625 L 2.71875 -8.625 L 2.71875 -7.34375 L 2.875 -7.3125 C 3.164062 -7.800781 3.519531 -8.164062 3.9375 -8.40625 C 4.351562 -8.65625 4.847656 -8.78125 5.421875 -8.78125 C 6.085938 -8.78125 6.601562 -8.65625 6.96875 -8.40625 C 7.332031 -8.15625 7.617188 -7.75 7.828125 -7.1875 L 7.984375 -7.1875 C 8.285156 -7.707031 8.648438 -8.101562 9.078125 -8.375 C 9.515625 -8.644531 10.050781 -8.78125 10.6875 -8.78125 C 11.570312 -8.78125 12.234375 -8.539062 12.671875 -8.0625 C 13.109375 -7.582031 13.328125 -6.851562 13.328125 -5.875 L 13.328125 0 L 12.046875 0 L 12.046875 -5.84375 C 12.046875 -6.46875 11.914062 -6.925781 11.65625 -7.21875 C 11.394531 -7.519531 10.972656 -7.671875 10.390625 -7.671875 C 9.703125 -7.671875 9.140625 -7.421875 8.703125 -6.921875 C 8.265625 -6.421875 8.046875 -5.597656 8.046875 -4.453125 L 8.046875 0 L 6.78125 0 L 6.78125 -5.84375 C 6.78125 -6.46875 6.644531 -6.925781 6.375 -7.21875 C 6.113281 -7.519531 5.691406 -7.671875 5.109375 -7.671875 C 4.421875 -7.671875 3.859375 -7.425781 3.421875 -6.9375 C 2.992188 -6.457031 2.78125 -5.675781 2.78125 -4.59375 L 2.78125 0 Z M 1.5 0 "/></g></g></g><g fill="#007bff" fill-opacity="1"><g transform="translate(186.592999, 211.416286)"><g><path d="M 8.21875 -4.015625 L 2.296875 -4.015625 C 2.328125 -2.972656 2.578125 -2.207031 3.046875 -1.71875 C 3.515625 -1.226562 4.15625 -0.984375 4.96875 -0.984375 C 5.582031 -0.984375 6.078125 -1.09375 6.453125 -1.3125 C 6.828125 -1.53125 7.117188 -1.875 7.328125 -2.34375 L 7.5 -2.34375 L 8.328125 -1.84375 C 8.078125 -1.21875 7.675781 -0.722656 7.125 -0.359375 C 6.570312 -0.00390625 5.851562 0.171875 4.96875 0.171875 C 4.132812 0.171875 3.414062 0.00390625 2.8125 -0.328125 C 2.21875 -0.660156 1.757812 -1.160156 1.4375 -1.828125 C 1.113281 -2.492188 0.953125 -3.320312 0.953125 -4.3125 C 0.953125 -5.289062 1.117188 -6.113281 1.453125 -6.78125 C 1.796875 -7.457031 2.265625 -7.957031 2.859375 -8.28125 C 3.453125 -8.613281 4.128906 -8.78125 4.890625 -8.78125 C 5.992188 -8.78125 6.851562 -8.46875 7.46875 -7.84375 C 8.09375 -7.226562 8.40625 -6.304688 8.40625 -5.078125 C 8.40625 -4.597656 8.394531 -4.273438 8.375 -4.109375 Z M 7.15625 -5.078125 C 7.132812 -5.992188 6.929688 -6.660156 6.546875 -7.078125 C 6.160156 -7.492188 5.609375 -7.703125 4.890625 -7.703125 C 4.128906 -7.703125 3.535156 -7.492188 3.109375 -7.078125 C 2.679688 -6.660156 2.421875 -5.992188 2.328125 -5.078125 Z M 7.15625 -5.078125 "/></g></g></g><g fill="#007bff" fill-opacity="1"><g transform="translate(195.778255, 211.416286)"><g/></g></g><g fill="#007bff" fill-opacity="1"><g transform="translate(199.699173, 211.416286)"><g><path d="M 5 0 L 3.234375 0 L 0.625 -11.421875 L 1.953125 -11.421875 L 4.09375 -1.984375 L 4.296875 -1.984375 L 6.859375 -11.421875 L 8.09375 -11.421875 L 10.65625 -1.984375 L 10.859375 -1.984375 L 13.015625 -11.421875 L 14.296875 -11.421875 L 11.6875 0 L 9.921875 0 L 7.546875 -8.65625 L 7.375 -8.65625 Z M 5 0 "/></g></g></g><g fill="#007bff" fill-opacity="1"><g transform="translate(214.609598, 211.416286)"><g><path d="M 2.140625 -10.28125 C 1.867188 -10.28125 1.648438 -10.363281 1.484375 -10.53125 C 1.316406 -10.707031 1.234375 -10.925781 1.234375 -11.1875 C 1.234375 -11.445312 1.316406 -11.660156 1.484375 -11.828125 C 1.648438 -11.992188 1.867188 -12.078125 2.140625 -12.078125 C 2.410156 -12.078125 2.628906 -11.992188 2.796875 -11.828125 C 2.972656 -11.660156 3.0625 -11.445312 3.0625 -11.1875 C 3.0625 -10.925781 2.972656 -10.707031 2.796875 -10.53125 C 2.628906 -10.363281 2.410156 -10.28125 2.140625 -10.28125 Z M 1.5 0 L 1.5 -8.625 L 2.78125 -8.625 L 2.78125 0 Z M 1.5 0 "/></g></g></g><g fill="#007bff" fill-opacity="1"><g transform="translate(218.881998, 211.416286)"><g><path d="M 5.828125 -1.375 L 6.234375 -0.453125 C 6.035156 -0.253906 5.769531 -0.101562 5.4375 0 C 5.101562 0.113281 4.742188 0.171875 4.359375 0.171875 C 2.710938 0.171875 1.890625 -0.664062 1.890625 -2.34375 L 1.890625 -7.578125 L 0.390625 -7.578125 L 0.390625 -8.625 L 1.890625 -8.625 L 1.890625 -10.453125 L 3.171875 -10.65625 L 3.171875 -8.625 L 5.9375 -8.625 L 5.9375 -7.578125 L 3.171875 -7.578125 L 3.171875 -2.46875 C 3.171875 -1.476562 3.597656 -0.984375 4.453125 -0.984375 C 4.921875 -0.984375 5.328125 -1.113281 5.671875 -1.375 Z M 5.828125 -1.375 "/></g></g></g><g fill="#007bff" fill-opacity="1"><g transform="translate(225.442895, 211.416286)"><g><path d="M 1.5 0 L 1.5 -12.078125 L 2.78125 -12.078125 L 2.78125 -7.390625 L 2.9375 -7.359375 C 3.550781 -8.304688 4.441406 -8.78125 5.609375 -8.78125 C 6.640625 -8.78125 7.390625 -8.515625 7.859375 -7.984375 C 8.328125 -7.460938 8.5625 -6.648438 8.5625 -5.546875 L 8.5625 0 L 7.28125 0 L 7.28125 -5.515625 C 7.28125 -6.035156 7.210938 -6.453125 7.078125 -6.765625 C 6.953125 -7.085938 6.75 -7.316406 6.46875 -7.453125 C 6.1875 -7.597656 5.820312 -7.671875 5.375 -7.671875 C 4.59375 -7.671875 3.960938 -7.414062 3.484375 -6.90625 C 3.015625 -6.40625 2.78125 -5.578125 2.78125 -4.421875 L 2.78125 0 Z M 1.5 0 "/></g></g></g><g fill="#007bff" fill-opacity="1"><g transform="translate(235.362347, 211.416286)"><g><path d="M 4.953125 0.171875 C 4.140625 0.171875 3.429688 0 2.828125 -0.34375 C 2.222656 -0.695312 1.757812 -1.207031 1.4375 -1.875 C 1.113281 -2.539062 0.953125 -3.351562 0.953125 -4.3125 C 0.953125 -5.257812 1.113281 -6.066406 1.4375 -6.734375 C 1.757812 -7.410156 2.222656 -7.921875 2.828125 -8.265625 C 3.429688 -8.609375 4.140625 -8.78125 4.953125 -8.78125 C 5.765625 -8.78125 6.46875 -8.609375 7.0625 -8.265625 C 7.664062 -7.921875 8.128906 -7.410156 8.453125 -6.734375 C 8.785156 -6.066406 8.953125 -5.257812 8.953125 -4.3125 C 8.953125 -3.351562 8.785156 -2.539062 8.453125 -1.875 C 8.128906 -1.207031 7.664062 -0.695312 7.0625 -0.34375 C 6.46875 0 5.765625 0.171875 4.953125 0.171875 Z M 4.953125 -0.984375 C 5.804688 -0.984375 6.460938 -1.253906 6.921875 -1.796875 C 7.378906 -2.335938 7.609375 -3.175781 7.609375 -4.3125 C 7.609375 -5.445312 7.378906 -6.285156 6.921875 -6.828125 C 6.460938 -7.367188 5.804688 -7.640625 4.953125 -7.640625 C 4.085938 -7.640625 3.425781 -7.367188 2.96875 -6.828125 C 2.507812 -6.285156 2.28125 -5.445312 2.28125 -4.3125 C 2.28125 -3.175781 2.507812 -2.335938 2.96875 -1.796875 C 3.425781 -1.253906 4.085938 -0.984375 4.953125 -0.984375 Z M 4.953125 -0.984375 "/></g></g></g><g fill="#007bff" fill-opacity="1"><g transform="translate(245.250557, 211.416286)"><g><path d="M 4.265625 0.171875 C 3.285156 0.171875 2.554688 -0.0859375 2.078125 -0.609375 C 1.609375 -1.128906 1.375 -1.882812 1.375 -2.875 L 1.375 -8.625 L 2.640625 -8.625 L 2.640625 -2.90625 C 2.640625 -1.601562 3.253906 -0.953125 4.484375 -0.953125 C 5.265625 -0.953125 5.878906 -1.207031 6.328125 -1.71875 C 6.785156 -2.226562 7.015625 -3.054688 7.015625 -4.203125 L 7.015625 -8.625 L 8.296875 -8.625 L 8.296875 0 L 7.09375 0 L 7.09375 -1.359375 L 6.921875 -1.390625 C 6.628906 -0.867188 6.273438 -0.476562 5.859375 -0.21875 C 5.441406 0.0390625 4.910156 0.171875 4.265625 0.171875 Z M 4.265625 0.171875 "/></g></g></g><g fill="#007bff" fill-opacity="1"><g transform="translate(255.037235, 211.416286)"><g><path d="M 5.828125 -1.375 L 6.234375 -0.453125 C 6.035156 -0.253906 5.769531 -0.101562 5.4375 0 C 5.101562 0.113281 4.742188 0.171875 4.359375 0.171875 C 2.710938 0.171875 1.890625 -0.664062 1.890625 -2.34375 L 1.890625 -7.578125 L 0.390625 -7.578125 L 0.390625 -8.625 L 1.890625 -8.625 L 1.890625 -10.453125 L 3.171875 -10.65625 L 3.171875 -8.625 L 5.9375 -8.625 L 5.9375 -7.578125 L 3.171875 -7.578125 L 3.171875 -2.46875 C 3.171875 -1.476562 3.597656 -0.984375 4.453125 -0.984375 C 4.921875 -0.984375 5.328125 -1.113281 5.671875 -1.375 Z M 5.828125 -1.375 "/></g></g></g><g fill="#007bff" fill-opacity="1"><g transform="translate(261.598132, 211.416286)"><g/></g></g><g fill="#007bff" fill-opacity="1"><g transform="translate(265.519049, 211.416286)"><g><path d="M 3.078125 -11.421875 L 3.078125 -1.109375 L 8.578125 -1.109375 L 8.578125 0 L 1.734375 0 L 1.734375 -11.421875 Z M 3.078125 -11.421875 "/></g></g></g><g fill="#007bff" fill-opacity="1"><g transform="translate(274.571543, 211.416286)"><g><path d="M 2.140625 -10.28125 C 1.867188 -10.28125 1.648438 -10.363281 1.484375 -10.53125 C 1.316406 -10.707031 1.234375 -10.925781 1.234375 -11.1875 C 1.234375 -11.445312 1.316406 -11.660156 1.484375 -11.828125 C 1.648438 -11.992188 1.867188 -12.078125 2.140625 -12.078125 C 2.410156 -12.078125 2.628906 -11.992188 2.796875 -11.828125 C 2.972656 -11.660156 3.0625 -11.445312 3.0625 -11.1875 C 3.0625 -10.925781 2.972656 -10.707031 2.796875 -10.53125 C 2.628906 -10.363281 2.410156 -10.28125 2.140625 -10.28125 Z M 1.5 0 L 1.5 -8.625 L 2.78125 -8.625 L 2.78125 0 Z M 1.5 0 "/></g></g></g><g fill="#007bff" fill-opacity="1"><g transform="translate(278.843942, 211.416286)"><g><path d="M 1.5 0 L 1.5 -8.625 L 2.71875 -8.625 L 2.71875 -7.34375 L 2.875 -7.3125 C 3.164062 -7.800781 3.519531 -8.164062 3.9375 -8.40625 C 4.351562 -8.65625 4.847656 -8.78125 5.421875 -8.78125 C 6.085938 -8.78125 6.601562 -8.65625 6.96875 -8.40625 C 7.332031 -8.15625 7.617188 -7.75 7.828125 -7.1875 L 7.984375 -7.1875 C 8.285156 -7.707031 8.648438 -8.101562 9.078125 -8.375 C 9.515625 -8.644531 10.050781 -8.78125 10.6875 -8.78125 C 11.570312 -8.78125 12.234375 -8.539062 12.671875 -8.0625 C 13.109375 -7.582031 13.328125 -6.851562 13.328125 -5.875 L 13.328125 0 L 12.046875 0 L 12.046875 -5.84375 C 12.046875 -6.46875 11.914062 -6.925781 11.65625 -7.21875 C 11.394531 -7.519531 10.972656 -7.671875 10.390625 -7.671875 C 9.703125 -7.671875 9.140625 -7.421875 8.703125 -6.921875 C 8.265625 -6.421875 8.046875 -5.597656 8.046875 -4.453125 L 8.046875 0 L 6.78125 0 L 6.78125 -5.84375 C 6.78125 -6.46875 6.644531 -6.925781 6.375 -7.21875 C 6.113281 -7.519531 5.691406 -7.671875 5.109375 -7.671875 C 4.421875 -7.671875 3.859375 -7.425781 3.421875 -6.9375 C 2.992188 -6.457031 2.78125 -5.675781 2.78125 -4.59375 L 2.78125 0 Z M 1.5 0 "/></g></g></g><g fill="#007bff" fill-opacity="1"><g transform="translate(293.527856, 211.416286)"><g><path d="M 2.140625 -10.28125 C 1.867188 -10.28125 1.648438 -10.363281 1.484375 -10.53125 C 1.316406 -10.707031 1.234375 -10.925781 1.234375 -11.1875 C 1.234375 -11.445312 1.316406 -11.660156 1.484375 -11.828125 C 1.648438 -11.992188 1.867188 -12.078125 2.140625 -12.078125 C 2.410156 -12.078125 2.628906 -11.992188 2.796875 -11.828125 C 2.972656 -11.660156 3.0625 -11.445312 3.0625 -11.1875 C 3.0625 -10.925781 2.972656 -10.707031 2.796875 -10.53125 C 2.628906 -10.363281 2.410156 -10.28125 2.140625 -10.28125 Z M 1.5 0 L 1.5 -8.625 L 2.78125 -8.625 L 2.78125 0 Z M 1.5 0 "/></g></g></g><g fill="#007bff" fill-opacity="1"><g transform="translate(297.800255, 211.416286)"><g><path d="M 5.828125 -1.375 L 6.234375 -0.453125 C 6.035156 -0.253906 5.769531 -0.101562 5.4375 0 C 5.101562 0.113281 4.742188 0.171875 4.359375 0.171875 C 2.710938 0.171875 1.890625 -0.664062 1.890625 -2.34375 L 1.890625 -7.578125 L 0.390625 -7.578125 L 0.390625 -8.625 L 1.890625 -8.625 L 1.890625 -10.453125 L 3.171875 -10.65625 L 3.171875 -8.625 L 5.9375 -8.625 L 5.9375 -7.578125 L 3.171875 -7.578125 L 3.171875 -2.46875 C 3.171875 -1.476562 3.597656 -0.984375 4.453125 -0.984375 C 4.921875 -0.984375 5.328125 -1.113281 5.671875 -1.375 Z M 5.828125 -1.375 "/></g></g></g><g fill="#007bff" fill-opacity="1"><g transform="translate(75.139351, 186.999979)"><g><path d="M 3.71875 0 L 3.71875 -28.5625 L 15.90625 -28.5625 C 17.65625 -28.5625 19.140625 -28.28125 20.359375 -27.71875 C 21.578125 -27.164062 22.5 -26.378906 23.125 -25.359375 C 23.75 -24.335938 24.0625 -23.128906 24.0625 -21.734375 C 24.0625 -20.472656 23.753906 -19.359375 23.140625 -18.390625 C 22.535156 -17.429688 21.660156 -16.660156 20.515625 -16.078125 L 20.515625 -15.671875 C 22.304688 -15.203125 23.691406 -14.347656 24.671875 -13.109375 C 25.648438 -11.867188 26.140625 -10.351562 26.140625 -8.5625 C 26.140625 -5.820312 25.3125 -3.707031 23.65625 -2.21875 C 22.007812 -0.738281 19.566406 0 16.328125 0 Z M 14.734375 -17.171875 C 17.359375 -17.171875 18.671875 -18.351562 18.671875 -20.71875 C 18.671875 -21.9375 18.34375 -22.835938 17.6875 -23.421875 C 17.039062 -24.015625 16.054688 -24.3125 14.734375 -24.3125 L 9.359375 -24.3125 L 9.359375 -17.171875 Z M 15.765625 -4.46875 C 18.878906 -4.46875 20.4375 -5.882812 20.4375 -8.71875 C 20.4375 -11.550781 18.878906 -12.96875 15.765625 -12.96875 L 9.359375 -12.96875 L 9.359375 -4.46875 Z M 15.765625 -4.46875 "/></g></g></g><g fill="#007bff" fill-opacity="1"><g transform="translate(103.06631, 186.999979)"><g><path d="M 5.796875 -24.125 C 4.828125 -24.125 4.035156 -24.421875 3.421875 -25.015625 C 2.804688 -25.609375 2.5 -26.375 2.5 -27.3125 C 2.5 -28.226562 2.804688 -28.984375 3.421875 -29.578125 C 4.035156 -30.171875 4.828125 -30.46875 5.796875 -30.46875 C 6.453125 -30.46875 7.03125 -30.332031 7.53125 -30.0625 C 8.039062 -29.789062 8.4375 -29.414062 8.71875 -28.9375 C 9 -28.457031 9.140625 -27.914062 9.140625 -27.3125 C 9.140625 -26.695312 9 -26.144531 8.71875 -25.65625 C 8.4375 -25.175781 8.039062 -24.800781 7.53125 -24.53125 C 7.03125 -24.257812 6.453125 -24.125 5.796875 -24.125 Z M 3.109375 0 L 3.109375 -21.546875 L 8.515625 -21.546875 L 8.515625 0 Z M 3.109375 0 "/></g></g></g><g fill="#007bff" fill-opacity="1"><g transform="translate(114.666738, 186.999979)"><g><path d="M 8.953125 0.40625 C 7.003906 0.40625 5.519531 -0.113281 4.5 -1.15625 C 3.476562 -2.207031 2.96875 -3.800781 2.96875 -5.9375 L 2.96875 -30.203125 L 8.375 -30.203125 L 8.375 -6.15625 C 8.375 -4.84375 8.921875 -4.1875 10.015625 -4.1875 C 10.328125 -4.1875 10.660156 -4.238281 11.015625 -4.34375 L 11.296875 -4.265625 L 11.78125 -0.09375 C 11.476562 0.0625 11.078125 0.179688 10.578125 0.265625 C 10.085938 0.359375 9.546875 0.40625 8.953125 0.40625 Z M 8.953125 0.40625 "/></g></g></g><g fill="#007bff" fill-opacity="1"><g transform="translate(127.048341, 186.999979)"><g><path d="M 8.953125 0.40625 C 7.003906 0.40625 5.519531 -0.113281 4.5 -1.15625 C 3.476562 -2.207031 2.96875 -3.800781 2.96875 -5.9375 L 2.96875 -30.203125 L 8.375 -30.203125 L 8.375 -6.15625 C 8.375 -4.84375 8.921875 -4.1875 10.015625 -4.1875 C 10.328125 -4.1875 10.660156 -4.238281 11.015625 -4.34375 L 11.296875 -4.265625 L 11.78125 -0.09375 C 11.476562 0.0625 11.078125 0.179688 10.578125 0.265625 C 10.085938 0.359375 9.546875 0.40625 8.953125 0.40625 Z M 8.953125 0.40625 "/></g></g></g><g fill="#007bff" fill-opacity="1"><g transform="translate(139.429943, 186.999979)"><g><path d="M 10.078125 0.40625 C 8.609375 0.40625 7.257812 0.234375 6.03125 -0.109375 C 4.8125 -0.453125 3.769531 -0.925781 2.90625 -1.53125 C 2.039062 -2.132812 1.398438 -2.828125 0.984375 -3.609375 L 3.984375 -6.859375 L 4.390625 -6.859375 C 5.109375 -5.890625 5.957031 -5.164062 6.9375 -4.6875 C 7.914062 -4.207031 8.976562 -3.96875 10.125 -3.96875 C 11.175781 -3.96875 11.96875 -4.15625 12.5 -4.53125 C 13.03125 -4.90625 13.296875 -5.445312 13.296875 -6.15625 C 13.296875 -6.695312 13.101562 -7.15625 12.71875 -7.53125 C 12.34375 -7.90625 11.722656 -8.195312 10.859375 -8.40625 L 8.015625 -9.078125 C 5.878906 -9.585938 4.316406 -10.363281 3.328125 -11.40625 C 2.347656 -12.457031 1.859375 -13.789062 1.859375 -15.40625 C 1.859375 -16.75 2.195312 -17.914062 2.875 -18.90625 C 3.5625 -19.894531 4.523438 -20.648438 5.765625 -21.171875 C 7.015625 -21.691406 8.46875 -21.953125 10.125 -21.953125 C 12.0625 -21.953125 13.664062 -21.671875 14.9375 -21.109375 C 16.21875 -20.554688 17.21875 -19.8125 17.9375 -18.875 L 15.046875 -15.75 L 14.65625 -15.75 C 14.050781 -16.425781 13.375 -16.921875 12.625 -17.234375 C 11.875 -17.546875 11.039062 -17.703125 10.125 -17.703125 C 7.988281 -17.703125 6.921875 -17.035156 6.921875 -15.703125 C 6.921875 -15.140625 7.117188 -14.679688 7.515625 -14.328125 C 7.910156 -13.984375 8.609375 -13.703125 9.609375 -13.484375 L 12.265625 -12.890625 C 14.453125 -12.421875 16.050781 -11.664062 17.0625 -10.625 C 18.070312 -9.59375 18.578125 -8.207031 18.578125 -6.46875 C 18.578125 -5.101562 18.238281 -3.898438 17.5625 -2.859375 C 16.882812 -1.816406 15.90625 -1.007812 14.625 -0.4375 C 13.351562 0.125 11.835938 0.40625 10.078125 0.40625 Z M 10.078125 0.40625 "/></g></g></g><g fill="#007bff" fill-opacity="1"><g transform="translate(159.291289, 186.999979)"><g><path d="M 14.75 -28.5625 C 16.789062 -28.5625 18.535156 -28.1875 19.984375 -27.4375 C 21.441406 -26.6875 22.539062 -25.632812 23.28125 -24.28125 C 24.019531 -22.9375 24.390625 -21.375 24.390625 -19.59375 C 24.390625 -17.8125 24.019531 -16.25 23.28125 -14.90625 C 22.539062 -13.5625 21.441406 -12.515625 19.984375 -11.765625 C 18.535156 -11.015625 16.789062 -10.640625 14.75 -10.640625 L 9.359375 -10.640625 L 9.359375 0 L 3.71875 0 L 3.71875 -28.5625 Z M 14 -15.125 C 17.144531 -15.125 18.71875 -16.613281 18.71875 -19.59375 C 18.71875 -22.582031 17.144531 -24.078125 14 -24.078125 L 9.359375 -24.078125 L 9.359375 -15.125 Z M 14 -15.125 "/></g></g></g><g fill="#007bff" fill-opacity="1"><g transform="translate(185.382489, 186.999979)"><g><path d="M 8.40625 0.40625 C 7.019531 0.40625 5.816406 0.15625 4.796875 -0.34375 C 3.785156 -0.851562 3.003906 -1.597656 2.453125 -2.578125 C 1.910156 -3.566406 1.640625 -4.753906 1.640625 -6.140625 C 1.640625 -7.410156 1.910156 -8.476562 2.453125 -9.34375 C 3.003906 -10.207031 3.851562 -10.914062 5 -11.46875 C 6.144531 -12.03125 7.644531 -12.457031 9.5 -12.75 C 10.78125 -12.957031 11.753906 -13.1875 12.421875 -13.4375 C 13.097656 -13.6875 13.550781 -13.96875 13.78125 -14.28125 C 14.019531 -14.59375 14.140625 -14.988281 14.140625 -15.46875 C 14.140625 -16.15625 13.898438 -16.679688 13.421875 -17.046875 C 12.941406 -17.410156 12.140625 -17.59375 11.015625 -17.59375 C 9.816406 -17.59375 8.675781 -17.328125 7.59375 -16.796875 C 6.519531 -16.265625 5.582031 -15.5625 4.78125 -14.6875 L 4.390625 -14.6875 L 2.125 -18.109375 C 3.21875 -19.316406 4.550781 -20.257812 6.125 -20.9375 C 7.707031 -21.613281 9.429688 -21.953125 11.296875 -21.953125 C 14.140625 -21.953125 16.195312 -21.347656 17.46875 -20.140625 C 18.75 -18.929688 19.390625 -17.210938 19.390625 -14.984375 L 19.390625 -5.625 C 19.390625 -4.664062 19.816406 -4.1875 20.671875 -4.1875 C 20.992188 -4.1875 21.3125 -4.242188 21.625 -4.359375 L 21.890625 -4.28125 L 22.28125 -0.515625 C 21.988281 -0.316406 21.570312 -0.15625 21.03125 -0.03125 C 20.5 0.09375 19.914062 0.15625 19.28125 0.15625 C 17.988281 0.15625 16.976562 -0.0859375 16.25 -0.578125 C 15.53125 -1.078125 15.015625 -1.851562 14.703125 -2.90625 L 14.296875 -2.953125 C 13.242188 -0.710938 11.28125 0.40625 8.40625 0.40625 Z M 10.125 -3.640625 C 11.375 -3.640625 12.367188 -4.054688 13.109375 -4.890625 C 13.859375 -5.734375 14.234375 -6.90625 14.234375 -8.40625 L 14.234375 -10.59375 L 13.875 -10.671875 C 13.539062 -10.410156 13.109375 -10.191406 12.578125 -10.015625 C 12.054688 -9.835938 11.300781 -9.664062 10.3125 -9.5 C 9.144531 -9.300781 8.300781 -8.960938 7.78125 -8.484375 C 7.269531 -8.015625 7.015625 -7.34375 7.015625 -6.46875 C 7.015625 -5.539062 7.285156 -4.835938 7.828125 -4.359375 C 8.378906 -3.878906 9.144531 -3.640625 10.125 -3.640625 Z M 10.125 -3.640625 "/></g></g></g><g fill="#007bff" fill-opacity="1"><g transform="translate(208.095118, 186.999979)"><g><path d="M 8.953125 0.40625 C 7.003906 0.40625 5.519531 -0.113281 4.5 -1.15625 C 3.476562 -2.207031 2.96875 -3.800781 2.96875 -5.9375 L 2.96875 -30.203125 L 8.375 -30.203125 L 8.375 -6.15625 C 8.375 -4.84375 8.921875 -4.1875 10.015625 -4.1875 C 10.328125 -4.1875 10.660156 -4.238281 11.015625 -4.34375 L 11.296875 -4.265625 L 11.78125 -0.09375 C 11.476562 0.0625 11.078125 0.179688 10.578125 0.265625 C 10.085938 0.359375 9.546875 0.40625 8.953125 0.40625 Z M 8.953125 0.40625 "/></g></g></g></svg>