<svg version="1.1" id="Layer_1" xmlns="http://www.w3.org/2000/svg" xmlns:xlink="http://www.w3.org/1999/xlink" x="0px" y="0px"
	 width="100%" viewBox="0 0 800 800" enable-background="new 0 0 800 800" xml:space="preserve">
<path fill="#0080FF" opacity="1.000000" stroke="none" 
	d="
M448.000000,801.000000 
	C298.689911,801.000000 149.879807,801.000000 1.034850,801.000000 
	C1.034850,534.398193 1.034850,267.796387 1.034850,1.097292 
	C267.560150,1.097292 534.120361,1.097292 800.840271,1.097292 
	C800.840271,267.666595 800.840271,534.333313 800.840271,801.000000 
	C683.462952,801.000000 565.981506,801.000000 448.000000,801.000000 
M93.774384,346.499146 
	C93.774384,353.911865 93.774384,361.324615 93.774384,368.925812 
	C103.658165,368.925812 112.817123,369.262817 121.930603,368.765808 
	C125.766243,368.556610 129.797714,367.132538 133.227478,365.300781 
	C140.074814,361.643707 142.744598,355.402802 142.126373,347.737946 
	C141.557648,340.686798 137.349762,336.713287 130.951004,334.599426 
	C130.208618,334.354126 129.515213,333.960480 128.609695,333.549713 
	C129.338699,333.066284 129.872452,332.681183 130.434967,332.344055 
	C138.179199,327.702026 141.042618,322.271240 139.699036,314.755554 
	C138.366821,307.303406 133.620453,301.978333 125.097847,301.247620 
	C114.913055,300.374390 104.596176,301.041656 93.774460,301.041656 
	C93.774460,315.603699 93.774460,330.551422 93.774384,346.499146 
M268.456543,369.029358 
	C272.085358,369.624512 272.942352,367.886993 272.833984,364.521606 
	C272.610382,357.577271 272.766663,350.620697 272.766663,343.045410 
	C278.363220,343.045410 283.344940,343.322388 288.285797,342.990662 
	C300.463562,342.173157 308.805511,334.055847 309.205627,322.992401 
	C309.673340,310.059570 303.419464,302.390259 290.118347,300.818970 
	C282.724091,299.945496 275.175049,300.457184 267.708588,300.086884 
	C264.201782,299.912964 263.141937,301.144714 263.164948,304.619629 
	C263.298248,324.756012 263.305542,344.894287 263.152008,365.030396 
	C263.125397,368.518250 264.493988,369.439575 268.456543,369.029358 
M352.236511,341.722412 
	C352.173035,339.391174 352.245880,337.046783 352.021912,334.731049 
	C351.152405,325.741425 345.395142,320.033539 336.438843,319.503967 
	C329.890503,319.116760 323.839020,320.899292 318.794647,325.148621 
	C317.820740,325.969055 317.152405,328.729034 317.742859,329.453369 
	C318.589966,330.492645 320.798584,330.998138 322.285553,330.778961 
	C323.796661,330.556274 325.067627,329.026825 326.566010,328.334137 
	C330.962891,326.301422 335.669098,325.182983 339.871918,328.202423 
	C344.344147,331.415436 344.242889,336.337402 343.606995,340.694092 
	C336.478699,342.278320 329.735565,343.337250 323.289856,345.349091 
	C318.169403,346.947296 314.266632,350.448883 313.922607,356.458893 
	C313.432220,365.024353 319.982239,371.074341 329.279480,369.614960 
	C334.476166,368.799255 339.386993,366.162415 344.682159,364.254089 
	C345.045319,367.909882 347.049408,370.356140 352.236450,368.397034 
	C352.236450,359.940033 352.236450,351.307129 352.236511,341.722412 
M241.290802,326.808838 
	C244.685028,327.470062 248.779190,332.623596 251.011078,325.386963 
	C244.783646,319.209045 233.305298,317.666870 226.048492,322.051758 
	C221.265747,324.941711 218.640823,329.102081 218.997406,334.862274 
	C219.341782,340.425476 222.793671,343.519684 227.582367,345.406036 
	C231.592194,346.985596 235.948929,347.891541 239.637817,349.996826 
	C241.673279,351.158478 244.128693,354.489258 243.748322,356.280029 
	C243.213303,358.798737 240.450790,362.343964 238.227173,362.675476 
	C234.249588,363.268433 229.608276,362.596313 225.900467,360.963379 
	C221.745331,359.133484 219.464203,359.077850 218.057632,364.066956 
	C223.921494,369.153870 230.763687,370.709717 238.352402,369.362579 
	C246.713104,367.878418 251.605652,363.042114 252.182816,355.909668 
	C252.767899,348.679382 249.809692,345.020874 240.844009,341.839172 
	C237.560272,340.673889 234.029663,339.894226 231.114182,338.115173 
	C229.305862,337.011719 227.330338,334.281311 227.462631,332.426178 
	C227.598511,330.520844 229.880386,327.932159 231.814346,327.196167 
	C234.425995,326.202240 237.602295,326.692047 241.290802,326.808838 
M413.159424,344.241852 
	C408.211029,342.322937 403.086090,340.745636 398.398254,338.322662 
	C396.430481,337.305634 393.987854,334.262543 394.274109,332.563904 
	C394.643829,330.369598 397.316925,327.269196 399.380127,326.937927 
	C403.078979,326.344025 407.319244,326.835693 410.858551,328.150970 
	C414.713440,329.583435 416.752258,329.403198 417.777283,324.930023 
	C411.398010,319.535889 404.120178,318.420013 396.312012,320.591644 
	C389.657562,322.442444 385.788727,327.415894 385.677673,333.494446 
	C385.568726,339.458893 388.524475,343.324005 395.324066,345.894379 
	C398.898468,347.245636 402.857666,347.910187 406.032227,349.872925 
	C408.198425,351.212219 410.843750,354.529358 410.502655,356.476624 
	C410.073120,358.928802 407.030518,362.397644 404.733551,362.721710 
	C400.744904,363.284454 395.971924,362.721863 392.427765,360.889954 
	C387.896698,358.548004 386.196472,359.690460 384.779755,363.689972 
	C392.053375,370.512573 404.259186,371.783600 412.192719,366.871643 
	C420.485321,361.737335 421.536407,348.821991 413.159424,344.241852 
M365.375427,323.499817 
	C365.375427,338.550140 365.375427,353.600494 365.375427,368.750763 
	C368.622803,368.750763 371.189453,368.750763 373.750793,368.750763 
	C373.750793,345.123505 373.750793,321.787018 373.750793,298.492889 
	C365.377167,297.640137 365.376648,297.640137 365.375519,305.553009 
	C365.374725,311.201935 365.375488,316.850891 365.375427,323.499817 
M438.454407,422.137268 
	C439.707733,418.519531 440.961060,414.901825 442.710449,409.852234 
	C445.723480,418.875488 448.153503,426.436096 450.835876,433.906128 
	C451.281281,435.146393 452.838379,436.807922 453.861847,436.794128 
	C454.929138,436.779755 456.526764,435.158691 456.937317,433.922760 
	C459.922516,424.935150 462.684052,415.872864 465.465393,406.818512 
	C465.827209,405.640808 465.898438,404.373810 466.223633,402.437103 
	C458.443024,403.412262 460.394226,409.957153 458.639282,413.787598 
	C456.614899,418.206238 455.596893,423.085968 453.759735,428.994537 
	C450.976135,420.935699 448.759735,414.155365 446.246552,407.486847 
	C445.579926,405.717987 444.001068,404.292938 442.841034,402.710052 
	C441.621521,404.256134 439.926392,405.623596 439.266815,407.379944 
	C436.725922,414.145660 434.516205,421.035767 432.183044,427.879517 
	C429.087494,420.592865 426.853119,413.483246 424.892395,406.298950 
	C423.998291,403.022858 422.435394,401.796722 418.693298,403.371277 
	C422.000732,413.952026 425.259949,424.552094 428.709015,435.089996 
	C428.991425,435.953003 430.618195,436.957092 431.527740,436.874603 
	C432.487732,436.787506 433.776794,435.647583 434.156647,434.670105 
	C435.659424,430.802917 436.862244,426.819183 438.454407,422.137268 
M184.888687,308.545349 
	C184.888687,305.267731 184.888687,301.990112 184.888687,298.469177 
	C181.704086,298.469177 179.156982,298.469177 176.413879,298.469177 
	C176.413879,322.113678 176.413879,345.428680 176.413879,368.661987 
	C179.370438,368.661987 181.940613,368.661987 184.888672,368.661987 
	C184.888672,348.708557 184.888672,329.121063 184.888687,308.545349 
M199.199814,299.048309 
	C199.158401,322.018463 199.115051,344.988586 199.099365,367.958771 
	C199.099182,368.222931 199.457321,368.487396 199.616028,368.707153 
	C202.075531,368.707153 204.494492,368.707153 207.010956,368.707153 
	C207.010956,345.146240 207.010956,321.885956 207.010956,298.401154 
	C204.422821,298.401154 202.123230,298.401154 199.199814,299.048309 
M664.478271,422.783630 
	C664.662292,419.207275 665.352051,415.795349 669.924011,416.035065 
	C674.777344,416.289551 674.255066,420.253174 674.361511,423.519135 
	C674.475403,427.012543 674.134399,430.542297 674.533997,433.993439 
	C674.679626,435.251709 676.384460,436.329468 677.377930,437.489594 
	C677.897339,437.151855 678.416687,436.814117 678.936096,436.476349 
	C678.936096,432.008820 678.946106,427.541229 678.929260,423.073730 
	C678.924866,421.910461 678.952759,420.728699 678.767578,419.587585 
	C677.689209,412.941223 671.295227,410.127167 665.633118,413.796539 
	C664.698792,414.402008 663.865540,415.163269 663.921753,415.119202 
	C660.560547,413.985596 658.071899,412.550720 655.528076,412.445160 
	C652.615356,412.324310 649.653625,413.384003 645.856018,414.090149 
	C645.856018,420.266144 645.739685,427.537231 646.005981,434.794312 
	C646.038574,435.682129 648.122192,436.494720 650.166870,438.024017 
	C650.166870,432.247284 650.163147,428.255188 650.167725,424.263092 
	C650.174561,418.364563 651.780457,415.730377 655.526367,416.008606 
	C661.203918,416.430328 659.793884,420.929474 659.957153,424.362885 
	C660.107300,427.519745 660.098389,430.693848 659.963013,433.851929 
	C659.825562,437.060150 661.300842,437.596710 664.468994,436.446259 
	C664.468994,432.315765 664.468994,428.018494 664.478271,422.783630 
M161.965454,341.500183 
	C161.965454,334.580475 161.965454,327.660736 161.965454,320.667114 
	C158.661331,320.667114 156.107010,320.667114 153.468872,320.667114 
	C153.468872,336.934784 153.468872,352.809601 153.468872,368.692200 
	C156.404297,368.692200 158.977676,368.692200 161.965454,368.692200 
	C161.965454,359.739685 161.965454,351.119873 161.965454,341.500183 
M373.193237,431.295532 
	C373.193237,433.081024 373.193237,434.866516 373.193237,436.630157 
	C377.557861,436.763367 377.649323,436.766083 377.738617,433.770966 
	C377.842590,430.282104 377.755585,426.787811 377.769775,423.295929 
	C377.786438,419.194672 377.592194,415.041016 373.239166,413.052216 
	C368.930725,411.083740 365.166046,412.565369 362.645477,415.331299 
	C359.717987,414.185120 357.290253,412.545074 354.793701,412.432678 
	C351.713440,412.294006 348.575989,413.426117 345.095947,414.077850 
	C345.095947,421.004547 345.095947,428.866608 345.095947,436.728668 
	C345.571136,436.996490 346.046326,437.264313 346.521515,437.532135 
	C347.365234,436.379272 348.841644,435.275940 348.936523,434.064392 
	C349.247162,430.097870 349.197540,426.085449 349.016144,422.103027 
	C348.835693,418.140594 350.652527,416.040161 354.463257,416.005280 
	C358.286835,415.970245 358.914398,418.814728 358.927979,421.881195 
	C358.949951,426.838165 358.933899,431.795258 358.933899,436.746490 
	C363.079254,436.729126 363.133789,436.730896 363.231720,433.694855 
	C363.376190,429.214691 362.969818,424.647339 363.761780,420.292419 
	C364.069397,418.600861 367.015564,416.267792 368.730743,416.291870 
	C370.227844,416.312897 372.511475,419.033752 372.968689,420.920227 
	C373.692627,423.906769 373.181641,427.192657 373.193237,431.295532 
M268.193390,435.880585 
	C269.530304,436.305328 270.867249,436.730072 272.229858,437.162964 
	C272.489044,436.112610 272.634583,435.790985 272.638153,435.467773 
	C272.682495,431.469635 272.704163,427.471252 272.735535,423.472961 
	C272.776672,418.231476 274.703613,415.881927 279.060699,416.015350 
	C284.236664,416.173798 283.944641,420.020111 283.958588,423.583069 
	C283.975494,427.901062 283.962616,432.219208 283.962616,436.707245 
	C285.685333,436.707245 287.057465,436.707245 288.581573,436.707245 
	C288.581573,431.221466 288.912872,426.042480 288.504303,420.922516 
	C287.884888,413.161346 282.673706,410.345520 275.452393,413.374725 
	C274.441132,413.798920 272.871033,414.271729 272.161469,413.805664 
	C268.159454,411.177246 268.068024,413.813202 268.062042,416.642975 
	C268.048981,422.808655 268.077423,428.974396 268.193390,435.880585 
M111.913879,409.692566 
	C109.823441,403.135315 103.331635,401.296356 89.216354,403.370605 
	C89.216354,413.709381 89.112961,424.126984 89.380470,434.535034 
	C89.406471,435.546783 91.723930,436.499664 92.977722,437.479858 
	C93.387611,437.102692 93.797508,436.725525 94.207397,436.348389 
	C94.207397,432.438599 94.207397,428.528809 94.207397,424.720093 
	C110.786888,422.214661 113.008881,420.398010 111.913879,409.692566 
M515.185608,427.521118 
	C515.188049,429.680786 514.836426,431.924164 515.320068,433.970093 
	C515.631470,435.287384 517.169739,436.314697 518.158142,437.471985 
	C518.657043,437.139008 519.156006,436.806000 519.654907,436.473022 
	C519.654907,431.022400 520.013062,425.542053 519.563904,420.128693 
	C519.006775,413.413208 513.605835,410.556030 507.275513,413.167450 
	C506.020081,413.685333 504.805756,414.302917 502.980957,415.148743 
	C502.980957,410.204254 502.980957,406.096619 502.980957,401.988953 
	C502.525696,401.721863 502.070435,401.454742 501.615204,401.187622 
	C500.808868,402.251312 499.321655,403.302856 499.302368,404.380615 
	C499.123993,414.345184 499.127197,424.315521 499.305176,434.280151 
	C499.324127,435.342072 500.794983,436.378052 501.592285,437.426056 
	C502.083984,437.159302 502.575653,436.892548 503.067352,436.625763 
	C503.067352,432.002838 503.036255,427.379608 503.076935,422.757050 
	C503.111206,418.859955 505.907990,416.068634 509.850372,415.943512 
	C514.550537,415.794373 515.188721,418.935822 515.180603,422.583923 
	C515.177612,423.912964 515.183655,425.242004 515.185608,427.521118 
M234.232620,435.976746 
	C235.010025,434.911133 235.787430,433.845490 236.564835,432.779877 
	C235.252914,432.791626 233.819016,432.458038 232.648926,432.871338 
	C225.310425,435.463470 220.894562,432.669952 221.141083,425.010773 
	C225.428436,425.010773 229.737885,424.891174 234.037125,425.049347 
	C237.359100,425.171570 238.024551,423.684814 237.455521,420.742218 
	C236.516769,415.887726 233.679108,413.105621 228.859253,412.320465 
	C224.098572,411.544891 219.333984,413.965820 217.352188,418.397522 
	C214.997482,423.663086 215.309540,428.936005 218.937271,433.458588 
	C222.855682,438.343445 228.170074,437.946899 234.232620,435.976746 
M323.637604,412.885986 
	C317.605682,415.874908 315.204620,420.369080 316.094452,427.004944 
	C316.820435,432.418915 320.207153,436.335724 324.944885,437.088806 
	C329.860260,437.870117 334.455719,437.116821 337.229370,432.574951 
	C340.203247,427.705200 340.279327,422.348877 337.404205,417.424927 
	C334.513428,412.474274 329.752197,411.488251 323.637604,412.885986 
M527.470093,416.040192 
	C526.631958,419.990112 525.089111,423.947968 525.133423,427.887970 
	C525.189331,432.856567 529.269409,436.446899 534.037170,437.165710 
	C539.762939,438.028992 544.495300,435.857208 546.643982,431.380127 
	C549.327576,425.788391 548.113892,418.339996 543.947998,414.835175 
	C539.521912,411.111450 533.786194,411.340210 527.470093,416.040192 
M384.623352,417.219788 
	C384.063507,420.587646 382.948517,423.976959 383.077728,427.318146 
	C383.258362,431.988037 385.937683,435.626404 390.593018,436.807739 
	C395.317932,438.006775 400.027557,437.775482 403.346649,432.887939 
	C401.770294,432.471924 400.239594,432.483612 398.872986,432.963074 
	C391.944031,435.393738 388.120026,432.951599 387.376495,425.056183 
	C392.806000,425.056183 398.206207,425.056183 403.713104,425.056183 
	C404.956818,419.838135 403.382324,416.090118 399.344330,413.541412 
	C394.967224,410.778748 389.655853,412.040497 384.623352,417.219788 
M571.681152,436.983948 
	C572.217896,436.495544 573.213623,436.015015 573.222168,435.517517 
	C573.339111,428.699554 573.446777,421.874390 573.185669,415.065216 
	C573.149963,414.132812 571.110718,413.277283 569.016724,411.598602 
	C569.016724,418.153015 568.873962,422.809082 569.058105,427.452240 
	C569.231262,431.819427 566.603271,433.453461 562.998291,433.814880 
	C558.806274,434.235077 557.548035,431.300171 557.416260,427.799377 
	C557.266235,423.812317 557.285583,419.814392 557.373108,415.824310 
	C557.443237,412.623993 556.008057,412.124786 553.042053,413.322662 
	C553.042053,418.431122 552.854736,423.565613 553.086426,428.681091 
	C553.425293,436.160614 559.328064,439.664856 565.999268,436.089386 
	C568.377441,434.814789 569.463135,435.435486 571.681152,436.983948 
M133.693909,419.256836 
	C133.004425,415.405304 130.789886,412.822449 126.911743,412.317078 
	C122.683578,411.766083 118.784615,412.684418 116.325066,417.223999 
	C118.187096,417.483002 119.911758,417.138702 121.541527,416.537231 
	C126.817108,414.590240 129.625214,416.908783 128.838104,422.694611 
	C125.504608,423.539337 122.048523,424.109711 118.832268,425.318298 
	C115.773216,426.467834 114.156036,428.950592 114.810547,432.445618 
	C115.482910,436.035950 118.009895,437.515656 121.284348,437.265411 
	C123.998093,437.057983 126.651810,436.065125 129.509537,435.377594 
	C130.523941,435.852417 131.931519,436.511292 133.846329,437.407562 
	C133.846329,431.027435 133.846329,425.571320 133.693909,419.256836 
M208.365280,427.185883 
	C210.222717,422.539215 212.080139,417.892517 213.937576,413.245850 
	C213.416870,412.966919 212.896179,412.687988 212.375488,412.409058 
	C205.450012,415.583496 207.453247,424.730865 201.947556,429.588593 
	C200.521988,426.091400 199.452484,422.620941 197.733109,419.509583 
	C196.278320,416.877014 196.998520,411.538971 190.691376,413.196167 
	C193.718582,420.628876 196.576614,427.830933 199.640594,434.944275 
	C200.040909,435.873657 201.520782,436.912018 202.460983,436.875641 
	C203.426376,436.838287 204.694092,435.731476 205.209869,434.762787 
	C206.371033,432.582031 207.149109,430.197296 208.365280,427.185883 
M621.472717,437.018524 
	C624.255066,437.018524 627.037415,437.018524 629.819763,437.018524 
	C629.941528,436.387604 630.063354,435.756653 630.185120,435.125732 
	C626.475708,430.129761 619.791687,435.221893 614.992798,431.858917 
	C614.992798,422.449982 614.992798,412.718658 614.992798,402.987305 
	C614.542847,402.700867 614.092896,402.414398 613.642944,402.127930 
	C612.660828,403.133759 610.845947,404.122803 610.825317,405.147980 
	C610.615051,415.604736 610.696716,426.067383 610.696716,437.018982 
	C614.263306,437.018982 617.383240,437.018982 621.472717,437.018524 
M173.874573,413.465240 
	C171.623108,413.074524 169.336365,412.225494 167.128036,412.395447 
	C163.379730,412.683899 160.449753,414.560364 159.986023,418.729218 
	C159.528992,422.837799 162.206985,424.667755 165.582260,425.850311 
	C166.833160,426.288574 168.351868,426.374817 169.300018,427.161865 
	C170.521683,428.175934 172.259079,429.966156 172.010300,430.995880 
	C171.708389,432.245544 169.666351,433.639954 168.193634,433.889801 
	C166.574295,434.164551 164.763840,433.075165 163.002029,432.843567 
	C162.058563,432.719543 161.042282,433.149719 160.058853,433.329803 
	C160.551804,434.218292 160.893234,435.721619 161.564362,435.887024 
	C164.235428,436.545288 167.028976,437.208008 169.740463,437.081604 
	C173.677597,436.898071 176.124741,434.404938 176.651642,430.470734 
	C177.162933,426.653320 174.768341,424.725067 171.529846,423.557068 
	C170.440582,423.164276 169.114502,423.078979 168.286957,422.386597 
	C166.828735,421.166565 165.670486,419.587982 164.386658,418.159515 
	C166.389008,417.393860 168.343567,416.406403 170.414719,415.959961 
	C171.390137,415.749725 172.614029,416.938324 173.682648,416.865631 
	C176.282700,416.688782 176.487991,415.498749 173.874573,413.465240 
M698.087036,426.402771 
	C698.109741,428.060486 698.007996,429.731110 698.178040,431.373566 
	C698.723389,436.639740 703.207825,439.087677 707.919861,436.660980 
	C708.669189,436.275055 709.114197,435.298218 709.699890,434.594574 
	C708.810181,434.152954 707.926392,433.698822 707.029358,433.272614 
	C705.666321,432.624969 703.162170,432.079041 703.108887,431.346832 
	C702.755188,426.487274 702.925659,421.589539 702.925659,417.189270 
	C705.788513,416.269592 707.818176,415.617554 709.847839,414.965515 
	C709.682678,414.430695 709.517517,413.895844 709.352356,413.360992 
	C707.289368,413.109222 705.226379,412.857452 702.817688,412.563507 
	C702.817688,410.678894 703.009094,409.012238 702.742371,407.422455 
	C702.593933,406.537415 701.682556,405.780334 701.114990,404.965607 
	C700.430786,405.713837 699.513367,406.353729 699.106079,407.230591 
	C697.878784,409.872559 696.850098,412.606750 695.609558,415.632568 
	C700.198303,417.035431 697.519226,421.772095 698.087036,426.402771 
M155.077667,426.666565 
	C152.667480,425.331573 150.112701,424.196838 147.894806,422.595490 
	C146.248825,421.407013 145.040268,419.612701 143.636871,418.088257 
	C145.819595,417.400513 147.963440,416.473358 150.198898,416.110321 
	C151.654678,415.873901 153.243713,416.457916 154.773056,416.674408 
	C152.398788,412.084259 148.634598,411.256470 145.055847,412.823944 
	C142.672470,413.867859 139.724136,416.547638 139.500137,418.746979 
	C139.289490,420.815063 142.090179,423.443634 144.017532,425.375000 
	C145.074112,426.433777 147.298981,426.247528 148.566727,427.197144 
	C149.821976,428.137451 150.536255,429.799896 151.487823,431.145599 
	C150.087387,432.114349 148.775925,433.662598 147.262451,433.894928 
	C145.626266,434.146088 143.820923,433.012177 142.050797,432.791168 
	C141.137619,432.677124 140.140793,433.233093 139.181747,433.486328 
	C139.598495,434.279358 139.975861,435.734100 140.438171,435.761597 
	C144.418137,435.998474 148.675919,436.859741 152.326584,435.773285 
	C155.641418,434.786713 156.718948,431.045105 155.077667,426.666565 
M580.690491,416.650208 
	C580.991882,421.559784 581.229980,426.474274 581.612000,431.377563 
	C582.017517,436.582092 586.813416,439.177612 591.312439,436.614807 
	C592.025391,436.208649 592.517761,435.213623 592.793213,434.384888 
	C592.860779,434.181580 591.526428,433.073181 591.084167,433.205872 
	C585.340881,434.929047 586.053955,430.896515 586.008240,427.596466 
	C585.958374,423.995026 585.996948,420.392334 585.996948,416.628143 
	C587.891663,416.473785 589.242737,416.544800 590.479431,416.202484 
	C591.379272,415.953461 592.128052,415.158508 592.944153,414.606903 
	C592.119873,414.074158 591.357727,413.290161 590.456787,413.067352 
	C589.088013,412.728851 587.622986,412.779755 586.218323,412.666840 
	C586.034302,409.814728 585.879456,407.415283 585.724670,405.015869 
	C583.919434,405.385742 582.961182,406.119904 582.614014,407.075928 
	C581.686157,409.631287 582.746948,413.334015 578.451477,413.797943 
	C578.955444,414.650208 579.459412,415.502472 580.690491,416.650208 
M493.321198,436.668518 
	C493.778748,435.774017 494.236298,434.879486 494.693878,433.984985 
	C493.830261,433.789764 492.863861,433.776855 492.125061,433.360229 
	C490.708954,432.561768 488.363037,431.633209 488.264832,430.584320 
	C487.837952,426.025452 488.081665,421.403748 488.081665,416.619202 
	C489.864868,416.468719 491.210205,416.530975 492.445679,416.192383 
	C493.349182,415.944763 494.108215,415.170044 494.931671,414.630310 
	C494.116394,414.093384 493.364777,413.303406 492.471008,413.078522 
	C491.110016,412.736084 489.650543,412.784943 488.251740,412.669189 
	C488.083954,409.802948 487.943085,407.396149 487.802216,404.989349 
	C487.398987,404.821564 486.995728,404.653809 486.592468,404.486053 
	C484.655975,408.088928 482.719452,411.691803 481.158600,414.595825 
	C482.015228,417.086670 483.110413,419.302521 483.487427,421.634491 
	C483.879242,424.058289 483.545837,426.594788 483.583832,429.081146 
	C483.696808,436.476685 485.248993,437.819092 493.321198,436.668518 
M299.399261,436.226227 
	C306.098267,438.404266 309.846832,437.537109 313.547150,432.045380 
	C311.293182,432.499298 309.958679,432.950226 308.609467,432.999603 
	C306.239471,433.086395 303.553345,433.614594 301.552673,432.720459 
	C297.987335,431.126984 296.939606,424.095184 299.123047,419.631439 
	C301.147034,415.493652 304.524750,415.319366 308.454498,416.402039 
	C309.739777,416.756134 311.204803,416.457733 312.587646,416.457733 
	C306.966736,410.820496 300.290405,411.197021 296.211945,416.213593 
	C291.729401,421.727203 292.907410,430.886078 299.399261,436.226227 
M689.968140,434.440155 
	C689.967957,428.141541 690.074890,421.839264 689.858643,415.548065 
	C689.823975,414.541290 688.342896,413.584229 687.530457,412.604187 
	C686.771301,413.475739 685.380432,414.328674 685.354187,415.221802 
	C685.164062,421.680481 685.182617,428.148834 685.332153,434.609558 
	C685.351013,435.425568 686.524475,436.870789 687.148376,436.862915 
	C688.083191,436.851135 689.005127,435.810272 689.968140,434.440155 
M260.926178,422.492859 
	C260.926178,416.055847 260.926178,409.618805 260.926178,402.717499 
	C258.928741,402.847778 257.557465,402.937195 256.362427,403.015137 
	C256.362427,414.609161 256.362427,425.697723 256.362427,436.658905 
	C259.631378,437.597900 261.160828,436.865509 260.965149,433.482391 
	C260.773071,430.161255 260.925171,426.820251 260.926178,422.492859 
M161.060608,300.193329 
	C158.612457,300.244049 155.617752,299.424011 153.838669,300.540680 
	C150.845169,302.419647 150.551239,305.816010 152.865967,308.799042 
	C155.038330,311.598633 158.010620,312.008484 160.791000,310.021942 
	C164.445404,307.410950 164.624725,304.093445 161.060608,300.193329 
M638.982788,421.582458 
	C638.977783,419.418060 639.200928,417.217072 638.862549,415.106110 
	C638.714050,414.179565 637.420593,413.436584 636.646973,412.610291 
	C635.878540,413.462769 634.465515,414.298950 634.443420,415.170349 
	C634.262878,422.295288 634.341675,429.426788 634.341675,436.393463 
	C637.906799,437.830139 639.122681,436.776642 639.008728,433.541748 
	C638.879822,429.883453 638.981384,426.216980 638.982788,421.582458 
M186.427170,417.073059 
	C186.520615,414.189545 186.473343,411.466278 182.271088,413.312012 
	C182.271088,421.167511 182.271088,428.886719 182.271088,436.589142 
	C186.223587,436.781647 186.342819,436.783783 186.395721,433.827179 
	C186.490387,428.538086 186.425598,423.246124 186.427170,417.073059 
M470.906586,421.543060 
	C470.908234,425.708801 470.959198,429.875305 470.895905,434.040039 
	C470.845398,437.363525 472.377258,437.565002 475.086273,436.267517 
	C475.086273,429.387329 475.178314,422.565948 474.986237,415.752563 
	C474.957703,414.740570 473.589935,413.766266 472.841766,412.774536 
	C472.199738,413.704834 471.197388,414.564667 470.998474,415.581604 
	C470.684448,417.187073 470.909668,418.897980 470.906586,421.543060 
M185.001755,402.132324 
	C183.715363,403.055786 182.428986,403.979248 181.142593,404.902710 
	C181.857498,405.896271 182.380783,407.275421 183.350082,407.757080 
	C184.079102,408.119385 186.258377,407.378021 186.276581,407.045105 
	C186.359955,405.520111 185.909592,403.965973 185.001755,402.132324 
M637.346619,402.074127 
	C636.132385,403.066132 634.724915,403.919678 633.843323,405.150024 
	C633.629944,405.447845 634.971436,407.391937 635.936951,407.827545 
	C636.661377,408.154388 638.789001,407.310486 638.803650,406.930267 
	C638.862427,405.412628 638.339050,403.872467 637.346619,402.074127 
M685.677307,407.256287 
	C687.218689,407.003418 688.825012,406.916809 690.247803,406.360565 
	C690.539978,406.246338 690.540161,403.981232 689.970825,403.413147 
	C689.214233,402.658142 686.893005,402.089203 686.760376,402.318268 
	C685.986755,403.654602 685.656616,405.247711 685.677307,407.256287 
M470.020996,404.649872 
	C471.106842,405.782593 472.077850,407.099945 473.368805,407.902924 
	C473.649963,408.077789 475.485291,406.556091 475.839752,405.546997 
	C476.103973,404.794708 475.104584,402.753906 474.720734,402.767578 
	C473.210541,402.821411 471.721252,403.460907 470.020996,404.649872 
z"/>
<path fill="#F2FCFF" opacity="1.000000" stroke="none" 
	d="
M93.774422,345.999146 
	C93.774460,330.551422 93.774460,315.603699 93.774460,301.041656 
	C104.596176,301.041656 114.913055,300.374390 125.097847,301.247620 
	C133.620453,301.978333 138.366821,307.303406 139.699036,314.755554 
	C141.042618,322.271240 138.179199,327.702026 130.434967,332.344055 
	C129.872452,332.681183 129.338699,333.066284 128.609695,333.549713 
	C129.515213,333.960480 130.208618,334.354126 130.951004,334.599426 
	C137.349762,336.713287 141.557648,340.686798 142.126373,347.737946 
	C142.744598,355.402802 140.074814,361.643707 133.227478,365.300781 
	C129.797714,367.132538 125.766243,368.556610 121.930603,368.765808 
	C112.817123,369.262817 103.658165,368.925812 93.774384,368.925812 
	C93.774384,361.324615 93.774384,353.911865 93.774422,345.999146 
M132.937256,346.990845 
	C131.873764,341.714569 128.215424,338.724396 123.310120,338.283051 
	C116.777565,337.695312 110.152298,338.137909 103.385864,338.137909 
	C103.385864,345.913025 103.385864,353.579926 103.385864,361.657562 
	C107.058197,361.657562 110.355728,361.697937 113.651733,361.644318 
	C116.137871,361.603912 118.641312,361.603180 121.103615,361.306915 
	C129.581619,360.286774 132.883896,356.480774 132.937256,346.990845 
M129.023087,312.687286 
	C121.627808,304.510773 112.090813,308.581970 103.257355,307.412750 
	C103.257355,315.628448 103.257355,323.059265 103.257355,330.952667 
	C108.284309,330.952667 113.085014,331.201233 117.851311,330.901978 
	C128.438385,330.237213 132.762558,323.519592 129.023087,312.687286 
z"/>
<path fill="#EDF9FF" opacity="1.000000" stroke="none" 
	d="
M268.001892,369.029236 
	C264.493988,369.439575 263.125397,368.518250 263.152008,365.030396 
	C263.305542,344.894287 263.298248,324.756012 263.164948,304.619629 
	C263.141937,301.144714 264.201782,299.912964 267.708588,300.086884 
	C275.175049,300.457184 282.724091,299.945496 290.118347,300.818970 
	C303.419464,302.390259 309.673340,310.059570 309.205627,322.992401 
	C308.805511,334.055847 300.463562,342.173157 288.285797,342.990662 
	C283.344940,343.322388 278.363220,343.045410 272.766663,343.045410 
	C272.766663,350.620697 272.610382,357.577271 272.833984,364.521606 
	C272.942352,367.886993 272.085358,369.624512 268.001892,369.029236 
M295.436005,310.956940 
	C288.598358,306.104645 280.920013,307.785004 273.195679,307.685791 
	C273.195679,317.270142 273.195679,326.412384 273.195679,335.576385 
	C278.265747,335.576385 282.928162,335.978546 287.489716,335.472046 
	C292.891968,334.872223 297.293518,332.161774 299.087219,326.649933 
	C300.896484,321.090393 300.392975,315.838379 295.436005,310.956940 
z"/>
<path fill="#EFFCFF" opacity="1.000000" stroke="none" 
	d="
M352.236481,342.198303 
	C352.236450,351.307129 352.236450,359.940033 352.236450,368.397034 
	C347.049408,370.356140 345.045319,367.909882 344.682159,364.254089 
	C339.386993,366.162415 334.476166,368.799255 329.279480,369.614960 
	C319.982239,371.074341 313.432220,365.024353 313.922607,356.458893 
	C314.266632,350.448883 318.169403,346.947296 323.289856,345.349091 
	C329.735565,343.337250 336.478699,342.278320 343.606995,340.694092 
	C344.242889,336.337402 344.344147,331.415436 339.871918,328.202423 
	C335.669098,325.182983 330.962891,326.301422 326.566010,328.334137 
	C325.067627,329.026825 323.796661,330.556274 322.285553,330.778961 
	C320.798584,330.998138 318.589966,330.492645 317.742859,329.453369 
	C317.152405,328.729034 317.820740,325.969055 318.794647,325.148621 
	C323.839020,320.899292 329.890503,319.116760 336.438843,319.503967 
	C345.395142,320.033539 351.152405,325.741425 352.021912,334.731049 
	C352.245880,337.046783 352.173035,339.391174 352.236481,342.198303 
M331.380463,348.654572 
	C330.268555,348.970215 329.126862,349.207306 328.050079,349.615601 
	C324.119202,351.106110 321.450134,353.559692 322.276428,358.191895 
	C322.971069,362.086121 326.647064,364.498016 331.492004,363.685150 
	C339.839478,362.284515 346.358795,359.099579 343.184753,346.972412 
	C339.583588,347.439697 335.875610,347.920868 331.380463,348.654572 
z"/>
<path fill="#EFFCFF" opacity="1.000000" stroke="none" 
	d="
M240.913544,326.677032 
	C237.602295,326.692047 234.425995,326.202240 231.814346,327.196167 
	C229.880386,327.932159 227.598511,330.520844 227.462631,332.426178 
	C227.330338,334.281311 229.305862,337.011719 231.114182,338.115173 
	C234.029663,339.894226 237.560272,340.673889 240.844009,341.839172 
	C249.809692,345.020874 252.767899,348.679382 252.182816,355.909668 
	C251.605652,363.042114 246.713104,367.878418 238.352402,369.362579 
	C230.763687,370.709717 223.921494,369.153870 218.057632,364.066956 
	C219.464203,359.077850 221.745331,359.133484 225.900467,360.963379 
	C229.608276,362.596313 234.249588,363.268433 238.227173,362.675476 
	C240.450790,362.343964 243.213303,358.798737 243.748322,356.280029 
	C244.128693,354.489258 241.673279,351.158478 239.637817,349.996826 
	C235.948929,347.891541 231.592194,346.985596 227.582367,345.406036 
	C222.793671,343.519684 219.341782,340.425476 218.997406,334.862274 
	C218.640823,329.102081 221.265747,324.941711 226.048492,322.051758 
	C233.305298,317.666870 244.783646,319.209045 251.011078,325.386963 
	C248.779190,332.623596 244.685028,327.470062 240.913544,326.677032 
z"/>
<path fill="#EFFCFF" opacity="1.000000" stroke="none" 
	d="
M413.464539,344.452515 
	C421.536407,348.821991 420.485321,361.737335 412.192719,366.871643 
	C404.259186,371.783600 392.053375,370.512573 384.779755,363.689972 
	C386.196472,359.690460 387.896698,358.548004 392.427765,360.889954 
	C395.971924,362.721863 400.744904,363.284454 404.733551,362.721710 
	C407.030518,362.397644 410.073120,358.928802 410.502655,356.476624 
	C410.843750,354.529358 408.198425,351.212219 406.032227,349.872925 
	C402.857666,347.910187 398.898468,347.245636 395.324066,345.894379 
	C388.524475,343.324005 385.568726,339.458893 385.677673,333.494446 
	C385.788727,327.415894 389.657562,322.442444 396.312012,320.591644 
	C404.120178,318.420013 411.398010,319.535889 417.777283,324.930023 
	C416.752258,329.403198 414.713440,329.583435 410.858551,328.150970 
	C407.319244,326.835693 403.078979,326.344025 399.380127,326.937927 
	C397.316925,327.269196 394.643829,330.369598 394.274109,332.563904 
	C393.987854,334.262543 396.430481,337.305634 398.398254,338.322662 
	C403.086090,340.745636 408.211029,342.322937 413.464539,344.452515 
z"/>
<path fill="#E8F8FE" opacity="1.000000" stroke="none" 
	d="
M365.375488,322.999817 
	C365.375488,316.850891 365.374725,311.201935 365.375519,305.553009 
	C365.376648,297.640137 365.377167,297.640137 373.750793,298.492889 
	C373.750793,321.787018 373.750793,345.123505 373.750793,368.750763 
	C371.189453,368.750763 368.622803,368.750763 365.375427,368.750763 
	C365.375427,353.600494 365.375427,338.550140 365.375488,322.999817 
z"/>
<path fill="#E4F9FF" opacity="1.000000" stroke="none" 
	d="
M438.315308,422.507965 
	C436.862244,426.819183 435.659424,430.802917 434.156647,434.670105 
	C433.776794,435.647583 432.487732,436.787506 431.527740,436.874603 
	C430.618195,436.957092 428.991425,435.953003 428.709015,435.089996 
	C425.259949,424.552094 422.000732,413.952026 418.693298,403.371277 
	C422.435394,401.796722 423.998291,403.022858 424.892395,406.298950 
	C426.853119,413.483246 429.087494,420.592865 432.183044,427.879517 
	C434.516205,421.035767 436.725922,414.145660 439.266815,407.379944 
	C439.926392,405.623596 441.621521,404.256134 442.841034,402.710052 
	C444.001068,404.292938 445.579926,405.717987 446.246552,407.486847 
	C448.759735,414.155365 450.976135,420.935699 453.759735,428.994537 
	C455.596893,423.085968 456.614899,418.206238 458.639282,413.787598 
	C460.394226,409.957153 458.443024,403.412262 466.223633,402.437103 
	C465.898438,404.373810 465.827209,405.640808 465.465393,406.818512 
	C462.684052,415.872864 459.922516,424.935150 456.937317,433.922760 
	C456.526764,435.158691 454.929138,436.779755 453.861847,436.794128 
	C452.838379,436.807922 451.281281,435.146393 450.835876,433.906128 
	C448.153503,426.436096 445.723480,418.875488 442.710449,409.852234 
	C440.961060,414.901825 439.707733,418.519531 438.315308,422.507965 
z"/>
<path fill="#ECFAFF" opacity="1.000000" stroke="none" 
	d="
M184.888672,309.039429 
	C184.888672,329.121063 184.888672,348.708557 184.888672,368.661987 
	C181.940613,368.661987 179.370438,368.661987 176.413879,368.661987 
	C176.413879,345.428680 176.413879,322.113678 176.413879,298.469177 
	C179.156982,298.469177 181.704086,298.469177 184.888687,298.469177 
	C184.888687,301.990112 184.888687,305.267731 184.888672,309.039429 
z"/>
<path fill="#F8FFFF" opacity="1.000000" stroke="none" 
	d="
M199.511734,298.724731 
	C202.123230,298.401154 204.422821,298.401154 207.010956,298.401154 
	C207.010956,321.885956 207.010956,345.146240 207.010956,368.707153 
	C204.494492,368.707153 202.075531,368.707153 199.616028,368.707153 
	C199.457321,368.487396 199.099182,368.222931 199.099365,367.958771 
	C199.115051,344.988586 199.158401,322.018463 199.511734,298.724731 
z"/>
<path fill="#D9F6FF" opacity="1.000000" stroke="none" 
	d="
M664.473633,423.252411 
	C664.468994,428.018494 664.468994,432.315765 664.468994,436.446259 
	C661.300842,437.596710 659.825562,437.060150 659.963013,433.851929 
	C660.098389,430.693848 660.107300,427.519745 659.957153,424.362885 
	C659.793884,420.929474 661.203918,416.430328 655.526367,416.008606 
	C651.780457,415.730377 650.174561,418.364563 650.167725,424.263092 
	C650.163147,428.255188 650.166870,432.247284 650.166870,438.024017 
	C648.122192,436.494720 646.038574,435.682129 646.005981,434.794312 
	C645.739685,427.537231 645.856018,420.266144 645.856018,414.090149 
	C649.653625,413.384003 652.615356,412.324310 655.528076,412.445160 
	C658.071899,412.550720 660.560547,413.985596 663.921753,415.119202 
	C663.865540,415.163269 664.698792,414.402008 665.633118,413.796539 
	C671.295227,410.127167 677.689209,412.941223 678.767578,419.587585 
	C678.952759,420.728699 678.924866,421.910461 678.929260,423.073730 
	C678.946106,427.541229 678.936096,432.008820 678.936096,436.476349 
	C678.416687,436.814117 677.897339,437.151855 677.377930,437.489594 
	C676.384460,436.329468 674.679626,435.251709 674.533997,433.993439 
	C674.134399,430.542297 674.475403,427.012543 674.361511,423.519135 
	C674.255066,420.253174 674.777344,416.289551 669.924011,416.035065 
	C665.352051,415.795349 664.662292,419.207275 664.473633,423.252411 
z"/>
<path fill="#ECFAFF" opacity="1.000000" stroke="none" 
	d="
M161.965454,342.000122 
	C161.965454,351.119873 161.965454,359.739685 161.965454,368.692200 
	C158.977676,368.692200 156.404297,368.692200 153.468872,368.692200 
	C153.468872,352.809601 153.468872,336.934784 153.468872,320.667114 
	C156.107010,320.667114 158.661331,320.667114 161.965454,320.667114 
	C161.965454,327.660736 161.965454,334.580475 161.965454,342.000122 
z"/>
<path fill="#E0F7FF" opacity="1.000000" stroke="none" 
	d="
M373.193207,430.823700 
	C373.181641,427.192657 373.692627,423.906769 372.968689,420.920227 
	C372.511475,419.033752 370.227844,416.312897 368.730743,416.291870 
	C367.015564,416.267792 364.069397,418.600861 363.761780,420.292419 
	C362.969818,424.647339 363.376190,429.214691 363.231720,433.694855 
	C363.133789,436.730896 363.079254,436.729126 358.933899,436.746490 
	C358.933899,431.795258 358.949951,426.838165 358.927979,421.881195 
	C358.914398,418.814728 358.286835,415.970245 354.463257,416.005280 
	C350.652527,416.040161 348.835693,418.140594 349.016144,422.103027 
	C349.197540,426.085449 349.247162,430.097870 348.936523,434.064392 
	C348.841644,435.275940 347.365234,436.379272 346.521515,437.532135 
	C346.046326,437.264313 345.571136,436.996490 345.095947,436.728668 
	C345.095947,428.866608 345.095947,421.004547 345.095947,414.077850 
	C348.575989,413.426117 351.713440,412.294006 354.793701,412.432678 
	C357.290253,412.545074 359.717987,414.185120 362.645477,415.331299 
	C365.166046,412.565369 368.930725,411.083740 373.239166,413.052216 
	C377.592194,415.041016 377.786438,419.194672 377.769775,423.295929 
	C377.755585,426.787811 377.842590,430.282104 377.738617,433.770966 
	C377.649323,436.766083 377.557861,436.763367 373.193237,436.630157 
	C373.193237,434.866516 373.193237,433.081024 373.193207,430.823700 
z"/>
<path fill="#D2F1FE" opacity="1.000000" stroke="none" 
	d="
M268.141113,435.510376 
	C268.077423,428.974396 268.048981,422.808655 268.062042,416.642975 
	C268.068024,413.813202 268.159454,411.177246 272.161469,413.805664 
	C272.871033,414.271729 274.441132,413.798920 275.452393,413.374725 
	C282.673706,410.345520 287.884888,413.161346 288.504303,420.922516 
	C288.912872,426.042480 288.581573,431.221466 288.581573,436.707245 
	C287.057465,436.707245 285.685333,436.707245 283.962616,436.707245 
	C283.962616,432.219208 283.975494,427.901062 283.958588,423.583069 
	C283.944641,420.020111 284.236664,416.173798 279.060699,416.015350 
	C274.703613,415.881927 272.776672,418.231476 272.735535,423.472961 
	C272.704163,427.471252 272.682495,431.469635 272.638153,435.467773 
	C272.634583,435.790985 272.489044,436.112610 272.229858,437.162964 
	C270.867249,436.730072 269.530304,436.305328 268.141113,435.510376 
z"/>
<path fill="#E0F7FF" opacity="1.000000" stroke="none" 
	d="
M111.994934,410.065125 
	C113.008881,420.398010 110.786888,422.214661 94.207397,424.720093 
	C94.207397,428.528809 94.207397,432.438599 94.207397,436.348389 
	C93.797508,436.725525 93.387611,437.102692 92.977722,437.479858 
	C91.723930,436.499664 89.406471,435.546783 89.380470,434.535034 
	C89.112961,424.126984 89.216354,413.709381 89.216354,403.370605 
	C103.331635,401.296356 109.823441,403.135315 111.994934,410.065125 
M97.492165,406.224976 
	C96.343048,407.010620 94.290443,407.706604 94.202042,408.597504 
	C93.830078,412.346161 94.044800,416.153015 94.044800,420.541168 
	C97.440674,420.277252 100.602821,420.813385 102.862572,419.628479 
	C104.978561,418.518982 107.324471,415.618408 107.383026,413.447083 
	C107.440598,411.312378 105.030426,408.802032 103.150223,407.049866 
	C102.155350,406.122772 99.984138,406.457947 97.492165,406.224976 
z"/>
<path fill="#E0F7FF" opacity="1.000000" stroke="none" 
	d="
M515.185608,427.046082 
	C515.183655,425.242004 515.177612,423.912964 515.180603,422.583923 
	C515.188721,418.935822 514.550537,415.794373 509.850372,415.943512 
	C505.907990,416.068634 503.111206,418.859955 503.076935,422.757050 
	C503.036255,427.379608 503.067352,432.002838 503.067352,436.625763 
	C502.575653,436.892548 502.083984,437.159302 501.592285,437.426056 
	C500.794983,436.378052 499.324127,435.342072 499.305176,434.280151 
	C499.127197,424.315521 499.123993,414.345184 499.302368,404.380615 
	C499.321655,403.302856 500.808868,402.251312 501.615204,401.187622 
	C502.070435,401.454742 502.525696,401.721863 502.980957,401.988953 
	C502.980957,406.096619 502.980957,410.204254 502.980957,415.148743 
	C504.805756,414.302917 506.020081,413.685333 507.275513,413.167450 
	C513.605835,410.556030 519.006775,413.413208 519.563904,420.128693 
	C520.013062,425.542053 519.654907,431.022400 519.654907,436.473022 
	C519.156006,436.806000 518.657043,437.139008 518.158142,437.471985 
	C517.169739,436.314697 515.631470,435.287384 515.320068,433.970093 
	C514.836426,431.924164 515.188049,429.680786 515.185608,427.046082 
z"/>
<path fill="#D9F6FF" opacity="1.000000" stroke="none" 
	d="
M233.891373,436.121094 
	C228.170074,437.946899 222.855682,438.343445 218.937271,433.458588 
	C215.309540,428.936005 214.997482,423.663086 217.352188,418.397522 
	C219.333984,413.965820 224.098572,411.544891 228.859253,412.320465 
	C233.679108,413.105621 236.516769,415.887726 237.455521,420.742218 
	C238.024551,423.684814 237.359100,425.171570 234.037125,425.049347 
	C229.737885,424.891174 225.428436,425.010773 221.141083,425.010773 
	C220.894562,432.669952 225.310425,435.463470 232.648926,432.871338 
	C233.819016,432.458038 235.252914,432.791626 236.564835,432.779877 
	C235.787430,433.845490 235.010025,434.911133 233.891373,436.121094 
M227.396133,422.138855 
	C229.324966,422.138855 231.253799,422.138855 233.256104,422.138855 
	C233.344376,417.579956 231.192535,415.667816 227.521896,415.657166 
	C223.804367,415.646393 221.263443,417.332764 221.036789,422.139008 
	C222.985260,422.139008 224.745667,422.139008 227.396133,422.138855 
z"/>
<path fill="#DEF6FF" opacity="1.000000" stroke="none" 
	d="
M324.019897,412.776550 
	C329.752197,411.488251 334.513428,412.474274 337.404205,417.424927 
	C340.279327,422.348877 340.203247,427.705200 337.229370,432.574951 
	C334.455719,437.116821 329.860260,437.870117 324.944885,437.088806 
	C320.207153,436.335724 316.820435,432.418915 316.094452,427.004944 
	C315.204620,420.369080 317.605682,415.874908 324.019897,412.776550 
M325.175659,433.545013 
	C328.963013,434.513977 332.082214,433.809967 333.857147,429.961212 
	C335.740692,425.876984 334.929779,419.822693 332.228973,417.394562 
	C329.222198,414.691376 323.993988,415.465302 321.854706,418.930267 
	C319.337036,423.008087 320.589508,429.886566 325.175659,433.545013 
z"/>
<path fill="#DEF6FF" opacity="1.000000" stroke="none" 
	d="
M527.715088,415.756561 
	C533.786194,411.340210 539.521912,411.111450 543.947998,414.835175 
	C548.113892,418.339996 549.327576,425.788391 546.643982,431.380127 
	C544.495300,435.857208 539.762939,438.028992 534.037170,437.165710 
	C529.269409,436.446899 525.189331,432.856567 525.133423,427.887970 
	C525.089111,423.947968 526.631958,419.990112 527.715088,415.756561 
M531.951660,417.242737 
	C528.499939,420.989532 528.485474,425.346771 530.123291,429.737030 
	C531.750122,434.097656 537.327759,435.378815 540.829285,432.444702 
	C543.578491,430.140961 544.393921,422.582031 542.130554,418.976471 
	C539.739014,415.166779 536.344055,415.124664 531.951660,417.242737 
z"/>
<path fill="#D9F6FF" opacity="1.000000" stroke="none" 
	d="
M384.819092,416.902222 
	C389.655853,412.040497 394.967224,410.778748 399.344330,413.541412 
	C403.382324,416.090118 404.956818,419.838135 403.713104,425.056183 
	C398.206207,425.056183 392.806000,425.056183 387.376495,425.056183 
	C388.120026,432.951599 391.944031,435.393738 398.872986,432.963074 
	C400.239594,432.483612 401.770294,432.471924 403.346649,432.887939 
	C400.027557,437.775482 395.317932,438.006775 390.593018,436.807739 
	C385.937683,435.626404 383.258362,431.988037 383.077728,427.318146 
	C382.948517,423.976959 384.063507,420.587646 384.819092,416.902222 
M388.342072,418.722107 
	C388.146729,419.737701 387.951416,420.753296 387.761353,421.741577 
	C392.079834,421.741577 395.955536,421.741577 399.886871,421.741577 
	C398.726837,415.039185 394.333130,413.739655 388.342072,418.722107 
z"/>
<path fill="#E8F8FE" opacity="1.000000" stroke="none" 
	d="
M571.287231,436.946747 
	C569.463135,435.435486 568.377441,434.814789 565.999268,436.089386 
	C559.328064,439.664856 553.425293,436.160614 553.086426,428.681091 
	C552.854736,423.565613 553.042053,418.431122 553.042053,413.322662 
	C556.008057,412.124786 557.443237,412.623993 557.373108,415.824310 
	C557.285583,419.814392 557.266235,423.812317 557.416260,427.799377 
	C557.548035,431.300171 558.806274,434.235077 562.998291,433.814880 
	C566.603271,433.453461 569.231262,431.819427 569.058105,427.452240 
	C568.873962,422.809082 569.016724,418.153015 569.016724,411.598602 
	C571.110718,413.277283 573.149963,414.132812 573.185669,415.065216 
	C573.446777,421.874390 573.339111,428.699554 573.222168,435.517517 
	C573.213623,436.015015 572.217896,436.495544 571.287231,436.946747 
z"/>
<path fill="#D9F6FF" opacity="1.000000" stroke="none" 
	d="
M133.770111,419.686035 
	C133.846329,425.571320 133.846329,431.027435 133.846329,437.407562 
	C131.931519,436.511292 130.523941,435.852417 129.509537,435.377594 
	C126.651810,436.065125 123.998093,437.057983 121.284348,437.265411 
	C118.009895,437.515656 115.482910,436.035950 114.810547,432.445618 
	C114.156036,428.950592 115.773216,426.467834 118.832268,425.318298 
	C122.048523,424.109711 125.504608,423.539337 128.838104,422.694611 
	C129.625214,416.908783 126.817108,414.590240 121.541527,416.537231 
	C119.911758,417.138702 118.187096,417.483002 116.325066,417.223999 
	C118.784615,412.684418 122.683578,411.766083 126.911743,412.317078 
	C130.789886,412.822449 133.004425,415.405304 133.770111,419.686035 
M126.555069,426.289764 
	C125.254654,426.548492 123.704689,426.452393 122.712891,427.149902 
	C121.260483,428.171356 119.921913,429.626221 119.178261,431.200378 
	C118.982887,431.613953 121.437042,434.181366 122.193604,433.977264 
	C124.694298,433.302612 127.059898,431.936768 129.218307,430.458099 
	C129.452042,430.297974 127.997917,427.674103 126.555069,426.289764 
z"/>
<path fill="#DEF6FF" opacity="1.000000" stroke="none" 
	d="
M208.224182,427.540710 
	C207.149109,430.197296 206.371033,432.582031 205.209869,434.762787 
	C204.694092,435.731476 203.426376,436.838287 202.460983,436.875641 
	C201.520782,436.912018 200.040909,435.873657 199.640594,434.944275 
	C196.576614,427.830933 193.718582,420.628876 190.691376,413.196167 
	C196.998520,411.538971 196.278320,416.877014 197.733109,419.509583 
	C199.452484,422.620941 200.521988,426.091400 201.947556,429.588593 
	C207.453247,424.730865 205.450012,415.583496 212.375488,412.409058 
	C212.896179,412.687988 213.416870,412.966919 213.937576,413.245850 
	C212.080139,417.892517 210.222717,422.539215 208.224182,427.540710 
z"/>
<path fill="#F2FCFF" opacity="1.000000" stroke="none" 
	d="
M620.987915,437.018738 
	C617.383240,437.018982 614.263306,437.018982 610.696716,437.018982 
	C610.696716,426.067383 610.615051,415.604736 610.825317,405.147980 
	C610.845947,404.122803 612.660828,403.133759 613.642944,402.127930 
	C614.092896,402.414398 614.542847,402.700867 614.992798,402.987305 
	C614.992798,412.718658 614.992798,422.449982 614.992798,431.858917 
	C619.791687,435.221893 626.475708,430.129761 630.185120,435.125732 
	C630.063354,435.756653 629.941528,436.387604 629.819763,437.018524 
	C627.037415,437.018524 624.255066,437.018524 620.987915,437.018738 
z"/>
<path fill="#D9F6FF" opacity="1.000000" stroke="none" 
	d="
M174.200287,413.663940 
	C176.487991,415.498749 176.282700,416.688782 173.682648,416.865631 
	C172.614029,416.938324 171.390137,415.749725 170.414719,415.959961 
	C168.343567,416.406403 166.389008,417.393860 164.386658,418.159515 
	C165.670486,419.587982 166.828735,421.166565 168.286957,422.386597 
	C169.114502,423.078979 170.440582,423.164276 171.529846,423.557068 
	C174.768341,424.725067 177.162933,426.653320 176.651642,430.470734 
	C176.124741,434.404938 173.677597,436.898071 169.740463,437.081604 
	C167.028976,437.208008 164.235428,436.545288 161.564362,435.887024 
	C160.893234,435.721619 160.551804,434.218292 160.058853,433.329803 
	C161.042282,433.149719 162.058563,432.719543 163.002029,432.843567 
	C164.763840,433.075165 166.574295,434.164551 168.193634,433.889801 
	C169.666351,433.639954 171.708389,432.245544 172.010300,430.995880 
	C172.259079,429.966156 170.521683,428.175934 169.300018,427.161865 
	C168.351868,426.374817 166.833160,426.288574 165.582260,425.850311 
	C162.206985,424.667755 159.528992,422.837799 159.986023,418.729218 
	C160.449753,414.560364 163.379730,412.683899 167.128036,412.395447 
	C169.336365,412.225494 171.623108,413.074524 174.200287,413.663940 
z"/>
<path fill="#D9F6FF" opacity="1.000000" stroke="none" 
	d="
M698.087158,425.931824 
	C697.519226,421.772095 700.198303,417.035431 695.609558,415.632568 
	C696.850098,412.606750 697.878784,409.872559 699.106079,407.230591 
	C699.513367,406.353729 700.430786,405.713837 701.114990,404.965607 
	C701.682556,405.780334 702.593933,406.537415 702.742371,407.422455 
	C703.009094,409.012238 702.817688,410.678894 702.817688,412.563507 
	C705.226379,412.857452 707.289368,413.109222 709.352356,413.360992 
	C709.517517,413.895844 709.682678,414.430695 709.847839,414.965515 
	C707.818176,415.617554 705.788513,416.269592 702.925659,417.189270 
	C702.925659,421.589539 702.755188,426.487274 703.108887,431.346832 
	C703.162170,432.079041 705.666321,432.624969 707.029358,433.272614 
	C707.926392,433.698822 708.810181,434.152954 709.699890,434.594574 
	C709.114197,435.298218 708.669189,436.275055 707.919861,436.660980 
	C703.207825,439.087677 698.723389,436.639740 698.178040,431.373566 
	C698.007996,429.731110 698.109741,428.060486 698.087158,425.931824 
z"/>
<path fill="#D9F6FF" opacity="1.000000" stroke="none" 
	d="
M155.255707,427.008118 
	C156.718948,431.045105 155.641418,434.786713 152.326584,435.773285 
	C148.675919,436.859741 144.418137,435.998474 140.438171,435.761597 
	C139.975861,435.734100 139.598495,434.279358 139.181747,433.486328 
	C140.140793,433.233093 141.137619,432.677124 142.050797,432.791168 
	C143.820923,433.012177 145.626266,434.146088 147.262451,433.894928 
	C148.775925,433.662598 150.087387,432.114349 151.487823,431.145599 
	C150.536255,429.799896 149.821976,428.137451 148.566727,427.197144 
	C147.298981,426.247528 145.074112,426.433777 144.017532,425.375000 
	C142.090179,423.443634 139.289490,420.815063 139.500137,418.746979 
	C139.724136,416.547638 142.672470,413.867859 145.055847,412.823944 
	C148.634598,411.256470 152.398788,412.084259 154.773056,416.674408 
	C153.243713,416.457916 151.654678,415.873901 150.198898,416.110321 
	C147.963440,416.473358 145.819595,417.400513 143.636871,418.088257 
	C145.040268,419.612701 146.248825,421.407013 147.894806,422.595490 
	C150.112701,424.196838 152.667480,425.331573 155.255707,427.008118 
z"/>
<path fill="#E0F7FF" opacity="1.000000" stroke="none" 
	d="
M580.326904,416.502502 
	C579.459412,415.502472 578.955444,414.650208 578.451477,413.797943 
	C582.746948,413.334015 581.686157,409.631287 582.614014,407.075928 
	C582.961182,406.119904 583.919434,405.385742 585.724670,405.015869 
	C585.879456,407.415283 586.034302,409.814728 586.218323,412.666840 
	C587.622986,412.779755 589.088013,412.728851 590.456787,413.067352 
	C591.357727,413.290161 592.119873,414.074158 592.944214,414.606934 
	C592.128052,415.158508 591.379272,415.953461 590.479431,416.202484 
	C589.242737,416.544800 587.891663,416.473785 585.996948,416.628143 
	C585.996948,420.392334 585.958374,423.995026 586.008240,427.596466 
	C586.053955,430.896515 585.340881,434.929047 591.084167,433.205872 
	C591.526428,433.073181 592.860779,434.181580 592.793213,434.384888 
	C592.517761,435.213623 592.025391,436.208649 591.312439,436.614807 
	C586.813416,439.177612 582.017517,436.582092 581.612000,431.377563 
	C581.229980,426.474274 580.991882,421.559784 580.326904,416.502502 
z"/>
<path fill="#E4F9FF" opacity="1.000000" stroke="none" 
	d="
M492.967529,436.809021 
	C485.248993,437.819092 483.696808,436.476685 483.583832,429.081146 
	C483.545837,426.594788 483.879242,424.058289 483.487427,421.634491 
	C483.110413,419.302521 482.015228,417.086670 481.158600,414.595825 
	C482.719452,411.691803 484.655975,408.088928 486.592468,404.486053 
	C486.995728,404.653809 487.398987,404.821564 487.802216,404.989349 
	C487.943085,407.396149 488.083954,409.802948 488.251740,412.669189 
	C489.650543,412.784943 491.110016,412.736084 492.471008,413.078522 
	C493.364777,413.303406 494.116394,414.093384 494.931671,414.630310 
	C494.108215,415.170044 493.349182,415.944763 492.445679,416.192383 
	C491.210205,416.530975 489.864868,416.468719 488.081665,416.619202 
	C488.081665,421.403748 487.837952,426.025452 488.264832,430.584320 
	C488.363037,431.633209 490.708954,432.561768 492.125061,433.360229 
	C492.863861,433.776855 493.830261,433.789764 494.693848,433.984985 
	C494.236298,434.879486 493.778748,435.774017 492.967529,436.809021 
z"/>
<path fill="#DEF6FF" opacity="1.000000" stroke="none" 
	d="
M299.069855,436.049133 
	C292.907410,430.886078 291.729401,421.727203 296.211945,416.213593 
	C300.290405,411.197021 306.966736,410.820496 312.587646,416.457733 
	C311.204803,416.457733 309.739777,416.756134 308.454498,416.402039 
	C304.524750,415.319366 301.147034,415.493652 299.123047,419.631439 
	C296.939606,424.095184 297.987335,431.126984 301.552673,432.720459 
	C303.553345,433.614594 306.239471,433.086395 308.609467,432.999603 
	C309.958679,432.950226 311.293182,432.499298 313.547150,432.045380 
	C309.846832,437.537109 306.098267,438.404266 299.069855,436.049133 
z"/>
<path fill="#CBEDFD" opacity="1.000000" stroke="none" 
	d="
M689.950317,434.823608 
	C689.005127,435.810272 688.083191,436.851135 687.148376,436.862915 
	C686.524475,436.870789 685.351013,435.425568 685.332153,434.609558 
	C685.182617,428.148834 685.164062,421.680481 685.354187,415.221802 
	C685.380432,414.328674 686.771301,413.475739 687.530457,412.604187 
	C688.342896,413.584229 689.823975,414.541290 689.858643,415.548065 
	C690.074890,421.839264 689.967957,428.141541 689.950317,434.823608 
z"/>
<path fill="#DEF6FF" opacity="1.000000" stroke="none" 
	d="
M260.926178,422.990417 
	C260.925171,426.820251 260.773071,430.161255 260.965149,433.482391 
	C261.160828,436.865509 259.631378,437.597900 256.362427,436.658905 
	C256.362427,425.697723 256.362427,414.609161 256.362427,403.015137 
	C257.557465,402.937195 258.928741,402.847778 260.926178,402.717499 
	C260.926178,409.618805 260.926178,416.055847 260.926178,422.990417 
z"/>
<path fill="#ECFAFF" opacity="1.000000" stroke="none" 
	d="
M161.357361,300.434113 
	C164.624725,304.093445 164.445404,307.410950 160.791000,310.021942 
	C158.010620,312.008484 155.038330,311.598633 152.865967,308.799042 
	C150.551239,305.816010 150.845169,302.419647 153.838669,300.540680 
	C155.617752,299.424011 158.612457,300.244049 161.357361,300.434113 
z"/>
<path fill="#CBEDFD" opacity="1.000000" stroke="none" 
	d="
M638.982788,422.068268 
	C638.981384,426.216980 638.879822,429.883453 639.008728,433.541748 
	C639.122681,436.776642 637.906799,437.830139 634.341675,436.393463 
	C634.341675,429.426788 634.262878,422.295288 634.443420,415.170349 
	C634.465515,414.298950 635.878540,413.462769 636.646973,412.610291 
	C637.420593,413.436584 638.714050,414.179565 638.862549,415.106110 
	C639.200928,417.217072 638.977783,419.418060 638.982788,422.068268 
z"/>
<path fill="#E4F9FF" opacity="1.000000" stroke="none" 
	d="
M186.427307,417.514221 
	C186.425598,423.246124 186.490387,428.538086 186.395721,433.827179 
	C186.342819,436.783783 186.223587,436.781647 182.271088,436.589142 
	C182.271088,428.886719 182.271088,421.167511 182.271088,413.312012 
	C186.473343,411.466278 186.520615,414.189545 186.427307,417.514221 
z"/>
<path fill="#F2FCFF" opacity="1.000000" stroke="none" 
	d="
M470.906616,421.053650 
	C470.909668,418.897980 470.684448,417.187073 470.998474,415.581604 
	C471.197388,414.564667 472.199738,413.704834 472.841766,412.774536 
	C473.589935,413.766266 474.957703,414.740570 474.986237,415.752563 
	C475.178314,422.565948 475.086273,429.387329 475.086273,436.267517 
	C472.377258,437.565002 470.845398,437.363525 470.895905,434.040039 
	C470.959198,429.875305 470.908234,425.708801 470.906616,421.053650 
z"/>
<path fill="#D9F6FF" opacity="1.000000" stroke="none" 
	d="
M185.326324,402.277313 
	C185.909592,403.965973 186.359955,405.520111 186.276581,407.045105 
	C186.258377,407.378021 184.079102,408.119385 183.350082,407.757080 
	C182.380783,407.275421 181.857498,405.896271 181.142593,404.902710 
	C182.428986,403.979248 183.715363,403.055786 185.326324,402.277313 
z"/>
<path fill="#D9F6FF" opacity="1.000000" stroke="none" 
	d="
M637.688843,402.207397 
	C638.339050,403.872467 638.862427,405.412628 638.803650,406.930267 
	C638.789001,407.310486 636.661377,408.154388 635.936951,407.827545 
	C634.971436,407.391937 633.629944,405.447845 633.843323,405.150024 
	C634.724915,403.919678 636.132385,403.066132 637.688843,402.207397 
z"/>
<path fill="#DEF6FF" opacity="1.000000" stroke="none" 
	d="
M685.427002,407.005188 
	C685.656616,405.247711 685.986755,403.654602 686.760376,402.318268 
	C686.893005,402.089203 689.214233,402.658142 689.970825,403.413147 
	C690.540161,403.981232 690.539978,406.246338 690.247803,406.360565 
	C688.825012,406.916809 687.218689,407.003418 685.427002,407.005188 
z"/>
<path fill="#D2F1FE" opacity="1.000000" stroke="none" 
	d="
M470.122620,404.266418 
	C471.721252,403.460907 473.210541,402.821411 474.720734,402.767578 
	C475.104584,402.753906 476.103973,404.794708 475.839752,405.546997 
	C475.485291,406.556091 473.649963,408.077789 473.368805,407.902924 
	C472.077850,407.099945 471.106842,405.782593 470.122620,404.266418 
z"/>
<path fill="#0981F9" opacity="1.000000" stroke="none" 
	d="
M132.970566,347.402893 
	C132.883896,356.480774 129.581619,360.286774 121.103615,361.306915 
	C118.641312,361.603180 116.137871,361.603912 113.651733,361.644318 
	C110.355728,361.697937 107.058197,361.657562 103.385864,361.657562 
	C103.385864,353.579926 103.385864,345.913025 103.385864,338.137909 
	C110.152298,338.137909 116.777565,337.695312 123.310120,338.283051 
	C128.215424,338.724396 131.873764,341.714569 132.970566,347.402893 
z"/>
<path fill="#0981F9" opacity="1.000000" stroke="none" 
	d="
M129.200439,313.032593 
	C132.762558,323.519592 128.438385,330.237213 117.851311,330.901978 
	C113.085014,331.201233 108.284309,330.952667 103.257355,330.952667 
	C103.257355,323.059265 103.257355,315.628448 103.257355,307.412750 
	C112.090813,308.581970 121.627808,304.510773 129.200439,313.032593 
z"/>
<path fill="#0981F9" opacity="1.000000" stroke="none" 
	d="
M295.723389,311.205292 
	C300.392975,315.838379 300.896484,321.090393 299.087219,326.649933 
	C297.293518,332.161774 292.891968,334.872223 287.489716,335.472046 
	C282.928162,335.978546 278.265747,335.576385 273.195679,335.576385 
	C273.195679,326.412384 273.195679,317.270142 273.195679,307.685791 
	C280.920013,307.785004 288.598358,306.104645 295.723389,311.205292 
z"/>
<path fill="#0D81F4" opacity="1.000000" stroke="none" 
	d="
M331.774048,348.528320 
	C335.875610,347.920868 339.583588,347.439697 343.184753,346.972412 
	C346.358795,359.099579 339.839478,362.284515 331.492004,363.685150 
	C326.647064,364.498016 322.971069,362.086121 322.276428,358.191895 
	C321.450134,353.559692 324.119202,351.106110 328.050079,349.615601 
	C329.126862,349.207306 330.268555,348.970215 331.774048,348.528320 
z"/>
<path fill="#1382F0" opacity="1.000000" stroke="none" 
	d="
M97.918083,406.224121 
	C99.984138,406.457947 102.155350,406.122772 103.150223,407.049866 
	C105.030426,408.802032 107.440598,411.312378 107.383026,413.447083 
	C107.324471,415.618408 104.978561,418.518982 102.862572,419.628479 
	C100.602821,420.813385 97.440674,420.277252 94.044800,420.541168 
	C94.044800,416.153015 93.830078,412.346161 94.202042,408.597504 
	C94.290443,407.706604 96.343048,407.010620 97.918083,406.224121 
z"/>
<path fill="#1382F0" opacity="1.000000" stroke="none" 
	d="
M226.951111,422.138916 
	C224.745667,422.139008 222.985260,422.139008 221.036789,422.139008 
	C221.263443,417.332764 223.804367,415.646393 227.521896,415.657166 
	C231.192535,415.667816 233.344376,417.579956 233.256104,422.138855 
	C231.253799,422.138855 229.324966,422.138855 226.951111,422.138916 
z"/>
<path fill="#0D81F4" opacity="1.000000" stroke="none" 
	d="
M324.814423,433.373047 
	C320.589508,429.886566 319.337036,423.008087 321.854706,418.930267 
	C323.993988,415.465302 329.222198,414.691376 332.228973,417.394562 
	C334.929779,419.822693 335.740692,425.876984 333.857147,429.961212 
	C332.082214,433.809967 328.963013,434.513977 324.814423,433.373047 
z"/>
<path fill="#0D81F4" opacity="1.000000" stroke="none" 
	d="
M532.287476,417.018616 
	C536.344055,415.124664 539.739014,415.166779 542.130554,418.976471 
	C544.393921,422.582031 543.578491,430.140961 540.829285,432.444702 
	C537.327759,435.378815 531.750122,434.097656 530.123291,429.737030 
	C528.485474,425.346771 528.499939,420.989532 532.287476,417.018616 
z"/>
<path fill="#1382F0" opacity="1.000000" stroke="none" 
	d="
M388.562836,418.401367 
	C394.333130,413.739655 398.726837,415.039185 399.886871,421.741577 
	C395.955536,421.741577 392.079834,421.741577 387.761353,421.741577 
	C387.951416,420.753296 388.146729,419.737701 388.562836,418.401367 
z"/>
<path fill="#1382F0" opacity="1.000000" stroke="none" 
	d="
M126.940903,426.241425 
	C127.997917,427.674103 129.452042,430.297974 129.218307,430.458099 
	C127.059898,431.936768 124.694298,433.302612 122.193604,433.977264 
	C121.437042,434.181366 118.982887,431.613953 119.178261,431.200378 
	C119.921913,429.626221 121.260483,428.171356 122.712891,427.149902 
	C123.704689,426.452393 125.254654,426.548492 126.940903,426.241425 
z"/>
</svg>