<svg version="1.1" id="Layer_1" xmlns="http://www.w3.org/2000/svg" xmlns:xlink="http://www.w3.org/1999/xlink" x="0px" y="0px"
	 width="100%" viewBox="0 0 800 800" enable-background="new 0 0 800 800" xml:space="preserve">
<path fill="#FFFFFF" opacity="1.000000" stroke="none" 
	d="
M447.000000,801.000000 
	C298.023193,801.000000 149.546356,801.000000 1.034772,801.000000 
	C1.034772,534.398132 1.034772,267.796295 1.034772,1.097214 
	C267.560181,1.097214 534.120422,1.097214 800.840332,1.097214 
	C800.840332,267.666595 800.840332,534.333313 800.840332,801.000000 
	C683.129517,801.000000 565.314758,801.000000 447.000000,801.000000 
M371.318634,413.160461 
	C371.318634,413.160461 371.275696,413.641083 371.061920,413.093353 
	C369.432190,413.084137 367.802460,413.074921 365.421173,413.203583 
	C364.240906,414.057343 363.060638,414.911102 362.782776,415.112091 
	C359.516510,413.989136 357.052032,412.552551 354.521179,412.424164 
	C351.507111,412.271179 348.436066,413.240692 344.756836,413.824249 
	C344.756836,420.573212 344.738403,428.161133 344.812805,435.748138 
	C344.816437,436.116577 345.635193,436.477020 346.684692,436.983246 
	C347.096741,436.935547 347.508820,436.887878 348.754395,436.597107 
	C348.857330,431.493134 349.038452,426.389130 349.036591,421.285187 
	C349.035278,417.687012 351.129852,416.197449 354.258484,416.021362 
	C357.691376,415.828217 358.787201,418.222778 358.894348,421.164490 
	C359.002472,424.131897 358.788544,427.115234 358.983490,430.073944 
	C359.132996,432.343292 359.698761,434.585236 360.689240,436.982269 
	C361.101288,436.935181 361.513306,436.888092 362.687164,436.799072 
	C362.897644,432.202026 363.165497,427.606628 363.299469,423.007355 
	C363.398224,419.617401 364.035858,416.674805 368.699554,415.942535 
	C372.339783,416.310699 373.163391,418.722046 373.126740,421.882111 
	C373.069763,426.792572 373.111664,431.704224 373.111664,437.736786 
	C375.250427,436.756561 377.615051,436.119751 377.586700,435.618317 
	C377.204071,428.853912 376.488434,422.108337 375.578400,414.754242 
	C374.671204,414.185913 373.763977,413.617554 372.647308,412.786713 
	C372.344421,412.832123 372.041565,412.877563 371.318634,413.160461 
M473.327728,412.784912 
	C472.897461,412.846436 472.467194,412.907959 471.209961,413.302338 
	C471.099365,420.391632 470.951782,427.480835 470.932281,434.570374 
	C470.930176,435.327148 471.676514,436.085968 472.686371,436.986328 
	C473.098938,436.938721 473.511536,436.891113 474.772339,436.611420 
	C474.889984,430.181946 475.081879,423.752289 475.068573,417.323090 
	C475.065552,415.871338 474.348206,414.421051 473.327728,412.784912 
M129.819794,302.542084 
	C118.176399,298.220703 106.150787,300.910980 94.000061,300.087616 
	C94.000061,323.302734 94.000061,346.000031 94.000061,368.872620 
	C103.779663,368.872620 113.273582,369.298370 122.709366,368.740601 
	C130.537125,368.277924 137.612274,364.979889 140.554062,357.193329 
	C142.035736,353.271545 142.063126,348.334900 141.277634,344.131989 
	C140.125198,337.965759 134.457748,335.728241 129.021027,333.665405 
	C143.361908,323.272400 143.899429,310.059082 129.819794,302.542084 
M263.495087,301.078644 
	C263.455383,323.392426 263.413574,345.706207 263.402832,368.019989 
	C263.402710,368.265594 263.807587,368.511353 264.003967,368.734894 
	C266.793579,368.734894 269.556091,368.734894 272.800934,368.734894 
	C272.800934,364.311676 272.800934,360.181519 272.800934,356.051331 
	C272.800934,351.933105 272.800934,347.814880 272.800934,342.978516 
	C278.800415,342.978516 284.150665,343.404663 289.409424,342.892059 
	C301.290344,341.733978 309.001648,333.535126 309.298920,322.376007 
	C309.625488,310.115753 303.296295,302.262085 290.517303,300.857117 
	C281.806091,299.899384 272.922363,300.510712 263.495087,301.078644 
M327.803894,327.785950 
	C337.891235,324.766968 343.176056,327.832550 343.848541,336.826416 
	C344.123962,340.509491 342.719086,341.401001 339.205627,342.029938 
	C332.590607,343.213989 325.888275,344.730194 319.713959,347.292938 
	C314.920074,349.282715 313.128998,354.124481 314.018158,359.473572 
	C314.790771,364.121521 317.330353,367.657654 321.890747,368.833282 
	C325.006683,369.636536 328.606232,370.022308 331.658905,369.263885 
	C336.026123,368.178802 340.091248,365.877930 344.700867,363.919739 
	C344.834167,368.670410 347.527039,370.079620 352.143463,368.513947 
	C352.143463,357.311432 352.484680,346.335785 352.039185,335.392151 
	C351.659332,326.061768 346.098419,320.442749 337.195404,319.526428 
	C330.282166,318.814850 323.975372,320.810547 318.647980,325.231415 
	C317.706482,326.012695 317.182404,328.813721 317.812805,329.594849 
	C318.631287,330.609070 320.907715,331.077911 322.356812,330.786865 
	C324.039398,330.448944 325.505463,329.033356 327.803894,327.785950 
M227.886520,345.637146 
	C231.792847,347.019989 235.743484,348.291351 239.591309,349.821320 
	C242.608276,351.020935 245.198471,353.390289 243.845230,356.646820 
	C242.793289,359.178253 240.117752,362.465240 237.839508,362.741455 
	C233.832779,363.227234 229.104919,362.582672 225.543869,360.740082 
	C220.809479,358.290405 219.422928,360.145691 217.999100,363.796082 
	C223.900620,369.194641 231.492004,371.029938 239.569397,369.180664 
	C247.182037,367.437775 251.697372,362.662537 252.272385,355.746490 
	C252.833191,349.000916 249.833710,345.075928 241.706757,342.079834 
	C238.591995,340.931488 235.094116,340.447174 232.378006,338.710602 
	C230.177216,337.303497 227.382309,334.310669 227.599274,332.320923 
	C227.831680,330.189697 231.074875,327.141663 233.371841,326.770538 
	C236.878998,326.203918 240.941483,326.981842 244.328796,328.309784 
	C248.329681,329.878204 250.172195,329.151703 251.055450,324.880554 
	C244.377640,319.441437 237.029037,318.205170 229.032974,320.757416 
	C223.325882,322.579071 219.686508,326.431091 219.020660,332.537781 
	C218.326218,338.906738 221.556198,342.926239 227.886520,345.637146 
M387.302429,366.093445 
	C393.751862,370.175476 400.702545,370.776245 407.912506,368.824066 
	C414.382965,367.072113 418.761566,361.490265 419.012238,355.042786 
	C419.247894,348.982880 416.565002,345.378448 409.577484,342.598389 
	C405.727997,341.066803 401.609161,340.067139 398.019226,338.088501 
	C396.192780,337.081726 394.002747,334.249847 394.253326,332.585846 
	C394.569550,330.486237 397.018341,327.380707 398.885864,327.118103 
	C402.772186,326.571747 407.135620,326.891510 410.828705,328.196930 
	C414.648743,329.547272 416.759308,329.574524 417.716675,325.332520 
	C411.519287,319.252502 400.907440,317.674927 393.282318,321.722229 
	C388.301300,324.365997 385.538574,328.472870 385.631744,334.178345 
	C385.724792,339.876801 389.035950,343.385132 394.067780,345.378845 
	C397.923004,346.906342 401.938263,348.034241 405.775818,349.600830 
	C408.825653,350.845795 411.517944,352.774658 410.808716,356.659180 
	C410.151001,360.261566 407.853973,362.505493 404.144592,363.154907 
	C399.325195,363.998688 394.998383,363.001923 390.837006,360.335571 
	C389.818726,359.683136 387.391846,360.107635 386.305084,360.940521 
	C384.578156,362.264038 384.056793,364.290161 387.302429,366.093445 
M365.314575,366.123779 
	C366.820251,372.128967 371.001770,367.816132 374.007324,368.943512 
	C374.007324,345.119019 374.007324,321.881927 374.007324,298.524719 
	C371.098846,298.524719 368.411926,298.524719 365.310547,298.524719 
	C365.310547,321.021362 365.310547,343.106598 365.314575,366.123779 
M439.773468,418.427338 
	C440.584991,416.218811 441.396484,414.010254 442.664825,410.558441 
	C443.785522,413.549347 444.458801,415.201996 445.027374,416.889893 
	C446.989105,422.713348 448.821014,428.583313 450.935547,434.350067 
	C451.337006,435.444855 452.700439,436.637177 453.812225,436.871185 
	C454.623230,437.041901 456.355225,435.909027 456.643799,435.021454 
	C460.075562,424.466187 463.313263,413.847870 466.629578,403.156860 
	C463.335663,402.019714 461.476044,402.503265 460.800171,405.892303 
	C460.282928,408.486176 459.294861,410.986969 458.503021,413.525085 
	C457.071106,418.114868 455.629395,422.701569 454.191772,427.289551 
	C450.879700,420.546814 448.716888,413.924286 446.256287,407.414337 
	C445.584137,405.635956 444.017426,404.195709 442.861237,402.600281 
	C441.633728,404.145630 439.926849,405.510345 439.264130,407.268585 
	C436.774597,413.873932 434.625610,420.607666 432.349060,427.293304 
	C429.027557,420.199219 426.828827,413.164734 424.853882,406.067932 
	C423.934021,402.762360 422.233063,401.786224 418.635651,403.324463 
	C421.972168,413.996429 425.231750,424.597992 428.684204,435.136322 
	C428.964569,435.992249 430.610413,436.966156 431.538208,436.888397 
	C432.498444,436.807922 433.825073,435.684998 434.181580,434.719116 
	C436.078308,429.580719 437.720734,424.348419 439.773468,418.427338 
M184.896927,324.500000 
	C184.896927,315.890381 184.896927,307.280762 184.896927,298.411896 
	C181.734238,298.411896 179.173935,298.411896 176.387512,298.411896 
	C176.387512,322.054932 176.387512,345.402985 176.387512,368.701599 
	C179.342270,368.701599 181.922195,368.701599 184.896851,368.701599 
	C184.896851,354.075409 184.896851,339.787689 184.896927,324.500000 
M201.614197,369.015381 
	C203.380905,369.015381 205.147614,369.015381 206.941391,369.015381 
	C206.941391,345.119293 206.941391,321.892639 206.941391,298.456299 
	C204.212128,298.456299 201.817520,298.456299 199.431763,298.456299 
	C199.220459,299.201843 198.974075,299.666595 198.973404,300.131653 
	C198.942337,322.113770 198.910095,344.095978 198.994873,366.077759 
	C198.998627,367.051758 200.091492,368.021606 201.614197,369.015381 
M675.680237,413.693237 
	C670.940552,410.758820 666.844238,412.317383 663.863525,415.037354 
	C660.675171,413.950134 658.186401,412.512024 655.631714,412.383545 
	C652.620544,412.232086 649.552307,413.214539 646.048157,413.779633 
	C646.048157,420.835785 646.048157,428.722565 646.048157,436.777527 
	C647.452148,436.777527 648.706604,436.777527 650.251099,436.777527 
	C650.251099,431.871704 650.359131,427.220398 650.216797,422.576782 
	C650.103638,418.884521 651.260803,416.186737 655.271912,416.038116 
	C659.845581,415.868622 659.970520,419.315948 659.978394,422.629547 
	C659.989380,427.258301 659.981140,431.887146 659.981140,436.455353 
	C663.335083,437.698700 664.717407,436.922119 664.597046,433.591461 
	C664.458923,429.769806 664.519653,425.937622 664.603577,422.112396 
	C664.675964,418.815735 665.692566,416.035309 669.624939,416.013489 
	C673.798706,415.990326 674.260742,419.075836 674.295471,422.254791 
	C674.347900,427.044800 674.309143,431.835815 674.309143,437.847717 
	C676.444580,436.736359 678.738770,436.030762 678.700806,435.488220 
	C678.202576,428.360016 681.160339,420.796295 675.680237,413.693237 
M160.176376,320.284119 
	C157.927979,320.284119 155.679581,320.284119 153.440460,320.284119 
	C153.440460,336.924957 153.440460,352.806793 153.440460,368.742432 
	C156.365158,368.742432 158.944733,368.742432 161.849625,368.742432 
	C161.849625,352.853851 161.855606,337.263672 161.815796,321.673645 
	C161.814774,321.275909 161.310577,320.879517 160.176376,320.284119 
M99.969803,424.236450 
	C100.962509,424.152985 101.971512,424.155792 102.945251,423.971893 
	C109.008301,422.826843 112.596695,418.699432 112.506897,413.035919 
	C112.415604,407.279022 108.801430,403.358276 102.434608,402.797394 
	C98.199585,402.424286 93.905045,402.726593 89.502777,402.726593 
	C89.502777,414.333984 89.502777,425.531372 89.502777,436.788574 
	C91.105087,436.788574 92.363838,436.788574 94.176979,436.788574 
	C94.176979,432.653107 94.176979,428.745239 94.176979,424.553955 
	C96.171211,424.427948 97.630379,424.335754 99.969803,424.236450 
M519.834656,435.054443 
	C519.843018,431.556763 519.861633,428.059113 519.857910,424.561432 
	C519.845642,412.996429 515.798096,410.119781 505.046417,413.996826 
	C504.828613,414.075378 504.474854,413.776855 503.856750,413.515869 
	C503.856750,410.830475 504.124817,407.975372 503.741547,405.210571 
	C503.555237,403.866699 502.150909,402.691650 501.297974,401.440155 
	C500.571869,402.651764 499.238617,403.852234 499.216125,405.076752 
	C499.041779,414.567474 499.188995,424.063568 499.087006,433.556396 
	C499.046448,437.330872 500.637329,437.729950 503.860077,436.322632 
	C503.860077,432.221527 503.855621,428.241486 503.861206,424.261444 
	C503.869324,418.481506 505.652985,415.945953 509.946838,416.028442 
	C515.806152,416.141083 515.045410,420.582458 515.101624,424.360168 
	C515.162842,428.475952 515.115540,432.593353 515.115540,437.583099 
	C517.205078,436.839752 518.458862,436.393707 519.834656,435.054443 
M276.410522,412.910980 
	C273.850525,413.038544 271.290527,413.166138 268.077942,413.326202 
	C268.077942,420.287018 267.965881,427.710815 268.233582,435.120850 
	C268.263733,435.955750 270.438812,436.713196 272.761200,438.274048 
	C272.761200,431.781372 272.899719,426.992126 272.720795,422.214783 
	C272.554504,417.774750 275.126770,416.351471 278.875671,416.154022 
	C282.976349,415.937988 283.832886,418.677795 283.842499,422.015533 
	C283.856598,426.924683 283.846130,431.833862 283.846130,436.534546 
	C287.442291,437.649597 288.944031,436.943848 288.794159,433.571533 
	C288.609955,429.425781 288.919678,425.252960 288.636017,421.117889 
	C288.146393,413.981781 284.433502,411.357635 276.410522,412.910980 
M387.704773,414.025665 
	C381.120819,417.707489 381.544312,429.503113 385.917633,434.060822 
	C390.443909,438.777954 398.809357,438.523407 403.398499,432.658295 
	C401.574982,432.399109 399.823120,432.611877 398.177704,433.150055 
	C391.630920,435.291290 387.343842,432.057098 387.934326,424.743195 
	C393.286438,424.743195 398.687683,424.743195 403.947235,424.743195 
	C405.932739,415.224304 395.966675,408.967560 387.704773,414.025665 
M317.864319,432.385590 
	C322.716919,437.774689 329.659332,439.037781 334.597809,435.430176 
	C339.330261,431.972961 340.890533,423.393524 337.803833,417.801025 
	C335.100342,412.902832 328.728058,410.830353 323.084473,413.013794 
	C316.576874,415.531525 314.406494,422.768707 317.864319,432.385590 
M226.012848,437.285797 
	C230.133804,437.349884 234.239197,437.372223 236.710312,432.689362 
	C234.978973,432.345398 233.362076,432.544373 231.860321,433.071442 
	C225.311462,435.370026 221.105637,432.471161 221.086563,425.017059 
	C224.686310,425.017059 228.295059,425.020630 231.903793,425.016235 
	C238.334976,425.008392 239.639725,422.888153 236.203400,417.273468 
	C235.084732,415.445618 233.044830,413.777039 231.048340,412.966736 
	C225.022949,410.521240 218.817947,413.685059 216.700241,419.870819 
	C214.036057,427.652802 217.552994,434.775208 226.012848,437.285797 
M537.241821,437.397827 
	C544.355896,436.171509 547.640930,432.671936 548.037842,425.896698 
	C548.433594,419.140656 545.399231,414.253815 539.827515,412.673920 
	C532.898376,410.709137 526.326843,414.567535 524.992859,421.383972 
	C523.207520,430.506470 527.395630,436.368866 537.241821,437.397827 
M132.237686,415.458038 
	C128.624786,411.068329 124.106308,411.492279 119.596573,413.440155 
	C118.229591,414.030609 117.387856,415.837097 116.305542,417.086609 
	C117.876724,417.013031 119.603149,417.337738 120.991997,416.796387 
	C126.733932,414.558167 129.535004,416.535919 128.856491,422.699341 
	C126.010536,423.379089 123.103859,423.971283 120.257881,424.777679 
	C116.240761,425.915924 113.785439,428.385834 114.887871,432.824066 
	C115.950226,437.101013 119.371452,437.755554 123.125122,437.292511 
	C126.495552,436.876770 129.841965,436.266388 134.439911,435.547974 
	C133.920776,429.792175 133.303879,422.952454 132.237686,415.458038 
M207.009033,430.683563 
	C209.359726,424.882568 211.710403,419.081604 214.158630,413.039856 
	C207.795700,411.495178 208.684891,416.936859 207.177216,419.547699 
	C205.450974,422.537018 204.461899,425.952087 202.957077,429.664337 
	C197.691925,424.134521 199.229691,415.286163 191.384247,412.891785 
	C193.742294,420.763397 196.681015,428.282471 200.018707,435.620026 
	C200.291916,436.220703 203.541656,436.081177 204.926453,435.360107 
	C205.956863,434.823608 206.207581,432.789673 207.009033,430.683563 
M169.986572,433.741577 
	C167.748657,433.456726 165.517059,433.073090 163.270126,432.929321 
	C162.171326,432.859039 161.043976,433.235077 159.929550,433.409088 
	C160.609299,434.350677 161.219894,436.035828 161.980667,436.106598 
	C165.484879,436.432526 169.305099,437.117523 172.461243,436.048187 
	C174.417435,435.385406 176.308716,431.887054 176.495682,429.524353 
	C176.633026,427.789032 174.221298,425.507050 172.454956,424.072937 
	C170.989166,422.882874 168.672165,422.800964 166.990784,421.795715 
	C165.872330,421.127106 165.208740,419.697662 164.341537,418.608765 
	C165.578690,417.673920 166.709366,416.228882 168.081848,415.942444 
	C169.564377,415.633087 171.263214,416.542480 172.886322,416.657501 
	C173.884674,416.728210 174.917892,416.306793 176.802261,415.935577 
	C173.079681,412.181366 169.652115,411.656219 165.912155,412.519714 
	C162.527054,413.301270 160.262192,415.285400 159.949646,418.944427 
	C159.642410,422.541290 161.779022,424.433685 164.825272,425.593536 
	C166.221329,426.125092 167.667114,426.526215 169.062729,427.058807 
	C172.503586,428.371918 173.595047,430.339081 169.986572,433.741577 
M140.804703,423.534576 
	C143.331985,424.704559 145.997818,425.655212 148.332565,427.130005 
	C149.649429,427.961853 150.421066,429.656830 151.438339,430.963013 
	C149.928696,431.990082 148.531464,433.520447 146.875046,433.890411 
	C145.463470,434.205750 143.774384,433.039215 142.167969,432.813385 
	C141.236633,432.682465 140.226120,433.114563 139.251251,433.293274 
	C139.705170,434.205444 139.922165,435.577209 140.652298,435.953552 
	C144.739822,438.060730 149.041962,438.329865 152.919724,435.648438 
	C157.676300,432.359406 156.793839,426.110657 151.429474,423.779877 
	C150.520737,423.385040 149.380112,423.352142 148.639862,422.775513 
	C146.875900,421.401520 143.649246,419.338257 143.921478,418.377350 
	C144.913193,414.877075 148.139832,415.604156 150.986801,416.262299 
	C152.211853,416.545471 153.488220,416.606567 155.377045,416.850800 
	C152.625916,412.244263 147.785858,411.040527 143.404724,413.099426 
	C139.403564,414.979736 138.369644,418.252686 140.804703,423.534576 
M698.160095,412.295410 
	C696.854126,413.048035 695.548218,413.800659 694.242249,414.553314 
	C694.777710,414.622101 695.313171,414.690918 695.848694,414.759735 
	C696.588013,417.385376 697.621094,419.971008 697.985657,422.647675 
	C698.364197,425.426697 697.940002,428.305145 698.143799,431.120056 
	C698.535522,436.531433 702.769409,439.052917 707.656189,436.787231 
	C708.510681,436.391083 709.010681,435.230438 709.674316,434.422821 
	C708.738770,434.038971 707.773804,433.713074 706.874512,433.257629 
	C705.523376,432.573334 703.137817,431.882965 703.072388,431.047821 
	C702.702454,426.326111 702.893555,421.560425 702.893555,417.538239 
	C705.748535,416.397827 707.721680,415.609680 709.694824,414.821564 
	C707.533203,413.862579 705.371521,412.903564 703.034668,411.866852 
	C702.889404,409.723297 702.726440,407.318298 702.549255,404.704102 
	C697.269775,405.201813 699.695129,409.371918 698.160095,412.295410 
M304.567383,433.870239 
	C299.118408,432.097198 296.826569,427.265747 298.589417,421.268066 
	C300.076263,416.209564 302.745605,415.153778 309.179596,416.811462 
	C310.268463,417.092010 311.557495,416.595551 313.448578,416.378296 
	C307.919556,410.989899 301.216949,410.934296 296.814362,415.469666 
	C292.216492,420.206268 292.349762,430.190826 297.070557,434.661499 
	C301.417358,438.777893 308.520538,438.274292 312.718506,432.152863 
	C310.255524,432.729706 307.792572,433.306580 304.567383,433.870239 
M579.733459,416.419373 
	C580.308899,417.808075 581.280090,419.168640 581.381226,420.591095 
	C581.628906,424.070892 581.307495,427.589508 581.521118,431.073761 
	C581.839355,436.263763 585.170166,438.592926 590.062012,437.016235 
	C591.194641,436.651215 591.998901,435.267548 592.954285,434.352661 
	C591.849243,434.057861 590.619385,433.975311 589.669312,433.416901 
	C588.350098,432.641479 586.296875,431.589142 586.205627,430.515411 
	C585.819031,425.962280 586.041565,421.357422 586.041565,417.404755 
	C589.022705,416.380066 591.160583,415.645233 593.298523,414.910370 
	C593.126526,414.387207 592.954529,413.864044 592.782532,413.340881 
	C590.565002,413.085907 588.347473,412.830933 586.000854,412.561157 
	C586.000854,410.822144 586.157898,409.469666 585.953979,408.174011 
	C585.773010,407.023956 585.191345,405.936951 584.786621,404.822113 
	C583.964905,405.816376 582.742126,406.691711 582.404724,407.829620 
	C581.695007,410.222748 582.513123,413.447357 578.534058,413.609985 
	C578.682922,414.502380 578.831848,415.394806 579.733459,416.419373 
M488.241455,412.153290 
	C488.100494,409.734314 487.959564,407.315338 487.818604,404.896362 
	C487.228638,404.730408 486.638702,404.564423 486.048737,404.398438 
	C485.395874,406.174957 484.947266,408.065399 484.036804,409.698334 
	C482.973267,411.605896 481.506683,413.288696 481.007141,413.977173 
	C481.959778,417.485199 482.987335,420.210999 483.382965,423.025665 
	C483.772797,425.799377 483.326324,428.681915 483.596008,431.483093 
	C484.081909,436.530273 488.410522,438.967224 492.933441,436.776428 
	C493.786194,436.363373 494.264832,435.177917 494.916138,434.348907 
	C493.969086,434.012054 492.971802,433.772491 492.086578,433.315765 
	C490.723358,432.612366 488.368622,431.846527 488.296631,430.956512 
	C487.915924,426.250488 488.117950,421.497284 488.117950,417.413544 
	C491.068268,416.366608 493.162415,415.623444 495.256561,414.880310 
	C495.078583,414.350403 494.900604,413.820465 494.722626,413.290558 
	C492.764618,413.122070 490.806580,412.953583 488.241455,412.153290 
M562.421997,433.791138 
	C558.739929,433.622498 557.661133,431.161469 557.572205,428.046692 
	C557.458252,424.050537 557.437683,420.046692 557.544983,416.050720 
	C557.632751,412.780609 556.348267,411.844269 553.088440,413.139679 
	C553.088440,418.798615 552.819641,424.448669 553.170410,430.059967 
	C553.470764,434.865692 556.917603,437.761444 561.553345,437.433380 
	C565.370972,437.163177 569.153687,436.399689 573.512390,435.774414 
	C573.512390,429.551453 573.473938,422.574646 573.529175,415.598602 
	C573.555359,412.295135 571.897949,412.094116 568.977051,413.148010 
	C568.977051,417.421692 568.734497,421.738220 569.044067,426.014801 
	C569.364807,430.446777 567.735535,433.017578 562.421997,433.791138 
M615.187988,407.606750 
	C615.172729,406.609009 615.457153,405.463135 615.057861,404.655182 
	C614.659790,403.849701 613.531433,402.853516 612.805603,402.914856 
	C612.061829,402.977692 610.827820,404.213806 610.818787,404.948792 
	C610.689026,415.519684 610.730042,426.092682 610.730042,436.783325 
	C617.500000,436.783325 623.586975,436.783325 629.936218,436.783325 
	C629.936218,435.740631 630.035217,434.279907 629.921936,434.263275 
	C625.185059,433.566864 620.429199,432.999695 615.188293,432.356598 
	C615.188293,424.484497 615.188293,416.538147 615.187988,407.606750 
M260.928284,430.377594 
	C260.928284,421.276062 260.928284,412.174530 260.928284,402.631531 
	C258.974915,402.720337 257.595367,402.783081 256.257690,402.843903 
	C256.257690,414.409454 256.257690,425.504272 256.257690,437.004456 
	C257.915985,436.893524 259.276337,436.802521 260.928345,436.692017 
	C260.928345,434.624023 260.928345,432.980835 260.928284,430.377594 
M689.057068,436.897278 
	C689.553162,428.947296 690.049255,420.997345 690.528931,413.309265 
	C686.776245,411.923767 685.119324,412.309204 685.192505,415.847504 
	C685.316162,421.828033 685.074341,427.820404 685.363098,433.789551 
	C685.417786,434.919952 687.224365,435.965637 689.057068,436.897278 
M151.505524,306.067383 
	C152.575989,309.764954 155.082184,312.107910 158.778702,310.786926 
	C160.804214,310.063141 163.270721,307.321960 163.371857,305.377747 
	C163.473267,303.428589 161.314331,300.557220 159.374359,299.480591 
	C155.772171,297.481445 152.764786,299.976013 151.505524,306.067383 
M638.969543,428.438507 
	C638.968018,424.110474 639.112244,419.773834 638.858826,415.460602 
	C638.798157,414.428223 637.413269,413.473694 636.637451,412.483337 
	C635.848511,413.462646 634.411194,414.419556 634.376587,415.424866 
	C634.164429,421.576691 634.329773,427.740265 634.247986,433.898315 
	C634.198853,437.600800 636.106018,437.413788 638.969543,436.493896 
	C638.969543,434.027222 638.969543,431.719727 638.969543,428.438507 
M186.541016,424.518494 
	C186.538376,421.522522 186.736847,418.505402 186.424622,415.542053 
	C186.314514,414.496948 184.955414,413.583435 184.166595,412.609863 
	C183.444977,413.475098 182.118500,414.325836 182.097366,415.207825 
	C181.926819,422.326447 182.001755,429.450958 182.001755,436.532379 
	C185.448166,437.666321 186.760193,436.726379 186.570053,433.482758 
	C186.414490,430.828827 186.539795,428.158478 186.541016,424.518494 
M184.333298,408.052094 
	C185.258362,406.782043 186.376022,405.592896 186.968079,404.183044 
	C187.109573,403.846100 185.497559,402.181824 184.694244,402.183533 
	C183.607040,402.185791 181.533249,403.424347 181.605667,403.753357 
	C181.934250,405.246338 182.868286,406.606079 184.333298,408.052094 
M471.306854,407.604523 
	C472.820312,407.174927 474.448151,406.940094 475.761261,406.169220 
	C476.063080,405.992004 475.641418,403.564026 474.901398,402.918732 
	C474.169617,402.280548 471.706451,402.220947 471.576843,402.542358 
	C471.013336,403.939697 471.024292,405.568665 471.306854,407.604523 
M638.647949,402.776703 
	C637.113342,403.064514 635.487732,403.156586 634.115845,403.794373 
	C633.817871,403.932892 634.083801,406.296265 634.734558,407.134644 
	C635.230530,407.773621 637.505554,408.049988 637.676575,407.747009 
	C638.421997,406.426178 638.687622,404.834595 638.647949,402.776703 
M685.154480,406.752197 
	C686.727417,406.857208 688.331543,407.159912 689.850281,406.920715 
	C690.205994,406.864685 690.767029,404.665527 690.352905,404.001984 
	C689.777344,403.079712 687.646729,401.961578 687.441406,402.169769 
	C686.361938,403.264099 685.679077,404.749786 685.154480,406.752197 
z"/>
<path fill="#0D81F4" opacity="1.000000" stroke="none" 
	d="
M130.162155,302.708679 
	C143.899429,310.059082 143.361908,323.272400 129.021027,333.665405 
	C134.457748,335.728241 140.125198,337.965759 141.277634,344.131989 
	C142.063126,348.334900 142.035736,353.271545 140.554062,357.193329 
	C137.612274,364.979889 130.537125,368.277924 122.709366,368.740601 
	C113.273582,369.298370 103.779663,368.872620 94.000061,368.872620 
	C94.000061,346.000031 94.000061,323.302734 94.000061,300.087616 
	C106.150787,300.910980 118.176399,298.220703 130.162155,302.708679 
M120.638321,361.384003 
	C128.972992,360.175507 132.797943,356.587433 133.017120,349.771820 
	C133.210495,343.757996 129.853210,338.981476 123.599030,338.336639 
	C116.942383,337.650269 110.160110,338.182190 103.257156,338.182190 
	C103.257156,345.980743 103.257156,353.544586 103.257156,361.526154 
	C108.919029,361.526154 114.348427,361.526154 120.638321,361.384003 
M104.962646,307.436401 
	C104.328140,308.040466 103.152992,308.634674 103.141769,309.250122 
	C103.012299,316.351562 103.059151,323.456207 103.059151,331.437073 
	C110.027260,330.907227 116.541367,331.005249 122.788582,329.762054 
	C128.486633,328.628174 131.257401,323.627472 130.701935,318.081573 
	C130.111847,312.190063 126.923546,308.706329 120.814354,308.065796 
	C115.862930,307.546661 110.850708,307.607452 104.962646,307.436401 
z"/>
<path fill="#1284F6" opacity="1.000000" stroke="none" 
	d="
M263.805420,300.749573 
	C272.922363,300.510712 281.806091,299.899384 290.517303,300.857117 
	C303.296295,302.262085 309.625488,310.115753 309.298920,322.376007 
	C309.001648,333.535126 301.290344,341.733978 289.409424,342.892059 
	C284.150665,343.404663 278.800415,342.978516 272.800934,342.978516 
	C272.800934,347.814880 272.800934,351.933105 272.800934,356.051331 
	C272.800934,360.181519 272.800934,364.311676 272.800934,368.734894 
	C269.556091,368.734894 266.793579,368.734894 264.003967,368.734894 
	C263.807587,368.511353 263.402710,368.265594 263.402832,368.019989 
	C263.413574,345.706207 263.455383,323.392426 263.805420,300.749573 
M289.717865,308.181000 
	C284.289154,307.939117 278.860443,307.697266 273.094238,307.440399 
	C273.094238,317.240723 273.094238,326.294617 273.094238,335.541260 
	C278.149689,335.541260 282.993866,336.053253 287.684662,335.423279 
	C295.026459,334.437286 299.357178,329.626160 299.935333,323.000793 
	C300.568634,315.743317 297.778412,311.418884 289.717865,308.181000 
z"/>
<path fill="#1181F1" opacity="1.000000" stroke="none" 
	d="
M327.434692,327.935730 
	C325.505463,329.033356 324.039398,330.448944 322.356812,330.786865 
	C320.907715,331.077911 318.631287,330.609070 317.812805,329.594849 
	C317.182404,328.813721 317.706482,326.012695 318.647980,325.231415 
	C323.975372,320.810547 330.282166,318.814850 337.195404,319.526428 
	C346.098419,320.442749 351.659332,326.061768 352.039185,335.392151 
	C352.484680,346.335785 352.143463,357.311432 352.143463,368.513947 
	C347.527039,370.079620 344.834167,368.670410 344.700867,363.919739 
	C340.091248,365.877930 336.026123,368.178802 331.658905,369.263885 
	C328.606232,370.022308 325.006683,369.636536 321.890747,368.833282 
	C317.330353,367.657654 314.790771,364.121521 314.018158,359.473572 
	C313.128998,354.124481 314.920074,349.282715 319.713959,347.292938 
	C325.888275,344.730194 332.590607,343.213989 339.205627,342.029938 
	C342.719086,341.401001 344.123962,340.509491 343.848541,336.826416 
	C343.176056,327.832550 337.891235,324.766968 327.434692,327.935730 
M343.912170,351.482300 
	C343.798309,350.083374 343.684479,348.684448 343.489777,346.292389 
	C337.419586,347.706848 331.847076,348.552521 326.657074,350.446472 
	C324.691467,351.163757 322.682190,354.178925 322.399475,356.367218 
	C322.148560,358.309570 323.719147,361.431274 325.437622,362.496094 
	C329.569733,365.056458 334.110809,363.889343 338.187653,361.683105 
	C341.803101,359.726501 344.905060,357.241028 343.912170,351.482300 
z"/>
<path fill="#1282F2" opacity="1.000000" stroke="none" 
	d="
M227.556152,345.463531 
	C221.556198,342.926239 218.326218,338.906738 219.020660,332.537781 
	C219.686508,326.431091 223.325882,322.579071 229.032974,320.757416 
	C237.029037,318.205170 244.377640,319.441437 251.055450,324.880554 
	C250.172195,329.151703 248.329681,329.878204 244.328796,328.309784 
	C240.941483,326.981842 236.878998,326.203918 233.371841,326.770538 
	C231.074875,327.141663 227.831680,330.189697 227.599274,332.320923 
	C227.382309,334.310669 230.177216,337.303497 232.378006,338.710602 
	C235.094116,340.447174 238.591995,340.931488 241.706757,342.079834 
	C249.833710,345.075928 252.833191,349.000916 252.272385,355.746490 
	C251.697372,362.662537 247.182037,367.437775 239.569397,369.180664 
	C231.492004,371.029938 223.900620,369.194641 217.999100,363.796082 
	C219.422928,360.145691 220.809479,358.290405 225.543869,360.740082 
	C229.104919,362.582672 233.832779,363.227234 237.839508,362.741455 
	C240.117752,362.465240 242.793289,359.178253 243.845230,356.646820 
	C245.198471,353.390289 242.608276,351.020935 239.591309,349.821320 
	C235.743484,348.291351 231.792847,347.019989 227.556152,345.463531 
z"/>
<path fill="#1181F1" opacity="1.000000" stroke="none" 
	d="
M386.981293,365.890076 
	C384.056793,364.290161 384.578156,362.264038 386.305084,360.940521 
	C387.391846,360.107635 389.818726,359.683136 390.837006,360.335571 
	C394.998383,363.001923 399.325195,363.998688 404.144592,363.154907 
	C407.853973,362.505493 410.151001,360.261566 410.808716,356.659180 
	C411.517944,352.774658 408.825653,350.845795 405.775818,349.600830 
	C401.938263,348.034241 397.923004,346.906342 394.067780,345.378845 
	C389.035950,343.385132 385.724792,339.876801 385.631744,334.178345 
	C385.538574,328.472870 388.301300,324.365997 393.282318,321.722229 
	C400.907440,317.674927 411.519287,319.252502 417.716675,325.332520 
	C416.759308,329.574524 414.648743,329.547272 410.828705,328.196930 
	C407.135620,326.891510 402.772186,326.571747 398.885864,327.118103 
	C397.018341,327.380707 394.569550,330.486237 394.253326,332.585846 
	C394.002747,334.249847 396.192780,337.081726 398.019226,338.088501 
	C401.609161,340.067139 405.727997,341.066803 409.577484,342.598389 
	C416.565002,345.378448 419.247894,348.982880 419.012238,355.042786 
	C418.761566,361.490265 414.382965,367.072113 407.912506,368.824066 
	C400.702545,370.776245 393.751862,370.175476 386.981293,365.890076 
z"/>
<path fill="#1685F2" opacity="1.000000" stroke="none" 
	d="
M365.312561,365.657806 
	C365.310547,343.106598 365.310547,321.021362 365.310547,298.524719 
	C368.411926,298.524719 371.098846,298.524719 374.007324,298.524719 
	C374.007324,321.881927 374.007324,345.119019 374.007324,368.943512 
	C371.001770,367.816132 366.820251,372.128967 365.312561,365.657806 
z"/>
<path fill="#1C83EB" opacity="1.000000" stroke="none" 
	d="
M439.612335,418.787994 
	C437.720734,424.348419 436.078308,429.580719 434.181580,434.719116 
	C433.825073,435.684998 432.498444,436.807922 431.538208,436.888397 
	C430.610413,436.966156 428.964569,435.992249 428.684204,435.136322 
	C425.231750,424.597992 421.972168,413.996429 418.635651,403.324463 
	C422.233063,401.786224 423.934021,402.762360 424.853882,406.067932 
	C426.828827,413.164734 429.027557,420.199219 432.349060,427.293304 
	C434.625610,420.607666 436.774597,413.873932 439.264130,407.268585 
	C439.926849,405.510345 441.633728,404.145630 442.861237,402.600281 
	C444.017426,404.195709 445.584137,405.635956 446.256287,407.414337 
	C448.716888,413.924286 450.879700,420.546814 454.191772,427.289551 
	C455.629395,422.701569 457.071106,418.114868 458.503021,413.525085 
	C459.294861,410.986969 460.282928,408.486176 460.800171,405.892303 
	C461.476044,402.503265 463.335663,402.019714 466.629578,403.156860 
	C463.313263,413.847870 460.075562,424.466187 456.643799,435.021454 
	C456.355225,435.909027 454.623230,437.041901 453.812225,436.871185 
	C452.700439,436.637177 451.337006,435.444855 450.935547,434.350067 
	C448.821014,428.583313 446.989105,422.713348 445.027374,416.889893 
	C444.458801,415.201996 443.785522,413.549347 442.664825,410.558441 
	C441.396484,414.010254 440.584991,416.218811 439.612335,418.787994 
z"/>
<path fill="#1483F3" opacity="1.000000" stroke="none" 
	d="
M184.896881,325.000000 
	C184.896851,339.787689 184.896851,354.075409 184.896851,368.701599 
	C181.922195,368.701599 179.342270,368.701599 176.387512,368.701599 
	C176.387512,345.402985 176.387512,322.054932 176.387512,298.411896 
	C179.173935,298.411896 181.734238,298.411896 184.896927,298.411896 
	C184.896927,307.280762 184.896927,315.890381 184.896881,325.000000 
z"/>
<path fill="#077FF5" opacity="1.000000" stroke="none" 
	d="
M201.145630,369.004395 
	C200.091492,368.021606 198.998627,367.051758 198.994873,366.077759 
	C198.910095,344.095978 198.942337,322.113770 198.973404,300.131653 
	C198.974075,299.666595 199.220459,299.201843 199.431763,298.456299 
	C201.817520,298.456299 204.212128,298.456299 206.941391,298.456299 
	C206.941391,321.892639 206.941391,345.119293 206.941391,369.015381 
	C205.147614,369.015381 203.380905,369.015381 201.145630,369.004395 
z"/>
<path fill="#2485E5" opacity="1.000000" stroke="none" 
	d="
M675.983032,413.939392 
	C681.160339,420.796295 678.202576,428.360016 678.700806,435.488220 
	C678.738770,436.030762 676.444580,436.736359 674.309143,437.847717 
	C674.309143,431.835815 674.347900,427.044800 674.295471,422.254791 
	C674.260742,419.075836 673.798706,415.990326 669.624939,416.013489 
	C665.692566,416.035309 664.675964,418.815735 664.603577,422.112396 
	C664.519653,425.937622 664.458923,429.769806 664.597046,433.591461 
	C664.717407,436.922119 663.335083,437.698700 659.981140,436.455353 
	C659.981140,431.887146 659.989380,427.258301 659.978394,422.629547 
	C659.970520,419.315948 659.845581,415.868622 655.271912,416.038116 
	C651.260803,416.186737 650.103638,418.884521 650.216797,422.576782 
	C650.359131,427.220398 650.251099,431.871704 650.251099,436.777527 
	C648.706604,436.777527 647.452148,436.777527 646.048157,436.777527 
	C646.048157,428.722565 646.048157,420.835785 646.048157,413.779633 
	C649.552307,413.214539 652.620544,412.232086 655.631714,412.383545 
	C658.186401,412.512024 660.675171,413.950134 663.863525,415.037354 
	C666.844238,412.317383 670.940552,410.758820 675.983032,413.939392 
z"/>
<path fill="#1483F3" opacity="1.000000" stroke="none" 
	d="
M160.608719,320.383301 
	C161.310577,320.879517 161.814774,321.275909 161.815796,321.673645 
	C161.855606,337.263672 161.849625,352.853851 161.849625,368.742432 
	C158.944733,368.742432 156.365158,368.742432 153.440460,368.742432 
	C153.440460,352.806793 153.440460,336.924957 153.440460,320.284119 
	C155.679581,320.284119 157.927979,320.284119 160.608719,320.383301 
z"/>
<path fill="#2285E9" opacity="1.000000" stroke="none" 
	d="
M99.529671,424.239990 
	C97.630379,424.335754 96.171211,424.427948 94.176979,424.553955 
	C94.176979,428.745239 94.176979,432.653107 94.176979,436.788574 
	C92.363838,436.788574 91.105087,436.788574 89.502777,436.788574 
	C89.502777,425.531372 89.502777,414.333984 89.502777,402.726593 
	C93.905045,402.726593 98.199585,402.424286 102.434608,402.797394 
	C108.801430,403.358276 112.415604,407.279022 112.506897,413.035919 
	C112.596695,418.699432 109.008301,422.826843 102.945251,423.971893 
	C101.971512,424.155792 100.962509,424.152985 99.529671,424.239990 
M101.604385,406.547241 
	C99.192978,406.547241 96.781570,406.547241 94.303528,406.547241 
	C94.303528,411.231079 94.303528,415.501953 94.303528,419.719635 
	C101.785240,421.153625 105.801796,419.799988 107.271370,415.486694 
	C108.623726,411.517456 107.072716,408.726105 101.604385,406.547241 
z"/>
<path fill="#2E8DED" opacity="1.000000" stroke="none" 
	d="
M519.773682,435.501068 
	C518.458862,436.393707 517.205078,436.839752 515.115540,437.583099 
	C515.115540,432.593353 515.162842,428.475952 515.101624,424.360168 
	C515.045410,420.582458 515.806152,416.141083 509.946838,416.028442 
	C505.652985,415.945953 503.869324,418.481506 503.861206,424.261444 
	C503.855621,428.241486 503.860077,432.221527 503.860077,436.322632 
	C500.637329,437.729950 499.046448,437.330872 499.087006,433.556396 
	C499.188995,424.063568 499.041779,414.567474 499.216125,405.076752 
	C499.238617,403.852234 500.571869,402.651764 501.297974,401.440155 
	C502.150909,402.691650 503.555237,403.866699 503.741547,405.210571 
	C504.124817,407.975372 503.856750,410.830475 503.856750,413.515869 
	C504.474854,413.776855 504.828613,414.075378 505.046417,413.996826 
	C515.798096,410.119781 519.845642,412.996429 519.857910,424.561432 
	C519.861633,428.059113 519.843018,431.556763 519.773682,435.501068 
z"/>
<path fill="#2D8BE8" opacity="1.000000" stroke="none" 
	d="
M276.804871,412.802002 
	C284.433502,411.357635 288.146393,413.981781 288.636017,421.117889 
	C288.919678,425.252960 288.609955,429.425781 288.794159,433.571533 
	C288.944031,436.943848 287.442291,437.649597 283.846130,436.534546 
	C283.846130,431.833862 283.856598,426.924683 283.842499,422.015533 
	C283.832886,418.677795 282.976349,415.937988 278.875671,416.154022 
	C275.126770,416.351471 272.554504,417.774750 272.720795,422.214783 
	C272.899719,426.992126 272.761200,431.781372 272.761200,438.274048 
	C270.438812,436.713196 268.263733,435.955750 268.233582,435.120850 
	C267.965881,427.710815 268.077942,420.287018 268.077942,413.326202 
	C271.290527,413.166138 273.850525,413.038544 276.804871,412.802002 
z"/>
<path fill="#2686E6" opacity="1.000000" stroke="none" 
	d="
M388.044678,413.860107 
	C395.966675,408.967560 405.932739,415.224304 403.947235,424.743195 
	C398.687683,424.743195 393.286438,424.743195 387.934326,424.743195 
	C387.343842,432.057098 391.630920,435.291290 398.177704,433.150055 
	C399.823120,432.611877 401.574982,432.399109 403.398499,432.658295 
	C398.809357,438.523407 390.443909,438.777954 385.917633,434.060822 
	C381.544312,429.503113 381.120819,417.707489 388.044678,413.860107 
M399.717621,419.140625 
	C398.202789,415.769226 395.250549,414.897308 392.262817,416.044037 
	C390.180481,416.843201 388.637970,419.048798 386.854340,420.626160 
	C387.140289,421.113892 387.426239,421.601593 387.712189,422.089325 
	C391.149445,422.089325 394.593658,422.202759 398.018036,421.993164 
	C398.699829,421.951447 399.305969,420.673615 399.717621,419.140625 
z"/>
<path fill="#2285E9" opacity="1.000000" stroke="none" 
	d="
M317.669220,432.053589 
	C314.406494,422.768707 316.576874,415.531525 323.084473,413.013794 
	C328.728058,410.830353 335.100342,412.902832 337.803833,417.801025 
	C340.890533,423.393524 339.330261,431.972961 334.597809,435.430176 
	C329.659332,439.037781 322.716919,437.774689 317.669220,432.053589 
M320.834991,427.140564 
	C322.175079,432.558441 325.047974,434.795959 329.362213,433.781891 
	C333.428375,432.826141 335.714294,427.818939 334.609467,422.287872 
	C333.630035,417.384277 330.643494,415.024475 326.191620,415.995911 
	C320.459259,417.246735 320.751892,421.890442 320.834991,427.140564 
z"/>
<path fill="#2686E6" opacity="1.000000" stroke="none" 
	d="
M225.629562,437.231934 
	C217.552994,434.775208 214.036057,427.652802 216.700241,419.870819 
	C218.817947,413.685059 225.022949,410.521240 231.048340,412.966736 
	C233.044830,413.777039 235.084732,415.445618 236.203400,417.273468 
	C239.639725,422.888153 238.334976,425.008392 231.903793,425.016235 
	C228.295059,425.020630 224.686310,425.017059 221.086563,425.017059 
	C221.105637,432.471161 225.311462,435.370026 231.860321,433.071442 
	C233.362076,432.544373 234.978973,432.345398 236.710312,432.689362 
	C234.239197,437.372223 230.133804,437.349884 225.629562,437.231934 
M228.272369,422.117950 
	C229.899948,422.117950 231.527512,422.117950 233.321030,422.117950 
	C233.294769,417.535461 231.173264,415.532562 227.175049,415.710938 
	C223.471451,415.876129 221.116165,417.604828 221.213730,422.118134 
	C223.452530,422.118134 225.420502,422.118134 228.272369,422.117950 
z"/>
<path fill="#2285E9" opacity="1.000000" stroke="none" 
	d="
M536.854858,437.422302 
	C527.395630,436.368866 523.207520,430.506470 524.992859,421.383972 
	C526.326843,414.567535 532.898376,410.709137 539.827515,412.673920 
	C545.399231,414.253815 548.433594,419.140656 548.037842,425.896698 
	C547.640930,432.671936 544.355896,436.171509 536.854858,437.422302 
M529.314453,426.941101 
	C531.002869,432.732361 533.928467,434.922882 538.356567,433.711334 
	C542.490906,432.580170 544.351440,427.694244 543.028931,421.441254 
	C542.138977,417.233124 539.164001,415.076569 534.999329,415.973328 
	C529.415283,417.175690 529.241943,421.666199 529.314453,426.941101 
z"/>
<path fill="#2485E5" opacity="1.000000" stroke="none" 
	d="
M132.462341,415.785400 
	C133.303879,422.952454 133.920776,429.792175 134.439911,435.547974 
	C129.841965,436.266388 126.495552,436.876770 123.125122,437.292511 
	C119.371452,437.755554 115.950226,437.101013 114.887871,432.824066 
	C113.785439,428.385834 116.240761,425.915924 120.257881,424.777679 
	C123.103859,423.971283 126.010536,423.379089 128.856491,422.699341 
	C129.535004,416.535919 126.733932,414.558167 120.991997,416.796387 
	C119.603149,417.337738 117.876724,417.013031 116.305542,417.086609 
	C117.387856,415.837097 118.229591,414.030609 119.596573,413.440155 
	C124.106308,411.492279 128.624786,411.068329 132.462341,415.785400 
M122.564545,434.188263 
	C129.025101,433.308167 130.381332,431.604584 128.700684,425.983948 
	C126.511292,426.392883 124.151031,426.494812 122.097588,427.341156 
	C120.812988,427.870605 119.303360,429.449219 119.173172,430.691101 
	C119.064659,431.726257 120.817329,432.956543 122.564545,434.188263 
z"/>
<path fill="#2285E9" opacity="1.000000" stroke="none" 
	d="
M206.907288,431.053101 
	C206.207581,432.789673 205.956863,434.823608 204.926453,435.360107 
	C203.541656,436.081177 200.291916,436.220703 200.018707,435.620026 
	C196.681015,428.282471 193.742294,420.763397 191.384247,412.891785 
	C199.229691,415.286163 197.691925,424.134521 202.957077,429.664337 
	C204.461899,425.952087 205.450974,422.537018 207.177216,419.547699 
	C208.684891,416.936859 207.795700,411.495178 214.158630,413.039856 
	C211.710403,419.081604 209.359726,424.882568 206.907288,431.053101 
z"/>
<path fill="#2686E6" opacity="1.000000" stroke="none" 
	d="
M170.350464,433.537476 
	C173.595047,430.339081 172.503586,428.371918 169.062729,427.058807 
	C167.667114,426.526215 166.221329,426.125092 164.825272,425.593536 
	C161.779022,424.433685 159.642410,422.541290 159.949646,418.944427 
	C160.262192,415.285400 162.527054,413.301270 165.912155,412.519714 
	C169.652115,411.656219 173.079681,412.181366 176.802261,415.935577 
	C174.917892,416.306793 173.884674,416.728210 172.886322,416.657501 
	C171.263214,416.542480 169.564377,415.633087 168.081848,415.942444 
	C166.709366,416.228882 165.578690,417.673920 164.341553,418.608765 
	C165.208740,419.697662 165.872330,421.127106 166.990784,421.795715 
	C168.672165,422.800964 170.989166,422.882874 172.454956,424.072937 
	C174.221298,425.507050 176.633026,427.789032 176.495682,429.524353 
	C176.308716,431.887054 174.417435,435.385406 172.461243,436.048187 
	C169.305099,437.117523 165.484879,436.432526 161.980667,436.106598 
	C161.219894,436.035828 160.609299,434.350677 159.929550,433.409088 
	C161.043976,433.235077 162.171326,432.859039 163.270126,432.929321 
	C165.517059,433.073090 167.748657,433.456726 170.350464,433.537476 
z"/>
<path fill="#2686E6" opacity="1.000000" stroke="none" 
	d="
M140.543060,423.260498 
	C138.369644,418.252686 139.403564,414.979736 143.404724,413.099426 
	C147.785858,411.040527 152.625916,412.244263 155.377045,416.850800 
	C153.488220,416.606567 152.211853,416.545471 150.986801,416.262299 
	C148.139832,415.604156 144.913193,414.877075 143.921478,418.377350 
	C143.649246,419.338257 146.875900,421.401520 148.639862,422.775513 
	C149.380112,423.352142 150.520737,423.385040 151.429474,423.779877 
	C156.793839,426.110657 157.676300,432.359406 152.919724,435.648438 
	C149.041962,438.329865 144.739822,438.060730 140.652298,435.953552 
	C139.922165,435.577209 139.705170,434.205444 139.251251,433.293274 
	C140.226120,433.114563 141.236633,432.682465 142.167969,432.813385 
	C143.774384,433.039215 145.463470,434.205750 146.875046,433.890411 
	C148.531464,433.520447 149.928696,431.990082 151.438324,430.963013 
	C150.421066,429.656830 149.649429,427.961853 148.332565,427.130005 
	C145.997818,425.655212 143.331985,424.704559 140.543060,423.260498 
z"/>
<path fill="#2686E6" opacity="1.000000" stroke="none" 
	d="
M698.325989,411.934814 
	C699.695129,409.371918 697.269775,405.201813 702.549255,404.704102 
	C702.726440,407.318298 702.889404,409.723297 703.034668,411.866852 
	C705.371521,412.903564 707.533203,413.862579 709.694824,414.821533 
	C707.721680,415.609680 705.748535,416.397827 702.893555,417.538239 
	C702.893555,421.560425 702.702454,426.326111 703.072388,431.047821 
	C703.137817,431.882965 705.523376,432.573334 706.874512,433.257629 
	C707.773804,433.713074 708.738770,434.038971 709.674316,434.422852 
	C709.010681,435.230438 708.510681,436.391083 707.656189,436.787231 
	C702.769409,439.052917 698.535522,436.531433 698.143799,431.120056 
	C697.940002,428.305145 698.364197,425.426697 697.985657,422.647675 
	C697.621094,419.971008 696.588013,417.385376 695.848694,414.759735 
	C695.313171,414.690918 694.777710,414.622101 694.242249,414.553314 
	C695.548218,413.800659 696.854126,413.048035 698.325989,411.934814 
z"/>
<path fill="#2485E5" opacity="1.000000" stroke="none" 
	d="
M304.948486,433.876831 
	C307.792572,433.306580 310.255524,432.729706 312.718506,432.152863 
	C308.520538,438.274292 301.417358,438.777893 297.070557,434.661499 
	C292.349762,430.190826 292.216492,420.206268 296.814362,415.469666 
	C301.216949,410.934296 307.919556,410.989899 313.448578,416.378296 
	C311.557495,416.595551 310.268463,417.092010 309.179596,416.811462 
	C302.745605,415.153778 300.076263,416.209564 298.589417,421.268066 
	C296.826569,427.265747 299.118408,432.097198 304.948486,433.876831 
z"/>
<path fill="#1F82E3" opacity="1.000000" stroke="none" 
	d="
M579.357056,416.353271 
	C578.831848,415.394806 578.682922,414.502380 578.534058,413.609985 
	C582.513123,413.447357 581.695007,410.222748 582.404724,407.829620 
	C582.742126,406.691711 583.964905,405.816376 584.786621,404.822113 
	C585.191345,405.936951 585.773010,407.023956 585.953979,408.174011 
	C586.157898,409.469666 586.000854,410.822144 586.000854,412.561157 
	C588.347473,412.830933 590.565002,413.085907 592.782532,413.340881 
	C592.954529,413.864044 593.126526,414.387207 593.298523,414.910370 
	C591.160583,415.645233 589.022705,416.380066 586.041565,417.404755 
	C586.041565,421.357422 585.819031,425.962280 586.205627,430.515411 
	C586.296875,431.589142 588.350098,432.641479 589.669312,433.416901 
	C590.619385,433.975311 591.849243,434.057861 592.954224,434.352661 
	C591.998901,435.267548 591.194641,436.651215 590.062012,437.016235 
	C585.170166,438.592926 581.839355,436.263763 581.521118,431.073761 
	C581.307495,427.589508 581.628906,424.070892 581.381226,420.591095 
	C581.280090,419.168640 580.308899,417.808075 579.357056,416.353271 
z"/>
<path fill="#1F82E3" opacity="1.000000" stroke="none" 
	d="
M488.545013,412.469177 
	C490.806580,412.953583 492.764618,413.122070 494.722626,413.290558 
	C494.900604,413.820465 495.078583,414.350403 495.256561,414.880310 
	C493.162415,415.623444 491.068268,416.366608 488.117950,417.413544 
	C488.117950,421.497284 487.915924,426.250488 488.296631,430.956512 
	C488.368622,431.846527 490.723358,432.612366 492.086578,433.315765 
	C492.971802,433.772491 493.969086,434.012054 494.916138,434.348877 
	C494.264832,435.177917 493.786194,436.363373 492.933441,436.776428 
	C488.410522,438.967224 484.081909,436.530273 483.596008,431.483093 
	C483.326324,428.681915 483.772797,425.799377 483.382965,423.025665 
	C482.987335,420.210999 481.959778,417.485199 481.007141,413.977173 
	C481.506683,413.288696 482.973267,411.605896 484.036804,409.698334 
	C484.947266,408.065399 485.395874,406.174957 486.048737,404.398438 
	C486.638702,404.564423 487.228638,404.730408 487.818604,404.896362 
	C487.959564,407.315338 488.100494,409.734314 488.545013,412.469177 
z"/>
<path fill="#1F82E3" opacity="1.000000" stroke="none" 
	d="
M360.079437,436.839355 
	C359.698761,434.585236 359.132996,432.343292 358.983490,430.073944 
	C358.788544,427.115234 359.002472,424.131897 358.894348,421.164490 
	C358.787201,418.222778 357.691376,415.828217 354.258484,416.021362 
	C351.129852,416.197449 349.035278,417.687012 349.036591,421.285187 
	C349.038452,426.389130 348.857330,431.493134 348.362976,436.261139 
	C347.532959,428.973602 349.102356,421.857269 346.074341,415.100342 
	C346.074341,422.347290 346.074341,429.594238 346.074341,436.841187 
	C345.635193,436.477020 344.816437,436.116577 344.812805,435.748138 
	C344.738403,428.161133 344.756836,420.573212 344.756836,413.824249 
	C348.436066,413.240692 351.507111,412.271179 354.521179,412.424164 
	C357.052032,412.552551 359.516510,413.989136 362.782776,415.112091 
	C363.060638,414.911102 364.240906,414.057343 366.021362,413.154236 
	C367.055237,413.984833 367.488953,414.864777 367.922668,415.744751 
	C364.035858,416.674805 363.398224,419.617401 363.299469,423.007355 
	C363.165497,427.606628 362.897644,432.202026 362.330750,436.362610 
	C361.974335,430.164703 361.974335,424.403290 361.974335,418.641907 
	C361.342712,418.637848 360.711060,418.633820 360.079437,418.629791 
	C360.079437,424.699646 360.079437,430.769501 360.079437,436.839355 
z"/>
<path fill="#2686E6" opacity="1.000000" stroke="none" 
	d="
M562.870972,433.762390 
	C567.735535,433.017578 569.364807,430.446777 569.044067,426.014801 
	C568.734497,421.738220 568.977051,417.421692 568.977051,413.148010 
	C571.897949,412.094116 573.555359,412.295135 573.529175,415.598602 
	C573.473938,422.574646 573.512390,429.551453 573.512390,435.774414 
	C569.153687,436.399689 565.370972,437.163177 561.553345,437.433380 
	C556.917603,437.761444 553.470764,434.865692 553.170410,430.059967 
	C552.819641,424.448669 553.088440,418.798615 553.088440,413.139679 
	C556.348267,411.844269 557.632751,412.780609 557.544983,416.050720 
	C557.437683,420.046692 557.458252,424.050537 557.572205,428.046692 
	C557.661133,431.161469 558.739929,433.622498 562.870972,433.762390 
M571.657410,435.033020 
	C571.657410,428.234100 571.657410,421.435211 571.657410,414.636292 
	C570.976685,414.670502 570.296021,414.704712 569.615295,414.738922 
	C570.069458,421.413025 570.523560,428.087128 571.657410,435.033020 
M554.026489,416.141113 
	C554.506653,421.606812 552.675354,427.390991 556.015625,433.217041 
	C556.015625,427.381775 556.086121,422.338562 555.932312,417.302216 
	C555.911560,416.622803 554.762878,415.977875 554.026489,416.141113 
M562.238770,435.037079 
	C561.799133,435.159760 561.359558,435.282410 560.919983,435.405090 
	C561.023499,435.628357 561.127075,435.851593 561.230652,436.074860 
	C561.742859,435.756256 562.255127,435.437653 562.238770,435.037079 
z"/>
<path fill="#1181F1" opacity="1.000000" stroke="none" 
	d="
M615.188110,408.099274 
	C615.188293,416.538147 615.188293,424.484497 615.188293,432.356598 
	C620.429199,432.999695 625.185059,433.566864 629.921936,434.263275 
	C630.035217,434.279907 629.936218,435.740631 629.936218,436.783325 
	C623.586975,436.783325 617.500000,436.783325 610.730042,436.783325 
	C610.730042,426.092682 610.689026,415.519684 610.818787,404.948792 
	C610.827820,404.213806 612.061829,402.977692 612.805603,402.914856 
	C613.531433,402.853516 614.659790,403.849701 615.057861,404.655182 
	C615.457153,405.463135 615.172729,406.609009 615.188110,408.099274 
z"/>
<path fill="#2285E9" opacity="1.000000" stroke="none" 
	d="
M260.928314,430.857605 
	C260.928345,432.980835 260.928345,434.624023 260.928345,436.692017 
	C259.276337,436.802521 257.915985,436.893524 256.257690,437.004456 
	C256.257690,425.504272 256.257690,414.409454 256.257690,402.843903 
	C257.595367,402.783081 258.974915,402.720337 260.928284,402.631531 
	C260.928284,412.174530 260.928284,421.276062 260.928314,430.857605 
z"/>
<path fill="#2E8DED" opacity="1.000000" stroke="none" 
	d="
M688.639832,436.973816 
	C687.224365,435.965637 685.417786,434.919952 685.363098,433.789551 
	C685.074341,427.820404 685.316162,421.828033 685.192505,415.847504 
	C685.119324,412.309204 686.776245,411.923767 690.528931,413.309265 
	C690.049255,420.997345 689.553162,428.947296 688.639832,436.973816 
z"/>
<path fill="#2E8DED" opacity="1.000000" stroke="none" 
	d="
M368.311096,415.843628 
	C367.488953,414.864777 367.055237,413.984833 366.397125,413.085266 
	C367.802460,413.074921 369.432190,413.084137 371.505066,413.496063 
	C373.250580,414.385223 374.552917,414.871674 375.855255,415.358093 
	C376.488434,422.108337 377.204071,428.853912 377.586700,435.618317 
	C377.615051,436.119751 375.250427,436.756561 373.111664,437.736786 
	C373.111664,431.704224 373.069763,426.792572 373.126740,421.882111 
	C373.163391,418.722046 372.339783,416.310699 368.311096,415.843628 
z"/>
<path fill="#1282F2" opacity="1.000000" stroke="none" 
	d="
M151.447357,305.709045 
	C152.764786,299.976013 155.772171,297.481445 159.374359,299.480591 
	C161.314331,300.557220 163.473267,303.428589 163.371857,305.377747 
	C163.270721,307.321960 160.804214,310.063141 158.778702,310.786926 
	C155.082184,312.107910 152.575989,309.764954 151.447357,305.709045 
z"/>
<path fill="#2E8DED" opacity="1.000000" stroke="none" 
	d="
M638.969543,428.925354 
	C638.969543,431.719727 638.969543,434.027222 638.969543,436.493896 
	C636.106018,437.413788 634.198853,437.600800 634.247986,433.898315 
	C634.329773,427.740265 634.164429,421.576691 634.376587,415.424866 
	C634.411194,414.419556 635.848511,413.462646 636.637451,412.483337 
	C637.413269,413.473694 638.798157,414.428223 638.858826,415.460602 
	C639.112244,419.773834 638.968018,424.110474 638.969543,428.925354 
z"/>
<path fill="#1F82E3" opacity="1.000000" stroke="none" 
	d="
M186.540802,425.006958 
	C186.539795,428.158478 186.414490,430.828827 186.570053,433.482758 
	C186.760193,436.726379 185.448166,437.666321 182.001755,436.532379 
	C182.001755,429.450958 181.926819,422.326447 182.097366,415.207825 
	C182.118500,414.325836 183.444977,413.475098 184.166595,412.609863 
	C184.955414,413.583435 186.314514,414.496948 186.424622,415.542053 
	C186.736847,418.505402 186.538376,421.522522 186.540802,425.006958 
z"/>
<path fill="#077FF5" opacity="1.000000" stroke="none" 
	d="
M472.036926,412.969482 
	C472.467194,412.907959 472.897461,412.846436 473.654846,413.348450 
	C473.962677,421.555847 473.943390,429.199677 473.924103,436.843506 
	C473.511536,436.891113 473.098938,436.938721 472.356567,436.457336 
	C472.030151,428.275360 472.033539,420.622406 472.036926,412.969482 
z"/>
<path fill="#077FF5" opacity="1.000000" stroke="none" 
	d="
M346.379517,436.912231 
	C346.074341,429.594238 346.074341,422.347290 346.074341,415.100342 
	C349.102356,421.857269 347.532959,428.973602 347.946198,436.382690 
	C347.508820,436.887878 347.096741,436.935547 346.379517,436.912231 
z"/>
<path fill="#077FF5" opacity="1.000000" stroke="none" 
	d="
M360.384338,436.910828 
	C360.079437,430.769501 360.079437,424.699646 360.079437,418.629791 
	C360.711060,418.633820 361.342712,418.637848 361.974335,418.641907 
	C361.974335,424.403290 361.974335,430.164703 361.949829,436.383545 
	C361.513306,436.888092 361.101288,436.935181 360.384338,436.910828 
z"/>
<path fill="#2686E6" opacity="1.000000" stroke="none" 
	d="
M183.958862,408.032928 
	C182.868286,406.606079 181.934250,405.246338 181.605667,403.753357 
	C181.533249,403.424347 183.607040,402.185791 184.694244,402.183533 
	C185.497559,402.181824 187.109573,403.846100 186.968079,404.183044 
	C186.376022,405.592896 185.258362,406.782043 183.958862,408.032928 
z"/>
<path fill="#2D8BE8" opacity="1.000000" stroke="none" 
	d="
M471.066681,407.359009 
	C471.024292,405.568665 471.013336,403.939697 471.576843,402.542358 
	C471.706451,402.220947 474.169617,402.280548 474.901398,402.918732 
	C475.641418,403.564026 476.063080,405.992004 475.761261,406.169220 
	C474.448151,406.940094 472.820312,407.174927 471.066681,407.359009 
z"/>
<path fill="#1F82E3" opacity="1.000000" stroke="none" 
	d="
M638.887695,403.059021 
	C638.687622,404.834595 638.421997,406.426178 637.676575,407.747009 
	C637.505554,408.049988 635.230530,407.773621 634.734558,407.134644 
	C634.083801,406.296265 633.817871,403.932892 634.115845,403.794373 
	C635.487732,403.156586 637.113342,403.064514 638.887695,403.059021 
z"/>
<path fill="#1F82E3" opacity="1.000000" stroke="none" 
	d="
M685.006470,406.425903 
	C685.679077,404.749786 686.361938,403.264099 687.441406,402.169769 
	C687.646729,401.961578 689.777344,403.079712 690.352905,404.001984 
	C690.767029,404.665527 690.205994,406.864685 689.850281,406.920715 
	C688.331543,407.159912 686.727417,406.857208 685.006470,406.425903 
z"/>
<path fill="#1F82E3" opacity="1.000000" stroke="none" 
	d="
M474.348206,436.727478 
	C473.943390,429.199677 473.962677,421.555847 473.970825,413.441040 
	C474.348206,414.421051 475.065552,415.871338 475.068573,417.323090 
	C475.081879,423.752289 474.889984,430.181946 474.348206,436.727478 
z"/>
<path fill="#1F82E3" opacity="1.000000" stroke="none" 
	d="
M471.623444,413.135895 
	C472.033539,420.622406 472.030151,428.275360 472.051208,436.386078 
	C471.676514,436.085968 470.930176,435.327148 470.932281,434.570374 
	C470.951782,427.480835 471.099365,420.391632 471.623444,413.135895 
z"/>
<path fill="#1F82E3" opacity="1.000000" stroke="none" 
	d="
M375.716827,415.056152 
	C374.552917,414.871674 373.250580,414.385223 371.611969,413.769928 
	C371.275696,413.641083 371.318634,413.160461 371.806885,413.093201 
	C372.482361,413.033722 372.669586,413.041473 372.856781,413.049225 
	C373.763977,413.617554 374.671204,414.185913 375.716827,415.056152 
z"/>
<path fill="#2E8DED" opacity="1.000000" stroke="none" 
	d="
M372.752045,412.917969 
	C372.669586,413.041473 372.482361,413.033722 372.016907,412.974487 
	C372.041565,412.877563 372.344421,412.832123 372.752045,412.917969 
z"/>
<path fill="#F7FDFF" opacity="1.000000" stroke="none" 
	d="
M120.208069,361.455078 
	C114.348427,361.526154 108.919029,361.526154 103.257156,361.526154 
	C103.257156,353.544586 103.257156,345.980743 103.257156,338.182190 
	C110.160110,338.182190 116.942383,337.650269 123.599030,338.336639 
	C129.853210,338.981476 133.210495,343.757996 133.017120,349.771820 
	C132.797943,356.587433 128.972992,360.175507 120.208069,361.455078 
z"/>
<path fill="#F7FDFF" opacity="1.000000" stroke="none" 
	d="
M105.414047,307.423706 
	C110.850708,307.607452 115.862930,307.546661 120.814354,308.065796 
	C126.923546,308.706329 130.111847,312.190063 130.701935,318.081573 
	C131.257401,323.627472 128.486633,328.628174 122.788582,329.762054 
	C116.541367,331.005249 110.027260,330.907227 103.059151,331.437073 
	C103.059151,323.456207 103.012299,316.351562 103.141769,309.250122 
	C103.152992,308.634674 104.328140,308.040466 105.414047,307.423706 
z"/>
<path fill="#F7FDFF" opacity="1.000000" stroke="none" 
	d="
M290.121399,308.298584 
	C297.778412,311.418884 300.568634,315.743317 299.935333,323.000793 
	C299.357178,329.626160 295.026459,334.437286 287.684662,335.423279 
	C282.993866,336.053253 278.149689,335.541260 273.094238,335.541260 
	C273.094238,326.294617 273.094238,317.240723 273.094238,307.440399 
	C278.860443,307.697266 284.289154,307.939117 290.121399,308.298584 
z"/>
<path fill="#F2FDFF" opacity="1.000000" stroke="none" 
	d="
M343.912537,351.919495 
	C344.905060,357.241028 341.803101,359.726501 338.187653,361.683105 
	C334.110809,363.889343 329.569733,365.056458 325.437622,362.496094 
	C323.719147,361.431274 322.148560,358.309570 322.399475,356.367218 
	C322.682190,354.178925 324.691467,351.163757 326.657074,350.446472 
	C331.847076,348.552521 337.419586,347.706848 343.489777,346.292389 
	C343.684479,348.684448 343.798309,350.083374 343.912537,351.919495 
z"/>
<path fill="#ECFBFF" opacity="1.000000" stroke="none" 
	d="
M102.004364,406.637360 
	C107.072716,408.726105 108.623726,411.517456 107.271370,415.486694 
	C105.801796,419.799988 101.785240,421.153625 94.303528,419.719635 
	C94.303528,415.501953 94.303528,411.231079 94.303528,406.547241 
	C96.781570,406.547241 99.192978,406.547241 102.004364,406.637360 
z"/>
<path fill="#ECFBFF" opacity="1.000000" stroke="none" 
	d="
M399.832275,419.553223 
	C399.305969,420.673615 398.699829,421.951447 398.018036,421.993164 
	C394.593658,422.202759 391.149445,422.089325 387.712189,422.089325 
	C387.426239,421.601593 387.140289,421.113892 386.854340,420.626160 
	C388.637970,419.048798 390.180481,416.843201 392.262817,416.044037 
	C395.250549,414.897308 398.202789,415.769226 399.832275,419.553223 
z"/>
<path fill="#F2FDFF" opacity="1.000000" stroke="none" 
	d="
M320.794189,426.712646 
	C320.751892,421.890442 320.459259,417.246735 326.191620,415.995911 
	C330.643494,415.024475 333.630035,417.384277 334.609467,422.287872 
	C335.714294,427.818939 333.428375,432.826141 329.362213,433.781891 
	C325.047974,434.795959 322.175079,432.558441 320.794189,426.712646 
z"/>
<path fill="#ECFBFF" opacity="1.000000" stroke="none" 
	d="
M227.830414,422.118042 
	C225.420502,422.118134 223.452530,422.118134 221.213730,422.118134 
	C221.116165,417.604828 223.471451,415.876129 227.175049,415.710938 
	C231.173264,415.532562 233.294769,417.535461 233.321030,422.117950 
	C231.527512,422.117950 229.899948,422.117950 227.830414,422.118042 
z"/>
<path fill="#F2FDFF" opacity="1.000000" stroke="none" 
	d="
M529.256104,426.539551 
	C529.241943,421.666199 529.415283,417.175690 534.999329,415.973328 
	C539.164001,415.076569 542.138977,417.233124 543.028931,421.441254 
	C544.351440,427.694244 542.490906,432.580170 538.356567,433.711334 
	C533.928467,434.922882 531.002869,432.732361 529.256104,426.539551 
z"/>
<path fill="#ECFBFF" opacity="1.000000" stroke="none" 
	d="
M122.155106,434.144348 
	C120.817329,432.956543 119.064659,431.726257 119.173172,430.691101 
	C119.303360,429.449219 120.812988,427.870605 122.097588,427.341156 
	C124.151031,426.494812 126.511292,426.392883 128.700684,425.983948 
	C130.381332,431.604584 129.025101,433.308167 122.155106,434.144348 
z"/>
<path fill="#077FF5" opacity="1.000000" stroke="none" 
	d="
M571.317566,434.897125 
	C570.523560,428.087128 570.069458,421.413025 569.615295,414.738922 
	C570.296021,414.704712 570.976685,414.670502 571.657410,414.636292 
	C571.657410,421.435211 571.657410,428.234100 571.317566,434.897125 
z"/>
<path fill="#077FF5" opacity="1.000000" stroke="none" 
	d="
M554.081482,415.729065 
	C554.762878,415.977875 555.911560,416.622803 555.932312,417.302216 
	C556.086121,422.338562 556.015625,427.381775 556.015625,433.217041 
	C552.675354,427.390991 554.506653,421.606812 554.081482,415.729065 
z"/>
<path fill="#077FF5" opacity="1.000000" stroke="none" 
	d="
M562.503052,435.078064 
	C562.255127,435.437653 561.742859,435.756256 561.230652,436.074860 
	C561.127075,435.851593 561.023499,435.628357 560.919983,435.405090 
	C561.359558,435.282410 561.799133,435.159760 562.503052,435.078064 
z"/>
</svg>