<svg xmlns="http://www.w3.org/2000/svg" xmlns:xlink="http://www.w3.org/1999/xlink" width="100" zoomAndPan="magnify" viewBox="0 0 75 37.5" height="50" preserveAspectRatio="xMidYMid meet" version="1.0"><defs><g/></defs><g fill="#007bff" fill-opacity="1"><g transform="translate(2.608248, 28.850416)"><g><path d="M 1.78125 -3.453125 C 2.03125 -3.453125 2.238281 -3.40625 2.40625 -3.3125 C 2.582031 -3.21875 2.710938 -3.085938 2.796875 -2.921875 C 2.890625 -2.765625 2.9375 -2.578125 2.9375 -2.359375 C 2.9375 -2.148438 2.890625 -1.960938 2.796875 -1.796875 C 2.710938 -1.640625 2.582031 -1.515625 2.40625 -1.421875 C 2.238281 -1.328125 2.03125 -1.28125 1.78125 -1.28125 L 1.125 -1.28125 L 1.125 0 L 0.453125 0 L 0.453125 -3.453125 Z M 1.6875 -1.828125 C 2.070312 -1.828125 2.265625 -2.003906 2.265625 -2.359375 C 2.265625 -2.722656 2.070312 -2.90625 1.6875 -2.90625 L 1.125 -2.90625 L 1.125 -1.828125 Z M 1.6875 -1.828125 "/></g></g><g transform="translate(5.761606, 28.850416)"><g><path d="M 1.015625 0.046875 C 0.847656 0.046875 0.703125 0.015625 0.578125 -0.046875 C 0.453125 -0.109375 0.359375 -0.195312 0.296875 -0.3125 C 0.234375 -0.425781 0.203125 -0.566406 0.203125 -0.734375 C 0.203125 -0.890625 0.234375 -1.019531 0.296875 -1.125 C 0.359375 -1.226562 0.457031 -1.3125 0.59375 -1.375 C 0.738281 -1.445312 0.921875 -1.503906 1.140625 -1.546875 C 1.296875 -1.566406 1.414062 -1.59375 1.5 -1.625 C 1.582031 -1.65625 1.632812 -1.6875 1.65625 -1.71875 C 1.6875 -1.757812 1.703125 -1.804688 1.703125 -1.859375 C 1.703125 -1.941406 1.671875 -2.003906 1.609375 -2.046875 C 1.554688 -2.097656 1.460938 -2.125 1.328125 -2.125 C 1.179688 -2.125 1.039062 -2.09375 0.90625 -2.03125 C 0.78125 -1.96875 0.671875 -1.878906 0.578125 -1.765625 L 0.53125 -1.765625 L 0.25 -2.1875 C 0.382812 -2.332031 0.546875 -2.445312 0.734375 -2.53125 C 0.929688 -2.613281 1.140625 -2.65625 1.359375 -2.65625 C 1.703125 -2.65625 1.953125 -2.582031 2.109375 -2.4375 C 2.265625 -2.289062 2.34375 -2.082031 2.34375 -1.8125 L 2.34375 -0.671875 C 2.34375 -0.554688 2.394531 -0.5 2.5 -0.5 C 2.53125 -0.5 2.566406 -0.507812 2.609375 -0.53125 L 2.640625 -0.515625 L 2.6875 -0.0625 C 2.65625 -0.0390625 2.601562 -0.0195312 2.53125 0 C 2.46875 0.0078125 2.398438 0.015625 2.328125 0.015625 C 2.171875 0.015625 2.046875 -0.0078125 1.953125 -0.0625 C 1.867188 -0.125 1.8125 -0.21875 1.78125 -0.34375 L 1.71875 -0.359375 C 1.59375 -0.0859375 1.359375 0.046875 1.015625 0.046875 Z M 1.21875 -0.4375 C 1.375 -0.4375 1.492188 -0.488281 1.578125 -0.59375 C 1.671875 -0.695312 1.71875 -0.835938 1.71875 -1.015625 L 1.71875 -1.28125 L 1.671875 -1.28125 C 1.628906 -1.25 1.578125 -1.222656 1.515625 -1.203125 C 1.453125 -1.179688 1.363281 -1.160156 1.25 -1.140625 C 1.101562 -1.117188 1 -1.078125 0.9375 -1.015625 C 0.875 -0.960938 0.84375 -0.882812 0.84375 -0.78125 C 0.84375 -0.664062 0.875 -0.578125 0.9375 -0.515625 C 1.007812 -0.460938 1.101562 -0.4375 1.21875 -0.4375 Z M 1.21875 -0.4375 "/></g></g><g transform="translate(8.506633, 28.850416)"><g><path d="M 1.21875 0.046875 C 1.039062 0.046875 0.875 0.0234375 0.71875 -0.015625 C 0.570312 -0.0546875 0.445312 -0.113281 0.34375 -0.1875 C 0.238281 -0.257812 0.164062 -0.34375 0.125 -0.4375 L 0.484375 -0.828125 L 0.53125 -0.828125 C 0.613281 -0.710938 0.710938 -0.625 0.828125 -0.5625 C 0.953125 -0.507812 1.082031 -0.484375 1.21875 -0.484375 C 1.34375 -0.484375 1.4375 -0.503906 1.5 -0.546875 C 1.570312 -0.585938 1.609375 -0.65625 1.609375 -0.75 C 1.609375 -0.8125 1.582031 -0.863281 1.53125 -0.90625 C 1.488281 -0.945312 1.414062 -0.984375 1.3125 -1.015625 L 0.96875 -1.09375 C 0.707031 -1.15625 0.515625 -1.25 0.390625 -1.375 C 0.273438 -1.5 0.21875 -1.660156 0.21875 -1.859375 C 0.21875 -2.023438 0.257812 -2.164062 0.34375 -2.28125 C 0.425781 -2.40625 0.539062 -2.5 0.6875 -2.5625 C 0.84375 -2.625 1.019531 -2.65625 1.21875 -2.65625 C 1.457031 -2.65625 1.648438 -2.617188 1.796875 -2.546875 C 1.953125 -2.484375 2.078125 -2.394531 2.171875 -2.28125 L 1.8125 -1.90625 L 1.765625 -1.90625 C 1.691406 -1.976562 1.609375 -2.035156 1.515625 -2.078125 C 1.429688 -2.117188 1.332031 -2.140625 1.21875 -2.140625 C 0.957031 -2.140625 0.828125 -2.054688 0.828125 -1.890625 C 0.828125 -1.828125 0.851562 -1.773438 0.90625 -1.734375 C 0.957031 -1.691406 1.039062 -1.65625 1.15625 -1.625 L 1.484375 -1.5625 C 1.742188 -1.5 1.929688 -1.40625 2.046875 -1.28125 C 2.171875 -1.15625 2.234375 -0.988281 2.234375 -0.78125 C 2.234375 -0.613281 2.191406 -0.46875 2.109375 -0.34375 C 2.035156 -0.21875 1.921875 -0.117188 1.765625 -0.046875 C 1.609375 0.015625 1.425781 0.046875 1.21875 0.046875 Z M 1.21875 0.046875 "/></g></g><g transform="translate(10.907056, 28.850416)"><g><path d="M 1.21875 0.046875 C 1.039062 0.046875 0.875 0.0234375 0.71875 -0.015625 C 0.570312 -0.0546875 0.445312 -0.113281 0.34375 -0.1875 C 0.238281 -0.257812 0.164062 -0.34375 0.125 -0.4375 L 0.484375 -0.828125 L 0.53125 -0.828125 C 0.613281 -0.710938 0.710938 -0.625 0.828125 -0.5625 C 0.953125 -0.507812 1.082031 -0.484375 1.21875 -0.484375 C 1.34375 -0.484375 1.4375 -0.503906 1.5 -0.546875 C 1.570312 -0.585938 1.609375 -0.65625 1.609375 -0.75 C 1.609375 -0.8125 1.582031 -0.863281 1.53125 -0.90625 C 1.488281 -0.945312 1.414062 -0.984375 1.3125 -1.015625 L 0.96875 -1.09375 C 0.707031 -1.15625 0.515625 -1.25 0.390625 -1.375 C 0.273438 -1.5 0.21875 -1.660156 0.21875 -1.859375 C 0.21875 -2.023438 0.257812 -2.164062 0.34375 -2.28125 C 0.425781 -2.40625 0.539062 -2.5 0.6875 -2.5625 C 0.84375 -2.625 1.019531 -2.65625 1.21875 -2.65625 C 1.457031 -2.65625 1.648438 -2.617188 1.796875 -2.546875 C 1.953125 -2.484375 2.078125 -2.394531 2.171875 -2.28125 L 1.8125 -1.90625 L 1.765625 -1.90625 C 1.691406 -1.976562 1.609375 -2.035156 1.515625 -2.078125 C 1.429688 -2.117188 1.332031 -2.140625 1.21875 -2.140625 C 0.957031 -2.140625 0.828125 -2.054688 0.828125 -1.890625 C 0.828125 -1.828125 0.851562 -1.773438 0.90625 -1.734375 C 0.957031 -1.691406 1.039062 -1.65625 1.15625 -1.625 L 1.484375 -1.5625 C 1.742188 -1.5 1.929688 -1.40625 2.046875 -1.28125 C 2.171875 -1.15625 2.234375 -0.988281 2.234375 -0.78125 C 2.234375 -0.613281 2.191406 -0.46875 2.109375 -0.34375 C 2.035156 -0.21875 1.921875 -0.117188 1.765625 -0.046875 C 1.609375 0.015625 1.425781 0.046875 1.21875 0.046875 Z M 1.21875 0.046875 "/></g></g><g transform="translate(13.307479, 28.850416)"><g><path d="M 0.703125 -2.90625 C 0.578125 -2.90625 0.476562 -2.941406 0.40625 -3.015625 C 0.332031 -3.085938 0.296875 -3.179688 0.296875 -3.296875 C 0.296875 -3.410156 0.332031 -3.5 0.40625 -3.5625 C 0.476562 -3.632812 0.578125 -3.671875 0.703125 -3.671875 C 0.773438 -3.671875 0.84375 -3.65625 0.90625 -3.625 C 0.96875 -3.59375 1.015625 -3.546875 1.046875 -3.484375 C 1.085938 -3.429688 1.109375 -3.367188 1.109375 -3.296875 C 1.109375 -3.222656 1.085938 -3.15625 1.046875 -3.09375 C 1.015625 -3.039062 0.96875 -2.992188 0.90625 -2.953125 C 0.84375 -2.921875 0.773438 -2.90625 0.703125 -2.90625 Z M 0.375 0 L 0.375 -2.59375 L 1.03125 -2.59375 L 1.03125 0 Z M 0.375 0 "/></g></g><g transform="translate(14.709496, 28.850416)"><g><path d="M 1.796875 0 L 1.015625 0 L 0.046875 -2.59375 L 0.734375 -2.59375 L 1.375 -0.75 L 1.4375 -0.75 L 2.078125 -2.59375 L 2.75 -2.59375 Z M 1.796875 0 "/></g></g><g transform="translate(17.508809, 28.850416)"><g><path d="M 2.5625 -1.15625 L 0.890625 -1.15625 C 0.910156 -0.925781 0.972656 -0.757812 1.078125 -0.65625 C 1.191406 -0.550781 1.347656 -0.5 1.546875 -0.5 C 1.691406 -0.5 1.8125 -0.523438 1.90625 -0.578125 C 2 -0.640625 2.070312 -0.726562 2.125 -0.84375 L 2.171875 -0.84375 L 2.609375 -0.5625 C 2.523438 -0.382812 2.394531 -0.238281 2.21875 -0.125 C 2.050781 -0.0078125 1.828125 0.046875 1.546875 0.046875 C 1.273438 0.046875 1.039062 0 0.84375 -0.09375 C 0.644531 -0.195312 0.492188 -0.347656 0.390625 -0.546875 C 0.285156 -0.753906 0.234375 -1.003906 0.234375 -1.296875 C 0.234375 -1.585938 0.285156 -1.832031 0.390625 -2.03125 C 0.503906 -2.238281 0.65625 -2.394531 0.84375 -2.5 C 1.039062 -2.601562 1.257812 -2.65625 1.5 -2.65625 C 1.863281 -2.65625 2.144531 -2.554688 2.34375 -2.359375 C 2.539062 -2.160156 2.640625 -1.875 2.640625 -1.5 C 2.640625 -1.363281 2.632812 -1.257812 2.625 -1.1875 Z M 2.015625 -1.578125 C 2.003906 -1.773438 1.953125 -1.914062 1.859375 -2 C 1.773438 -2.09375 1.65625 -2.140625 1.5 -2.140625 C 1.164062 -2.140625 0.96875 -1.953125 0.90625 -1.578125 Z M 2.015625 -1.578125 "/></g></g><g transform="translate(20.338807, 28.850416)"><g/></g><g transform="translate(21.478831, 28.850416)"><g><path d="M 1.125 0 L 0.453125 0 L 0.453125 -3.453125 L 1.125 -3.453125 Z M 1.125 0 "/></g></g><g transform="translate(23.06023, 28.850416)"><g><path d="M 0.375 0 L 0.375 -2.59375 L 1 -2.59375 L 1 -2.21875 L 1.046875 -2.203125 C 1.210938 -2.503906 1.476562 -2.65625 1.84375 -2.65625 C 2.144531 -2.65625 2.363281 -2.570312 2.5 -2.40625 C 2.644531 -2.238281 2.71875 -2 2.71875 -1.6875 L 2.71875 0 L 2.0625 0 L 2.0625 -1.609375 C 2.0625 -1.785156 2.023438 -1.910156 1.953125 -1.984375 C 1.878906 -2.054688 1.769531 -2.09375 1.625 -2.09375 C 1.4375 -2.09375 1.289062 -2.03125 1.1875 -1.90625 C 1.082031 -1.789062 1.03125 -1.601562 1.03125 -1.34375 L 1.03125 0 Z M 0.375 0 "/></g></g><g transform="translate(26.109735, 28.850416)"><g><path d="M 1.515625 0.046875 C 1.265625 0.046875 1.039062 -0.00390625 0.84375 -0.109375 C 0.65625 -0.210938 0.503906 -0.363281 0.390625 -0.5625 C 0.285156 -0.769531 0.234375 -1.015625 0.234375 -1.296875 C 0.234375 -1.585938 0.285156 -1.832031 0.390625 -2.03125 C 0.503906 -2.238281 0.65625 -2.394531 0.84375 -2.5 C 1.039062 -2.601562 1.257812 -2.65625 1.5 -2.65625 C 2.050781 -2.65625 2.40625 -2.453125 2.5625 -2.046875 L 2.109375 -1.734375 L 2.0625 -1.734375 C 2.007812 -1.859375 1.9375 -1.945312 1.84375 -2 C 1.757812 -2.0625 1.644531 -2.09375 1.5 -2.09375 C 1.3125 -2.09375 1.164062 -2.023438 1.0625 -1.890625 C 0.957031 -1.765625 0.90625 -1.566406 0.90625 -1.296875 C 0.90625 -1.023438 0.957031 -0.820312 1.0625 -0.6875 C 1.164062 -0.5625 1.316406 -0.5 1.515625 -0.5 C 1.660156 -0.5 1.78125 -0.535156 1.875 -0.609375 C 1.96875 -0.691406 2.039062 -0.804688 2.09375 -0.953125 L 2.140625 -0.953125 L 2.59375 -0.703125 C 2.53125 -0.484375 2.410156 -0.300781 2.234375 -0.15625 C 2.054688 -0.0195312 1.816406 0.046875 1.515625 0.046875 Z M 1.515625 0.046875 "/></g></g><g transform="translate(28.793394, 28.850416)"><g><path d="M 1.515625 0.046875 C 1.253906 0.046875 1.023438 -0.00390625 0.828125 -0.109375 C 0.640625 -0.210938 0.492188 -0.363281 0.390625 -0.5625 C 0.285156 -0.769531 0.234375 -1.015625 0.234375 -1.296875 C 0.234375 -1.585938 0.285156 -1.832031 0.390625 -2.03125 C 0.492188 -2.238281 0.640625 -2.394531 0.828125 -2.5 C 1.023438 -2.601562 1.253906 -2.65625 1.515625 -2.65625 C 1.765625 -2.65625 1.984375 -2.601562 2.171875 -2.5 C 2.367188 -2.394531 2.519531 -2.238281 2.625 -2.03125 C 2.738281 -1.832031 2.796875 -1.585938 2.796875 -1.296875 C 2.796875 -1.015625 2.738281 -0.769531 2.625 -0.5625 C 2.519531 -0.363281 2.367188 -0.210938 2.171875 -0.109375 C 1.984375 -0.00390625 1.765625 0.046875 1.515625 0.046875 Z M 1.515625 -0.5 C 1.910156 -0.5 2.109375 -0.765625 2.109375 -1.296875 C 2.109375 -1.578125 2.054688 -1.78125 1.953125 -1.90625 C 1.859375 -2.03125 1.710938 -2.09375 1.515625 -2.09375 C 1.109375 -2.09375 0.90625 -1.828125 0.90625 -1.296875 C 0.90625 -0.765625 1.109375 -0.5 1.515625 -0.5 Z M 1.515625 -0.5 "/></g></g><g transform="translate(31.819296, 28.850416)"><g><path d="M 0.375 0 L 0.375 -2.59375 L 1 -2.59375 L 1 -2.25 L 1.046875 -2.234375 C 1.128906 -2.378906 1.226562 -2.484375 1.34375 -2.546875 C 1.457031 -2.617188 1.601562 -2.65625 1.78125 -2.65625 C 1.976562 -2.65625 2.132812 -2.613281 2.25 -2.53125 C 2.375 -2.457031 2.460938 -2.34375 2.515625 -2.1875 L 2.578125 -2.1875 C 2.648438 -2.34375 2.75 -2.457031 2.875 -2.53125 C 3.007812 -2.613281 3.171875 -2.65625 3.359375 -2.65625 C 3.890625 -2.65625 4.15625 -2.351562 4.15625 -1.75 L 4.15625 0 L 3.515625 0 L 3.515625 -1.671875 C 3.515625 -1.816406 3.484375 -1.921875 3.421875 -1.984375 C 3.359375 -2.054688 3.265625 -2.09375 3.140625 -2.09375 C 2.773438 -2.09375 2.59375 -1.851562 2.59375 -1.375 L 2.59375 0 L 1.9375 0 L 1.9375 -1.671875 C 1.9375 -1.816406 1.90625 -1.921875 1.84375 -1.984375 C 1.789062 -2.054688 1.695312 -2.09375 1.5625 -2.09375 C 1.394531 -2.09375 1.265625 -2.035156 1.171875 -1.921875 C 1.078125 -1.816406 1.03125 -1.640625 1.03125 -1.390625 L 1.03125 0 Z M 0.375 0 "/></g></g><g transform="translate(36.322744, 28.850416)"><g><path d="M 2.5625 -1.15625 L 0.890625 -1.15625 C 0.910156 -0.925781 0.972656 -0.757812 1.078125 -0.65625 C 1.191406 -0.550781 1.347656 -0.5 1.546875 -0.5 C 1.691406 -0.5 1.8125 -0.523438 1.90625 -0.578125 C 2 -0.640625 2.070312 -0.726562 2.125 -0.84375 L 2.171875 -0.84375 L 2.609375 -0.5625 C 2.523438 -0.382812 2.394531 -0.238281 2.21875 -0.125 C 2.050781 -0.0078125 1.828125 0.046875 1.546875 0.046875 C 1.273438 0.046875 1.039062 0 0.84375 -0.09375 C 0.644531 -0.195312 0.492188 -0.347656 0.390625 -0.546875 C 0.285156 -0.753906 0.234375 -1.003906 0.234375 -1.296875 C 0.234375 -1.585938 0.285156 -1.832031 0.390625 -2.03125 C 0.503906 -2.238281 0.65625 -2.394531 0.84375 -2.5 C 1.039062 -2.601562 1.257812 -2.65625 1.5 -2.65625 C 1.863281 -2.65625 2.144531 -2.554688 2.34375 -2.359375 C 2.539062 -2.160156 2.640625 -1.875 2.640625 -1.5 C 2.640625 -1.363281 2.632812 -1.257812 2.625 -1.1875 Z M 2.015625 -1.578125 C 2.003906 -1.773438 1.953125 -1.914062 1.859375 -2 C 1.773438 -2.09375 1.65625 -2.140625 1.5 -2.140625 C 1.164062 -2.140625 0.96875 -1.953125 0.90625 -1.578125 Z M 2.015625 -1.578125 "/></g></g><g transform="translate(39.152742, 28.850416)"><g/></g><g transform="translate(40.292766, 28.850416)"><g><path d="M 1.640625 0 L 0.890625 0 L 0.09375 -3.453125 L 0.765625 -3.453125 L 1.296875 -1.015625 L 1.359375 -1.015625 L 1.96875 -3.453125 L 2.546875 -3.453125 L 3.1875 -1.015625 L 3.234375 -1.015625 L 3.765625 -3.453125 L 4.421875 -3.453125 L 3.640625 0 L 2.875 0 L 2.265625 -2.21875 L 2.21875 -2.21875 Z M 1.640625 0 "/></g></g><g transform="translate(44.810376, 28.850416)"><g><path d="M 0.703125 -2.90625 C 0.578125 -2.90625 0.476562 -2.941406 0.40625 -3.015625 C 0.332031 -3.085938 0.296875 -3.179688 0.296875 -3.296875 C 0.296875 -3.410156 0.332031 -3.5 0.40625 -3.5625 C 0.476562 -3.632812 0.578125 -3.671875 0.703125 -3.671875 C 0.773438 -3.671875 0.84375 -3.65625 0.90625 -3.625 C 0.96875 -3.59375 1.015625 -3.546875 1.046875 -3.484375 C 1.085938 -3.429688 1.109375 -3.367188 1.109375 -3.296875 C 1.109375 -3.222656 1.085938 -3.15625 1.046875 -3.09375 C 1.015625 -3.039062 0.96875 -2.992188 0.90625 -2.953125 C 0.84375 -2.921875 0.773438 -2.90625 0.703125 -2.90625 Z M 0.375 0 L 0.375 -2.59375 L 1.03125 -2.59375 L 1.03125 0 Z M 0.375 0 "/></g></g><g transform="translate(46.212393, 28.850416)"><g><path d="M 1.796875 -0.625 L 1.96875 -0.140625 C 1.894531 -0.078125 1.800781 -0.03125 1.6875 0 C 1.582031 0.03125 1.460938 0.046875 1.328125 0.046875 C 1.046875 0.046875 0.832031 -0.0234375 0.6875 -0.171875 C 0.539062 -0.328125 0.46875 -0.550781 0.46875 -0.84375 L 0.46875 -2.078125 L 0.078125 -2.078125 L 0.078125 -2.609375 L 0.46875 -2.609375 L 0.46875 -3.109375 L 1.125 -3.21875 L 1.125 -2.609375 L 1.859375 -2.609375 L 1.859375 -2.078125 L 1.125 -2.078125 L 1.125 -0.890625 C 1.125 -0.765625 1.148438 -0.671875 1.203125 -0.609375 C 1.253906 -0.554688 1.332031 -0.53125 1.4375 -0.53125 C 1.550781 -0.53125 1.65625 -0.5625 1.75 -0.625 Z M 1.796875 -0.625 "/></g></g><g transform="translate(48.235168, 28.850416)"><g><path d="M 0.375 0 L 0.375 -3.640625 L 1.03125 -3.640625 L 1.03125 -2.265625 L 1.078125 -2.25 C 1.160156 -2.375 1.265625 -2.472656 1.390625 -2.546875 C 1.515625 -2.617188 1.664062 -2.65625 1.84375 -2.65625 C 2.425781 -2.65625 2.71875 -2.328125 2.71875 -1.671875 L 2.71875 0 L 2.0625 0 L 2.0625 -1.59375 C 2.0625 -1.769531 2.023438 -1.894531 1.953125 -1.96875 C 1.878906 -2.050781 1.769531 -2.09375 1.625 -2.09375 C 1.4375 -2.09375 1.289062 -2.03125 1.1875 -1.90625 C 1.082031 -1.789062 1.03125 -1.601562 1.03125 -1.34375 L 1.03125 0 Z M 0.375 0 "/></g></g><g transform="translate(51.284673, 28.850416)"><g><path d="M 1.515625 0.046875 C 1.253906 0.046875 1.023438 -0.00390625 0.828125 -0.109375 C 0.640625 -0.210938 0.492188 -0.363281 0.390625 -0.5625 C 0.285156 -0.769531 0.234375 -1.015625 0.234375 -1.296875 C 0.234375 -1.585938 0.285156 -1.832031 0.390625 -2.03125 C 0.492188 -2.238281 0.640625 -2.394531 0.828125 -2.5 C 1.023438 -2.601562 1.253906 -2.65625 1.515625 -2.65625 C 1.765625 -2.65625 1.984375 -2.601562 2.171875 -2.5 C 2.367188 -2.394531 2.519531 -2.238281 2.625 -2.03125 C 2.738281 -1.832031 2.796875 -1.585938 2.796875 -1.296875 C 2.796875 -1.015625 2.738281 -0.769531 2.625 -0.5625 C 2.519531 -0.363281 2.367188 -0.210938 2.171875 -0.109375 C 1.984375 -0.00390625 1.765625 0.046875 1.515625 0.046875 Z M 1.515625 -0.5 C 1.910156 -0.5 2.109375 -0.765625 2.109375 -1.296875 C 2.109375 -1.578125 2.054688 -1.78125 1.953125 -1.90625 C 1.859375 -2.03125 1.710938 -2.09375 1.515625 -2.09375 C 1.109375 -2.09375 0.90625 -1.828125 0.90625 -1.296875 C 0.90625 -0.765625 1.109375 -0.5 1.515625 -0.5 Z M 1.515625 -0.5 "/></g></g><g transform="translate(54.310575, 28.850416)"><g><path d="M 1.1875 0.046875 C 0.894531 0.046875 0.675781 -0.03125 0.53125 -0.1875 C 0.394531 -0.34375 0.328125 -0.570312 0.328125 -0.875 L 0.328125 -2.59375 L 0.984375 -2.59375 L 0.984375 -0.953125 C 0.984375 -0.796875 1.015625 -0.679688 1.078125 -0.609375 C 1.148438 -0.535156 1.257812 -0.5 1.40625 -0.5 C 1.582031 -0.5 1.722656 -0.554688 1.828125 -0.671875 C 1.929688 -0.796875 1.984375 -0.984375 1.984375 -1.234375 L 1.984375 -2.59375 L 2.640625 -2.59375 L 2.640625 0 L 2 0 L 2 -0.375 L 1.953125 -0.390625 C 1.867188 -0.242188 1.765625 -0.132812 1.640625 -0.0625 C 1.523438 0.0078125 1.375 0.046875 1.1875 0.046875 Z M 1.1875 0.046875 "/></g></g><g transform="translate(57.322315, 28.850416)"><g><path d="M 1.796875 -0.625 L 1.96875 -0.140625 C 1.894531 -0.078125 1.800781 -0.03125 1.6875 0 C 1.582031 0.03125 1.460938 0.046875 1.328125 0.046875 C 1.046875 0.046875 0.832031 -0.0234375 0.6875 -0.171875 C 0.539062 -0.328125 0.46875 -0.550781 0.46875 -0.84375 L 0.46875 -2.078125 L 0.078125 -2.078125 L 0.078125 -2.609375 L 0.46875 -2.609375 L 0.46875 -3.109375 L 1.125 -3.21875 L 1.125 -2.609375 L 1.859375 -2.609375 L 1.859375 -2.078125 L 1.125 -2.078125 L 1.125 -0.890625 C 1.125 -0.765625 1.148438 -0.671875 1.203125 -0.609375 C 1.253906 -0.554688 1.332031 -0.53125 1.4375 -0.53125 C 1.550781 -0.53125 1.65625 -0.5625 1.75 -0.625 Z M 1.796875 -0.625 "/></g></g><g transform="translate(59.345091, 28.850416)"><g/></g><g transform="translate(60.485115, 28.850416)"><g><path d="M 1.125 -3.453125 L 1.125 -0.578125 L 2.671875 -0.578125 L 2.671875 0 L 0.453125 0 L 0.453125 -3.453125 Z M 1.125 -3.453125 "/></g></g><g transform="translate(63.279707, 28.850416)"><g><path d="M 0.703125 -2.90625 C 0.578125 -2.90625 0.476562 -2.941406 0.40625 -3.015625 C 0.332031 -3.085938 0.296875 -3.179688 0.296875 -3.296875 C 0.296875 -3.410156 0.332031 -3.5 0.40625 -3.5625 C 0.476562 -3.632812 0.578125 -3.671875 0.703125 -3.671875 C 0.773438 -3.671875 0.84375 -3.65625 0.90625 -3.625 C 0.96875 -3.59375 1.015625 -3.546875 1.046875 -3.484375 C 1.085938 -3.429688 1.109375 -3.367188 1.109375 -3.296875 C 1.109375 -3.222656 1.085938 -3.15625 1.046875 -3.09375 C 1.015625 -3.039062 0.96875 -2.992188 0.90625 -2.953125 C 0.84375 -2.921875 0.773438 -2.90625 0.703125 -2.90625 Z M 0.375 0 L 0.375 -2.59375 L 1.03125 -2.59375 L 1.03125 0 Z M 0.375 0 "/></g></g><g transform="translate(64.681724, 28.850416)"><g><path d="M 0.375 0 L 0.375 -2.59375 L 1 -2.59375 L 1 -2.25 L 1.046875 -2.234375 C 1.128906 -2.378906 1.226562 -2.484375 1.34375 -2.546875 C 1.457031 -2.617188 1.601562 -2.65625 1.78125 -2.65625 C 1.976562 -2.65625 2.132812 -2.613281 2.25 -2.53125 C 2.375 -2.457031 2.460938 -2.34375 2.515625 -2.1875 L 2.578125 -2.1875 C 2.648438 -2.34375 2.75 -2.457031 2.875 -2.53125 C 3.007812 -2.613281 3.171875 -2.65625 3.359375 -2.65625 C 3.890625 -2.65625 4.15625 -2.351562 4.15625 -1.75 L 4.15625 0 L 3.515625 0 L 3.515625 -1.671875 C 3.515625 -1.816406 3.484375 -1.921875 3.421875 -1.984375 C 3.359375 -2.054688 3.265625 -2.09375 3.140625 -2.09375 C 2.773438 -2.09375 2.59375 -1.851562 2.59375 -1.375 L 2.59375 0 L 1.9375 0 L 1.9375 -1.671875 C 1.9375 -1.816406 1.90625 -1.921875 1.84375 -1.984375 C 1.789062 -2.054688 1.695312 -2.09375 1.5625 -2.09375 C 1.394531 -2.09375 1.265625 -2.035156 1.171875 -1.921875 C 1.078125 -1.816406 1.03125 -1.640625 1.03125 -1.390625 L 1.03125 0 Z M 0.375 0 "/></g></g><g transform="translate(69.185173, 28.850416)"><g><path d="M 0.703125 -2.90625 C 0.578125 -2.90625 0.476562 -2.941406 0.40625 -3.015625 C 0.332031 -3.085938 0.296875 -3.179688 0.296875 -3.296875 C 0.296875 -3.410156 0.332031 -3.5 0.40625 -3.5625 C 0.476562 -3.632812 0.578125 -3.671875 0.703125 -3.671875 C 0.773438 -3.671875 0.84375 -3.65625 0.90625 -3.625 C 0.96875 -3.59375 1.015625 -3.546875 1.046875 -3.484375 C 1.085938 -3.429688 1.109375 -3.367188 1.109375 -3.296875 C 1.109375 -3.222656 1.085938 -3.15625 1.046875 -3.09375 C 1.015625 -3.039062 0.96875 -2.992188 0.90625 -2.953125 C 0.84375 -2.921875 0.773438 -2.90625 0.703125 -2.90625 Z M 0.375 0 L 0.375 -2.59375 L 1.03125 -2.59375 L 1.03125 0 Z M 0.375 0 "/></g></g><g transform="translate(70.58719, 28.850416)"><g><path d="M 1.796875 -0.625 L 1.96875 -0.140625 C 1.894531 -0.078125 1.800781 -0.03125 1.6875 0 C 1.582031 0.03125 1.460938 0.046875 1.328125 0.046875 C 1.046875 0.046875 0.832031 -0.0234375 0.6875 -0.171875 C 0.539062 -0.328125 0.46875 -0.550781 0.46875 -0.84375 L 0.46875 -2.078125 L 0.078125 -2.078125 L 0.078125 -2.609375 L 0.46875 -2.609375 L 0.46875 -3.109375 L 1.125 -3.21875 L 1.125 -2.609375 L 1.859375 -2.609375 L 1.859375 -2.078125 L 1.125 -2.078125 L 1.125 -0.890625 C 1.125 -0.765625 1.148438 -0.671875 1.203125 -0.609375 C 1.253906 -0.554688 1.332031 -0.53125 1.4375 -0.53125 C 1.550781 -0.53125 1.65625 -0.5625 1.75 -0.625 Z M 1.796875 -0.625 "/></g></g></g><g fill="#007bff" fill-opacity="1"><g transform="translate(2.75577, 21.62486)"><g><path d="M 1.125 0 L 1.125 -8.625 L 4.796875 -8.625 C 5.328125 -8.625 5.773438 -8.539062 6.140625 -8.375 C 6.515625 -8.207031 6.796875 -7.96875 6.984375 -7.65625 C 7.171875 -7.34375 7.265625 -6.976562 7.265625 -6.5625 C 7.265625 -6.175781 7.171875 -5.835938 6.984375 -5.546875 C 6.804688 -5.265625 6.539062 -5.035156 6.1875 -4.859375 L 6.1875 -4.734375 C 6.726562 -4.585938 7.144531 -4.328125 7.4375 -3.953125 C 7.738281 -3.578125 7.890625 -3.117188 7.890625 -2.578125 C 7.890625 -1.753906 7.640625 -1.117188 7.140625 -0.671875 C 6.648438 -0.222656 5.914062 0 4.9375 0 Z M 4.453125 -5.1875 C 5.242188 -5.1875 5.640625 -5.539062 5.640625 -6.25 C 5.640625 -6.625 5.539062 -6.898438 5.34375 -7.078125 C 5.144531 -7.253906 4.847656 -7.34375 4.453125 -7.34375 L 2.828125 -7.34375 L 2.828125 -5.1875 Z M 4.765625 -1.34375 C 5.703125 -1.34375 6.171875 -1.769531 6.171875 -2.625 C 6.171875 -3.488281 5.703125 -3.921875 4.765625 -3.921875 L 2.828125 -3.921875 L 2.828125 -1.34375 Z M 4.765625 -1.34375 "/></g></g></g><g fill="#007bff" fill-opacity="1"><g transform="translate(11.193024, 21.62486)"><g><path d="M 1.75 -7.28125 C 1.457031 -7.28125 1.21875 -7.367188 1.03125 -7.546875 C 0.84375 -7.722656 0.75 -7.957031 0.75 -8.25 C 0.75 -8.519531 0.84375 -8.742188 1.03125 -8.921875 C 1.21875 -9.109375 1.457031 -9.203125 1.75 -9.203125 C 1.945312 -9.203125 2.117188 -9.160156 2.265625 -9.078125 C 2.421875 -8.992188 2.539062 -8.878906 2.625 -8.734375 C 2.71875 -8.585938 2.765625 -8.425781 2.765625 -8.25 C 2.765625 -8.0625 2.71875 -7.894531 2.625 -7.75 C 2.539062 -7.601562 2.421875 -7.488281 2.265625 -7.40625 C 2.117188 -7.320312 1.945312 -7.28125 1.75 -7.28125 Z M 0.9375 0 L 0.9375 -6.5 L 2.578125 -6.5 L 2.578125 0 Z M 0.9375 0 "/></g></g></g><g fill="#007bff" fill-opacity="1"><g transform="translate(14.697729, 21.62486)"><g><path d="M 2.703125 0.125 C 2.117188 0.125 1.671875 -0.03125 1.359375 -0.34375 C 1.046875 -0.664062 0.890625 -1.148438 0.890625 -1.796875 L 0.890625 -9.125 L 2.53125 -9.125 L 2.53125 -1.859375 C 2.53125 -1.460938 2.695312 -1.265625 3.03125 -1.265625 C 3.125 -1.265625 3.222656 -1.28125 3.328125 -1.3125 L 3.40625 -1.28125 L 3.5625 -0.03125 C 3.46875 0.0195312 3.34375 0.0546875 3.1875 0.078125 C 3.039062 0.109375 2.878906 0.125 2.703125 0.125 Z M 2.703125 0.125 "/></g></g></g><g fill="#007bff" fill-opacity="1"><g transform="translate(18.438442, 21.62486)"><g><path d="M 2.703125 0.125 C 2.117188 0.125 1.671875 -0.03125 1.359375 -0.34375 C 1.046875 -0.664062 0.890625 -1.148438 0.890625 -1.796875 L 0.890625 -9.125 L 2.53125 -9.125 L 2.53125 -1.859375 C 2.53125 -1.460938 2.695312 -1.265625 3.03125 -1.265625 C 3.125 -1.265625 3.222656 -1.28125 3.328125 -1.3125 L 3.40625 -1.28125 L 3.5625 -0.03125 C 3.46875 0.0195312 3.34375 0.0546875 3.1875 0.078125 C 3.039062 0.109375 2.878906 0.125 2.703125 0.125 Z M 2.703125 0.125 "/></g></g></g><g fill="#007bff" fill-opacity="1"><g transform="translate(22.179154, 21.62486)"><g><path d="M 3.046875 0.125 C 2.597656 0.125 2.1875 0.0703125 1.8125 -0.03125 C 1.445312 -0.132812 1.132812 -0.273438 0.875 -0.453125 C 0.613281 -0.640625 0.421875 -0.851562 0.296875 -1.09375 L 1.203125 -2.0625 L 1.328125 -2.0625 C 1.546875 -1.78125 1.800781 -1.566406 2.09375 -1.421875 C 2.382812 -1.273438 2.707031 -1.203125 3.0625 -1.203125 C 3.375 -1.203125 3.609375 -1.257812 3.765625 -1.375 C 3.929688 -1.488281 4.015625 -1.648438 4.015625 -1.859375 C 4.015625 -2.023438 3.957031 -2.160156 3.84375 -2.265625 C 3.726562 -2.378906 3.539062 -2.46875 3.28125 -2.53125 L 2.421875 -2.75 C 1.773438 -2.894531 1.300781 -3.125 1 -3.4375 C 0.707031 -3.757812 0.5625 -4.164062 0.5625 -4.65625 C 0.5625 -5.0625 0.660156 -5.410156 0.859375 -5.703125 C 1.066406 -6.003906 1.359375 -6.234375 1.734375 -6.390625 C 2.117188 -6.546875 2.5625 -6.625 3.0625 -6.625 C 3.644531 -6.625 4.128906 -6.539062 4.515625 -6.375 C 4.898438 -6.207031 5.195312 -5.984375 5.40625 -5.703125 L 4.546875 -4.75 L 4.421875 -4.75 C 4.242188 -4.957031 4.039062 -5.109375 3.8125 -5.203125 C 3.582031 -5.296875 3.332031 -5.34375 3.0625 -5.34375 C 2.414062 -5.34375 2.09375 -5.140625 2.09375 -4.734375 C 2.09375 -4.566406 2.148438 -4.429688 2.265625 -4.328125 C 2.390625 -4.222656 2.601562 -4.132812 2.90625 -4.0625 L 3.703125 -3.890625 C 4.359375 -3.753906 4.835938 -3.53125 5.140625 -3.21875 C 5.453125 -2.90625 5.609375 -2.484375 5.609375 -1.953125 C 5.609375 -1.535156 5.503906 -1.171875 5.296875 -0.859375 C 5.097656 -0.546875 4.804688 -0.300781 4.421875 -0.125 C 4.035156 0.0390625 3.578125 0.125 3.046875 0.125 Z M 3.046875 0.125 "/></g></g></g><g fill="#007bff" fill-opacity="1"><g transform="translate(28.179637, 21.62486)"><g><path d="M 4.453125 -8.625 C 5.066406 -8.625 5.59375 -8.507812 6.03125 -8.28125 C 6.46875 -8.050781 6.796875 -7.734375 7.015625 -7.328125 C 7.242188 -6.921875 7.359375 -6.453125 7.359375 -5.921875 C 7.359375 -5.378906 7.242188 -4.90625 7.015625 -4.5 C 6.796875 -4.09375 6.46875 -3.773438 6.03125 -3.546875 C 5.59375 -3.328125 5.066406 -3.21875 4.453125 -3.21875 L 2.828125 -3.21875 L 2.828125 0 L 1.125 0 L 1.125 -8.625 Z M 4.234375 -4.5625 C 5.179688 -4.5625 5.65625 -5.015625 5.65625 -5.921875 C 5.65625 -6.816406 5.179688 -7.265625 4.234375 -7.265625 L 2.828125 -7.265625 L 2.828125 -4.5625 Z M 4.234375 -4.5625 "/></g></g></g><g fill="#007bff" fill-opacity="1"><g transform="translate(36.062274, 21.62486)"><g><path d="M 2.53125 0.125 C 2.113281 0.125 1.75 0.046875 1.4375 -0.109375 C 1.132812 -0.265625 0.898438 -0.488281 0.734375 -0.78125 C 0.578125 -1.082031 0.5 -1.441406 0.5 -1.859375 C 0.5 -2.242188 0.578125 -2.566406 0.734375 -2.828125 C 0.898438 -3.085938 1.15625 -3.300781 1.5 -3.46875 C 1.851562 -3.632812 2.304688 -3.757812 2.859375 -3.84375 C 3.253906 -3.914062 3.550781 -3.988281 3.75 -4.0625 C 3.957031 -4.132812 4.09375 -4.21875 4.15625 -4.3125 C 4.226562 -4.40625 4.265625 -4.523438 4.265625 -4.671875 C 4.265625 -4.878906 4.191406 -5.035156 4.046875 -5.140625 C 3.898438 -5.253906 3.660156 -5.3125 3.328125 -5.3125 C 2.960938 -5.3125 2.613281 -5.226562 2.28125 -5.0625 C 1.957031 -4.90625 1.675781 -4.695312 1.4375 -4.4375 L 1.328125 -4.4375 L 0.640625 -5.46875 C 0.972656 -5.832031 1.375 -6.113281 1.84375 -6.3125 C 2.320312 -6.519531 2.84375 -6.625 3.40625 -6.625 C 4.269531 -6.625 4.894531 -6.441406 5.28125 -6.078125 C 5.664062 -5.710938 5.859375 -5.191406 5.859375 -4.515625 L 5.859375 -1.703125 C 5.859375 -1.410156 5.984375 -1.265625 6.234375 -1.265625 C 6.335938 -1.265625 6.4375 -1.28125 6.53125 -1.3125 L 6.609375 -1.296875 L 6.734375 -0.15625 C 6.640625 -0.09375 6.507812 -0.0390625 6.34375 0 C 6.1875 0.03125 6.015625 0.046875 5.828125 0.046875 C 5.429688 0.046875 5.125 -0.0234375 4.90625 -0.171875 C 4.6875 -0.328125 4.53125 -0.5625 4.4375 -0.875 L 4.3125 -0.890625 C 4 -0.210938 3.40625 0.125 2.53125 0.125 Z M 3.0625 -1.09375 C 3.4375 -1.09375 3.734375 -1.21875 3.953125 -1.46875 C 4.179688 -1.726562 4.296875 -2.082031 4.296875 -2.53125 L 4.296875 -3.203125 L 4.1875 -3.21875 C 4.09375 -3.144531 3.960938 -3.078125 3.796875 -3.015625 C 3.640625 -2.960938 3.410156 -2.910156 3.109375 -2.859375 C 2.753906 -2.804688 2.5 -2.707031 2.34375 -2.5625 C 2.195312 -2.414062 2.125 -2.210938 2.125 -1.953125 C 2.125 -1.671875 2.203125 -1.457031 2.359375 -1.3125 C 2.523438 -1.164062 2.757812 -1.09375 3.0625 -1.09375 Z M 3.0625 -1.09375 "/></g></g></g><g fill="#007bff" fill-opacity="1"><g transform="translate(42.924182, 21.62486)"><g><path d="M 2.703125 0.125 C 2.117188 0.125 1.671875 -0.03125 1.359375 -0.34375 C 1.046875 -0.664062 0.890625 -1.148438 0.890625 -1.796875 L 0.890625 -9.125 L 2.53125 -9.125 L 2.53125 -1.859375 C 2.53125 -1.460938 2.695312 -1.265625 3.03125 -1.265625 C 3.125 -1.265625 3.222656 -1.28125 3.328125 -1.3125 L 3.40625 -1.28125 L 3.5625 -0.03125 C 3.46875 0.0195312 3.34375 0.0546875 3.1875 0.078125 C 3.039062 0.109375 2.878906 0.125 2.703125 0.125 Z M 2.703125 0.125 "/></g></g></g></svg>