<svg xmlns="http://www.w3.org/2000/svg" xmlns:xlink="http://www.w3.org/1999/xlink" width="100" zoomAndPan="magnify" viewBox="0 0 75 37.5" height="50" preserveAspectRatio="xMidYMid meet" version="1.0"><defs><g/></defs><g fill="#ffffff" fill-opacity="1"><g transform="translate(3.206191, 28.365731)"><g><path d="M 1.75 -3.453125 C 1.988281 -3.453125 2.191406 -3.40625 2.359375 -3.3125 C 2.535156 -3.226562 2.664062 -3.109375 2.75 -2.953125 C 2.84375 -2.796875 2.890625 -2.609375 2.890625 -2.390625 C 2.890625 -2.179688 2.84375 -2 2.75 -1.84375 C 2.664062 -1.6875 2.535156 -1.5625 2.359375 -1.46875 C 2.191406 -1.382812 1.988281 -1.34375 1.75 -1.34375 L 0.921875 -1.34375 L 0.921875 0 L 0.515625 0 L 0.515625 -3.453125 Z M 1.734375 -1.6875 C 2.222656 -1.6875 2.46875 -1.921875 2.46875 -2.390625 C 2.46875 -2.867188 2.222656 -3.109375 1.734375 -3.109375 L 0.921875 -3.109375 L 0.921875 -1.6875 Z M 1.734375 -1.6875 "/></g></g><g transform="translate(6.352468, 28.365731)"><g><path d="M 1.078125 0.046875 C 0.816406 0.046875 0.613281 -0.015625 0.46875 -0.140625 C 0.320312 -0.273438 0.25 -0.46875 0.25 -0.71875 C 0.25 -0.875 0.28125 -1.003906 0.34375 -1.109375 C 0.414062 -1.210938 0.515625 -1.296875 0.640625 -1.359375 C 0.773438 -1.429688 0.953125 -1.488281 1.171875 -1.53125 C 1.359375 -1.5625 1.5 -1.59375 1.59375 -1.625 C 1.695312 -1.664062 1.765625 -1.710938 1.796875 -1.765625 C 1.828125 -1.816406 1.84375 -1.878906 1.84375 -1.953125 C 1.84375 -2.066406 1.800781 -2.15625 1.71875 -2.21875 C 1.644531 -2.28125 1.519531 -2.3125 1.34375 -2.3125 C 1.175781 -2.3125 1.03125 -2.28125 0.90625 -2.21875 C 0.78125 -2.15625 0.671875 -2.054688 0.578125 -1.921875 L 0.53125 -1.921875 L 0.34375 -2.1875 C 0.445312 -2.332031 0.582031 -2.445312 0.75 -2.53125 C 0.925781 -2.613281 1.125 -2.65625 1.34375 -2.65625 C 1.644531 -2.65625 1.867188 -2.585938 2.015625 -2.453125 C 2.160156 -2.316406 2.234375 -2.128906 2.234375 -1.890625 L 2.234375 -0.515625 C 2.234375 -0.367188 2.296875 -0.296875 2.421875 -0.296875 C 2.460938 -0.296875 2.5 -0.300781 2.53125 -0.3125 L 2.5625 -0.3125 L 2.609375 -0.046875 C 2.585938 -0.0234375 2.550781 -0.0078125 2.5 0 C 2.457031 0.0078125 2.410156 0.015625 2.359375 0.015625 C 2.210938 0.015625 2.101562 -0.015625 2.03125 -0.078125 C 1.957031 -0.140625 1.910156 -0.234375 1.890625 -0.359375 L 1.84375 -0.359375 C 1.769531 -0.222656 1.671875 -0.117188 1.546875 -0.046875 C 1.421875 0.015625 1.265625 0.046875 1.078125 0.046875 Z M 1.15625 -0.25 C 1.300781 -0.25 1.425781 -0.28125 1.53125 -0.34375 C 1.632812 -0.414062 1.710938 -0.515625 1.765625 -0.640625 C 1.828125 -0.765625 1.859375 -0.90625 1.859375 -1.0625 L 1.859375 -1.390625 L 1.8125 -1.390625 C 1.757812 -1.359375 1.691406 -1.328125 1.609375 -1.296875 C 1.523438 -1.265625 1.40625 -1.238281 1.25 -1.21875 C 1.101562 -1.195312 0.984375 -1.164062 0.890625 -1.125 C 0.804688 -1.082031 0.742188 -1.03125 0.703125 -0.96875 C 0.671875 -0.90625 0.65625 -0.820312 0.65625 -0.71875 C 0.65625 -0.570312 0.695312 -0.457031 0.78125 -0.375 C 0.875 -0.289062 1 -0.25 1.15625 -0.25 Z M 1.15625 -0.25 "/></g></g><g transform="translate(9.045568, 28.365731)"><g><path d="M 1.1875 0.046875 C 1.019531 0.046875 0.863281 0.0234375 0.71875 -0.015625 C 0.582031 -0.0546875 0.46875 -0.113281 0.375 -0.1875 C 0.28125 -0.269531 0.210938 -0.359375 0.171875 -0.453125 L 0.40625 -0.6875 L 0.453125 -0.6875 C 0.535156 -0.550781 0.632812 -0.453125 0.75 -0.390625 C 0.875 -0.328125 1.019531 -0.296875 1.1875 -0.296875 C 1.375 -0.296875 1.515625 -0.332031 1.609375 -0.40625 C 1.710938 -0.476562 1.765625 -0.582031 1.765625 -0.71875 C 1.765625 -0.820312 1.734375 -0.90625 1.671875 -0.96875 C 1.617188 -1.039062 1.523438 -1.09375 1.390625 -1.125 L 0.953125 -1.234375 C 0.710938 -1.285156 0.539062 -1.375 0.4375 -1.5 C 0.332031 -1.625 0.28125 -1.773438 0.28125 -1.953125 C 0.28125 -2.097656 0.316406 -2.222656 0.390625 -2.328125 C 0.460938 -2.429688 0.566406 -2.507812 0.703125 -2.5625 C 0.835938 -2.625 1 -2.65625 1.1875 -2.65625 C 1.425781 -2.65625 1.613281 -2.617188 1.75 -2.546875 C 1.882812 -2.484375 1.988281 -2.390625 2.0625 -2.265625 L 1.84375 -2.0625 L 1.796875 -2.0625 C 1.710938 -2.15625 1.625 -2.222656 1.53125 -2.265625 C 1.4375 -2.304688 1.320312 -2.328125 1.1875 -2.328125 C 1.007812 -2.328125 0.875 -2.296875 0.78125 -2.234375 C 0.695312 -2.171875 0.65625 -2.082031 0.65625 -1.96875 C 0.65625 -1.863281 0.6875 -1.78125 0.75 -1.71875 C 0.8125 -1.65625 0.921875 -1.601562 1.078125 -1.5625 L 1.515625 -1.453125 C 1.742188 -1.398438 1.90625 -1.3125 2 -1.1875 C 2.101562 -1.0625 2.15625 -0.90625 2.15625 -0.71875 C 2.15625 -0.570312 2.117188 -0.4375 2.046875 -0.3125 C 1.972656 -0.195312 1.863281 -0.109375 1.71875 -0.046875 C 1.570312 0.015625 1.394531 0.046875 1.1875 0.046875 Z M 1.1875 0.046875 "/></g></g><g transform="translate(11.453072, 28.365731)"><g><path d="M 1.1875 0.046875 C 1.019531 0.046875 0.863281 0.0234375 0.71875 -0.015625 C 0.582031 -0.0546875 0.46875 -0.113281 0.375 -0.1875 C 0.28125 -0.269531 0.210938 -0.359375 0.171875 -0.453125 L 0.40625 -0.6875 L 0.453125 -0.6875 C 0.535156 -0.550781 0.632812 -0.453125 0.75 -0.390625 C 0.875 -0.328125 1.019531 -0.296875 1.1875 -0.296875 C 1.375 -0.296875 1.515625 -0.332031 1.609375 -0.40625 C 1.710938 -0.476562 1.765625 -0.582031 1.765625 -0.71875 C 1.765625 -0.820312 1.734375 -0.90625 1.671875 -0.96875 C 1.617188 -1.039062 1.523438 -1.09375 1.390625 -1.125 L 0.953125 -1.234375 C 0.710938 -1.285156 0.539062 -1.375 0.4375 -1.5 C 0.332031 -1.625 0.28125 -1.773438 0.28125 -1.953125 C 0.28125 -2.097656 0.316406 -2.222656 0.390625 -2.328125 C 0.460938 -2.429688 0.566406 -2.507812 0.703125 -2.5625 C 0.835938 -2.625 1 -2.65625 1.1875 -2.65625 C 1.425781 -2.65625 1.613281 -2.617188 1.75 -2.546875 C 1.882812 -2.484375 1.988281 -2.390625 2.0625 -2.265625 L 1.84375 -2.0625 L 1.796875 -2.0625 C 1.710938 -2.15625 1.625 -2.222656 1.53125 -2.265625 C 1.4375 -2.304688 1.320312 -2.328125 1.1875 -2.328125 C 1.007812 -2.328125 0.875 -2.296875 0.78125 -2.234375 C 0.695312 -2.171875 0.65625 -2.082031 0.65625 -1.96875 C 0.65625 -1.863281 0.6875 -1.78125 0.75 -1.71875 C 0.8125 -1.65625 0.921875 -1.601562 1.078125 -1.5625 L 1.515625 -1.453125 C 1.742188 -1.398438 1.90625 -1.3125 2 -1.1875 C 2.101562 -1.0625 2.15625 -0.90625 2.15625 -0.71875 C 2.15625 -0.570312 2.117188 -0.4375 2.046875 -0.3125 C 1.972656 -0.195312 1.863281 -0.109375 1.71875 -0.046875 C 1.570312 0.015625 1.394531 0.046875 1.1875 0.046875 Z M 1.1875 0.046875 "/></g></g><g transform="translate(13.860576, 28.365731)"><g><path d="M 0.640625 -3.109375 C 0.554688 -3.109375 0.488281 -3.128906 0.4375 -3.171875 C 0.394531 -3.222656 0.375 -3.289062 0.375 -3.375 C 0.375 -3.445312 0.394531 -3.507812 0.4375 -3.5625 C 0.488281 -3.613281 0.554688 -3.640625 0.640625 -3.640625 C 0.722656 -3.640625 0.789062 -3.613281 0.84375 -3.5625 C 0.894531 -3.507812 0.921875 -3.445312 0.921875 -3.375 C 0.921875 -3.289062 0.894531 -3.222656 0.84375 -3.171875 C 0.789062 -3.128906 0.722656 -3.109375 0.640625 -3.109375 Z M 0.453125 0 L 0.453125 -2.59375 L 0.84375 -2.59375 L 0.84375 0 Z M 0.453125 0 "/></g></g><g transform="translate(15.151659, 28.365731)"><g><path d="M 1.640625 0 L 1.125 0 L 0.125 -2.59375 L 0.546875 -2.59375 L 1.359375 -0.4375 L 1.421875 -0.4375 L 2.21875 -2.59375 L 2.625 -2.59375 Z M 1.640625 0 "/></g></g><g transform="translate(17.910847, 28.365731)"><g><path d="M 2.484375 -1.21875 L 0.6875 -1.21875 C 0.695312 -0.894531 0.769531 -0.660156 0.90625 -0.515625 C 1.050781 -0.367188 1.25 -0.296875 1.5 -0.296875 C 1.6875 -0.296875 1.832031 -0.328125 1.9375 -0.390625 C 2.050781 -0.460938 2.144531 -0.566406 2.21875 -0.703125 L 2.265625 -0.703125 L 2.515625 -0.5625 C 2.429688 -0.375 2.304688 -0.222656 2.140625 -0.109375 C 1.984375 -0.00390625 1.769531 0.046875 1.5 0.046875 C 1.25 0.046875 1.03125 0 0.84375 -0.09375 C 0.664062 -0.195312 0.523438 -0.347656 0.421875 -0.546875 C 0.328125 -0.742188 0.28125 -0.992188 0.28125 -1.296875 C 0.28125 -1.585938 0.332031 -1.832031 0.4375 -2.03125 C 0.539062 -2.238281 0.679688 -2.394531 0.859375 -2.5 C 1.035156 -2.601562 1.238281 -2.65625 1.46875 -2.65625 C 1.800781 -2.65625 2.0625 -2.5625 2.25 -2.375 C 2.4375 -2.1875 2.53125 -1.90625 2.53125 -1.53125 C 2.53125 -1.382812 2.53125 -1.285156 2.53125 -1.234375 Z M 2.15625 -1.53125 C 2.144531 -1.8125 2.082031 -2.015625 1.96875 -2.140625 C 1.851562 -2.265625 1.6875 -2.328125 1.46875 -2.328125 C 1.238281 -2.328125 1.0625 -2.257812 0.9375 -2.125 C 0.8125 -2 0.734375 -1.800781 0.703125 -1.53125 Z M 2.15625 -1.53125 "/></g></g><g transform="translate(20.686557, 28.365731)"><g/></g><g transform="translate(21.871427, 28.365731)"><g><path d="M 0.921875 0 L 0.515625 0 L 0.515625 -3.453125 L 0.921875 -3.453125 Z M 0.921875 0 "/></g></g><g transform="translate(23.32301, 28.365731)"><g><path d="M 0.453125 0 L 0.453125 -2.59375 L 0.8125 -2.59375 L 0.8125 -2.1875 L 0.875 -2.1875 C 0.957031 -2.332031 1.066406 -2.445312 1.203125 -2.53125 C 1.335938 -2.613281 1.5 -2.65625 1.6875 -2.65625 C 2 -2.65625 2.222656 -2.570312 2.359375 -2.40625 C 2.503906 -2.25 2.578125 -2.003906 2.578125 -1.671875 L 2.578125 0 L 2.203125 0 L 2.203125 -1.671875 C 2.203125 -1.828125 2.179688 -1.953125 2.140625 -2.046875 C 2.097656 -2.140625 2.035156 -2.207031 1.953125 -2.25 C 1.867188 -2.289062 1.757812 -2.3125 1.625 -2.3125 C 1.382812 -2.3125 1.191406 -2.234375 1.046875 -2.078125 C 0.910156 -1.921875 0.84375 -1.671875 0.84375 -1.328125 L 0.84375 0 Z M 0.453125 0 "/></g></g><g transform="translate(26.320589, 28.365731)"><g><path d="M 1.5 0.046875 C 1.257812 0.046875 1.046875 -0.00390625 0.859375 -0.109375 C 0.679688 -0.210938 0.539062 -0.363281 0.4375 -0.5625 C 0.332031 -0.769531 0.28125 -1.015625 0.28125 -1.296875 C 0.28125 -1.578125 0.332031 -1.820312 0.4375 -2.03125 C 0.539062 -2.238281 0.679688 -2.394531 0.859375 -2.5 C 1.046875 -2.601562 1.257812 -2.65625 1.5 -2.65625 C 1.769531 -2.65625 1.984375 -2.601562 2.140625 -2.5 C 2.304688 -2.394531 2.425781 -2.253906 2.5 -2.078125 L 2.234375 -1.890625 L 2.1875 -1.890625 C 2.125 -2.035156 2.035156 -2.140625 1.921875 -2.203125 C 1.804688 -2.273438 1.664062 -2.3125 1.5 -2.3125 C 1.332031 -2.3125 1.1875 -2.269531 1.0625 -2.1875 C 0.945312 -2.113281 0.851562 -2 0.78125 -1.84375 C 0.71875 -1.695312 0.6875 -1.515625 0.6875 -1.296875 C 0.6875 -1.078125 0.71875 -0.890625 0.78125 -0.734375 C 0.851562 -0.585938 0.945312 -0.476562 1.0625 -0.40625 C 1.1875 -0.332031 1.332031 -0.296875 1.5 -0.296875 C 1.675781 -0.296875 1.820312 -0.335938 1.9375 -0.421875 C 2.0625 -0.503906 2.15625 -0.628906 2.21875 -0.796875 L 2.265625 -0.796875 L 2.515625 -0.65625 C 2.453125 -0.4375 2.332031 -0.265625 2.15625 -0.140625 C 1.988281 -0.015625 1.769531 0.046875 1.5 0.046875 Z M 1.5 0.046875 "/></g></g><g transform="translate(29.004247, 28.365731)"><g><path d="M 1.5 0.046875 C 1.25 0.046875 1.03125 -0.00390625 0.84375 -0.109375 C 0.664062 -0.210938 0.523438 -0.363281 0.421875 -0.5625 C 0.328125 -0.769531 0.28125 -1.015625 0.28125 -1.296875 C 0.28125 -1.585938 0.328125 -1.832031 0.421875 -2.03125 C 0.523438 -2.238281 0.664062 -2.394531 0.84375 -2.5 C 1.03125 -2.601562 1.25 -2.65625 1.5 -2.65625 C 1.738281 -2.65625 1.945312 -2.601562 2.125 -2.5 C 2.3125 -2.394531 2.453125 -2.238281 2.546875 -2.03125 C 2.648438 -1.832031 2.703125 -1.585938 2.703125 -1.296875 C 2.703125 -1.015625 2.648438 -0.769531 2.546875 -0.5625 C 2.453125 -0.363281 2.3125 -0.210938 2.125 -0.109375 C 1.945312 -0.00390625 1.738281 0.046875 1.5 0.046875 Z M 1.5 -0.296875 C 1.75 -0.296875 1.941406 -0.375 2.078125 -0.53125 C 2.222656 -0.695312 2.296875 -0.953125 2.296875 -1.296875 C 2.296875 -1.640625 2.222656 -1.894531 2.078125 -2.0625 C 1.941406 -2.226562 1.75 -2.3125 1.5 -2.3125 C 1.238281 -2.3125 1.035156 -2.226562 0.890625 -2.0625 C 0.753906 -1.894531 0.6875 -1.640625 0.6875 -1.296875 C 0.6875 -0.953125 0.753906 -0.695312 0.890625 -0.53125 C 1.035156 -0.375 1.238281 -0.296875 1.5 -0.296875 Z M 1.5 -0.296875 "/></g></g><g transform="translate(31.992385, 28.365731)"><g><path d="M 0.453125 0 L 0.453125 -2.59375 L 0.8125 -2.59375 L 0.8125 -2.21875 L 0.875 -2.203125 C 0.957031 -2.347656 1.0625 -2.457031 1.1875 -2.53125 C 1.3125 -2.613281 1.460938 -2.65625 1.640625 -2.65625 C 1.835938 -2.65625 1.988281 -2.613281 2.09375 -2.53125 C 2.207031 -2.457031 2.296875 -2.335938 2.359375 -2.171875 L 2.40625 -2.171875 C 2.5 -2.328125 2.609375 -2.445312 2.734375 -2.53125 C 2.867188 -2.613281 3.03125 -2.65625 3.21875 -2.65625 C 3.488281 -2.65625 3.6875 -2.582031 3.8125 -2.4375 C 3.945312 -2.289062 4.015625 -2.066406 4.015625 -1.765625 L 4.015625 0 L 3.640625 0 L 3.640625 -1.765625 C 3.640625 -1.953125 3.597656 -2.085938 3.515625 -2.171875 C 3.429688 -2.265625 3.304688 -2.3125 3.140625 -2.3125 C 2.929688 -2.3125 2.757812 -2.234375 2.625 -2.078125 C 2.488281 -1.929688 2.421875 -1.6875 2.421875 -1.34375 L 2.421875 0 L 2.046875 0 L 2.046875 -1.765625 C 2.046875 -1.953125 2.003906 -2.085938 1.921875 -2.171875 C 1.847656 -2.265625 1.722656 -2.3125 1.546875 -2.3125 C 1.335938 -2.3125 1.164062 -2.238281 1.03125 -2.09375 C 0.90625 -1.945312 0.84375 -1.710938 0.84375 -1.390625 L 0.84375 0 Z M 0.453125 0 "/></g></g><g transform="translate(36.429745, 28.365731)"><g><path d="M 2.484375 -1.21875 L 0.6875 -1.21875 C 0.695312 -0.894531 0.769531 -0.660156 0.90625 -0.515625 C 1.050781 -0.367188 1.25 -0.296875 1.5 -0.296875 C 1.6875 -0.296875 1.832031 -0.328125 1.9375 -0.390625 C 2.050781 -0.460938 2.144531 -0.566406 2.21875 -0.703125 L 2.265625 -0.703125 L 2.515625 -0.5625 C 2.429688 -0.375 2.304688 -0.222656 2.140625 -0.109375 C 1.984375 -0.00390625 1.769531 0.046875 1.5 0.046875 C 1.25 0.046875 1.03125 0 0.84375 -0.09375 C 0.664062 -0.195312 0.523438 -0.347656 0.421875 -0.546875 C 0.328125 -0.742188 0.28125 -0.992188 0.28125 -1.296875 C 0.28125 -1.585938 0.332031 -1.832031 0.4375 -2.03125 C 0.539062 -2.238281 0.679688 -2.394531 0.859375 -2.5 C 1.035156 -2.601562 1.238281 -2.65625 1.46875 -2.65625 C 1.800781 -2.65625 2.0625 -2.5625 2.25 -2.375 C 2.4375 -2.1875 2.53125 -1.90625 2.53125 -1.53125 C 2.53125 -1.382812 2.53125 -1.285156 2.53125 -1.234375 Z M 2.15625 -1.53125 C 2.144531 -1.8125 2.082031 -2.015625 1.96875 -2.140625 C 1.851562 -2.265625 1.6875 -2.328125 1.46875 -2.328125 C 1.238281 -2.328125 1.0625 -2.257812 0.9375 -2.125 C 0.8125 -2 0.734375 -1.800781 0.703125 -1.53125 Z M 2.15625 -1.53125 "/></g></g><g transform="translate(39.205455, 28.365731)"><g/></g><g transform="translate(40.390325, 28.365731)"><g><path d="M 1.5 0 L 0.96875 0 L 0.1875 -3.453125 L 0.59375 -3.453125 L 1.234375 -0.59375 L 1.296875 -0.59375 L 2.0625 -3.453125 L 2.4375 -3.453125 L 3.21875 -0.59375 L 3.28125 -0.59375 L 3.921875 -3.453125 L 4.3125 -3.453125 L 3.53125 0 L 3 0 L 2.28125 -2.609375 L 2.21875 -2.609375 Z M 1.5 0 "/></g></g><g transform="translate(44.896134, 28.365731)"><g><path d="M 0.640625 -3.109375 C 0.554688 -3.109375 0.488281 -3.128906 0.4375 -3.171875 C 0.394531 -3.222656 0.375 -3.289062 0.375 -3.375 C 0.375 -3.445312 0.394531 -3.507812 0.4375 -3.5625 C 0.488281 -3.613281 0.554688 -3.640625 0.640625 -3.640625 C 0.722656 -3.640625 0.789062 -3.613281 0.84375 -3.5625 C 0.894531 -3.507812 0.921875 -3.445312 0.921875 -3.375 C 0.921875 -3.289062 0.894531 -3.222656 0.84375 -3.171875 C 0.789062 -3.128906 0.722656 -3.109375 0.640625 -3.109375 Z M 0.453125 0 L 0.453125 -2.59375 L 0.84375 -2.59375 L 0.84375 0 Z M 0.453125 0 "/></g></g><g transform="translate(46.187217, 28.365731)"><g><path d="M 1.765625 -0.40625 L 1.875 -0.140625 C 1.820312 -0.078125 1.742188 -0.03125 1.640625 0 C 1.535156 0.03125 1.425781 0.046875 1.3125 0.046875 C 0.820312 0.046875 0.578125 -0.203125 0.578125 -0.703125 L 0.578125 -2.28125 L 0.125 -2.28125 L 0.125 -2.609375 L 0.578125 -2.609375 L 0.578125 -3.15625 L 0.953125 -3.21875 L 0.953125 -2.609375 L 1.796875 -2.609375 L 1.796875 -2.28125 L 0.953125 -2.28125 L 0.953125 -0.75 C 0.953125 -0.445312 1.082031 -0.296875 1.34375 -0.296875 C 1.488281 -0.296875 1.609375 -0.332031 1.703125 -0.40625 Z M 1.765625 -0.40625 "/></g></g><g transform="translate(48.169867, 28.365731)"><g><path d="M 0.453125 0 L 0.453125 -3.640625 L 0.84375 -3.640625 L 0.84375 -2.234375 L 0.890625 -2.21875 C 1.078125 -2.507812 1.34375 -2.65625 1.6875 -2.65625 C 2 -2.65625 2.222656 -2.570312 2.359375 -2.40625 C 2.503906 -2.25 2.578125 -2.003906 2.578125 -1.671875 L 2.578125 0 L 2.203125 0 L 2.203125 -1.671875 C 2.203125 -1.828125 2.179688 -1.953125 2.140625 -2.046875 C 2.097656 -2.140625 2.035156 -2.207031 1.953125 -2.25 C 1.867188 -2.289062 1.757812 -2.3125 1.625 -2.3125 C 1.382812 -2.3125 1.191406 -2.234375 1.046875 -2.078125 C 0.910156 -1.929688 0.84375 -1.679688 0.84375 -1.328125 L 0.84375 0 Z M 0.453125 0 "/></g></g><g transform="translate(51.167445, 28.365731)"><g><path d="M 1.5 0.046875 C 1.25 0.046875 1.03125 -0.00390625 0.84375 -0.109375 C 0.664062 -0.210938 0.523438 -0.363281 0.421875 -0.5625 C 0.328125 -0.769531 0.28125 -1.015625 0.28125 -1.296875 C 0.28125 -1.585938 0.328125 -1.832031 0.421875 -2.03125 C 0.523438 -2.238281 0.664062 -2.394531 0.84375 -2.5 C 1.03125 -2.601562 1.25 -2.65625 1.5 -2.65625 C 1.738281 -2.65625 1.945312 -2.601562 2.125 -2.5 C 2.3125 -2.394531 2.453125 -2.238281 2.546875 -2.03125 C 2.648438 -1.832031 2.703125 -1.585938 2.703125 -1.296875 C 2.703125 -1.015625 2.648438 -0.769531 2.546875 -0.5625 C 2.453125 -0.363281 2.3125 -0.210938 2.125 -0.109375 C 1.945312 -0.00390625 1.738281 0.046875 1.5 0.046875 Z M 1.5 -0.296875 C 1.75 -0.296875 1.941406 -0.375 2.078125 -0.53125 C 2.222656 -0.695312 2.296875 -0.953125 2.296875 -1.296875 C 2.296875 -1.640625 2.222656 -1.894531 2.078125 -2.0625 C 1.941406 -2.226562 1.75 -2.3125 1.5 -2.3125 C 1.238281 -2.3125 1.035156 -2.226562 0.890625 -2.0625 C 0.753906 -1.894531 0.6875 -1.640625 0.6875 -1.296875 C 0.6875 -0.953125 0.753906 -0.695312 0.890625 -0.53125 C 1.035156 -0.375 1.238281 -0.296875 1.5 -0.296875 Z M 1.5 -0.296875 "/></g></g><g transform="translate(54.155582, 28.365731)"><g><path d="M 1.28125 0.046875 C 0.988281 0.046875 0.769531 -0.03125 0.625 -0.1875 C 0.476562 -0.34375 0.40625 -0.570312 0.40625 -0.875 L 0.40625 -2.59375 L 0.796875 -2.59375 L 0.796875 -0.875 C 0.796875 -0.476562 0.984375 -0.28125 1.359375 -0.28125 C 1.585938 -0.28125 1.769531 -0.359375 1.90625 -0.515625 C 2.039062 -0.671875 2.109375 -0.921875 2.109375 -1.265625 L 2.109375 -2.59375 L 2.5 -2.59375 L 2.5 0 L 2.140625 0 L 2.140625 -0.40625 L 2.09375 -0.421875 C 2 -0.265625 1.890625 -0.144531 1.765625 -0.0625 C 1.640625 0.0078125 1.476562 0.046875 1.28125 0.046875 Z M 1.28125 0.046875 "/></g></g><g transform="translate(57.113036, 28.365731)"><g><path d="M 1.765625 -0.40625 L 1.875 -0.140625 C 1.820312 -0.078125 1.742188 -0.03125 1.640625 0 C 1.535156 0.03125 1.425781 0.046875 1.3125 0.046875 C 0.820312 0.046875 0.578125 -0.203125 0.578125 -0.703125 L 0.578125 -2.28125 L 0.125 -2.28125 L 0.125 -2.609375 L 0.578125 -2.609375 L 0.578125 -3.15625 L 0.953125 -3.21875 L 0.953125 -2.609375 L 1.796875 -2.609375 L 1.796875 -2.28125 L 0.953125 -2.28125 L 0.953125 -0.75 C 0.953125 -0.445312 1.082031 -0.296875 1.34375 -0.296875 C 1.488281 -0.296875 1.609375 -0.332031 1.703125 -0.40625 Z M 1.765625 -0.40625 "/></g></g><g transform="translate(59.095686, 28.365731)"><g/></g><g transform="translate(60.280556, 28.365731)"><g><path d="M 0.921875 -3.453125 L 0.921875 -0.328125 L 2.59375 -0.328125 L 2.59375 0 L 0.515625 0 L 0.515625 -3.453125 Z M 0.921875 -3.453125 "/></g></g><g transform="translate(63.016141, 28.365731)"><g><path d="M 0.640625 -3.109375 C 0.554688 -3.109375 0.488281 -3.128906 0.4375 -3.171875 C 0.394531 -3.222656 0.375 -3.289062 0.375 -3.375 C 0.375 -3.445312 0.394531 -3.507812 0.4375 -3.5625 C 0.488281 -3.613281 0.554688 -3.640625 0.640625 -3.640625 C 0.722656 -3.640625 0.789062 -3.613281 0.84375 -3.5625 C 0.894531 -3.507812 0.921875 -3.445312 0.921875 -3.375 C 0.921875 -3.289062 0.894531 -3.222656 0.84375 -3.171875 C 0.789062 -3.128906 0.722656 -3.109375 0.640625 -3.109375 Z M 0.453125 0 L 0.453125 -2.59375 L 0.84375 -2.59375 L 0.84375 0 Z M 0.453125 0 "/></g></g><g transform="translate(64.307224, 28.365731)"><g><path d="M 0.453125 0 L 0.453125 -2.59375 L 0.8125 -2.59375 L 0.8125 -2.21875 L 0.875 -2.203125 C 0.957031 -2.347656 1.0625 -2.457031 1.1875 -2.53125 C 1.3125 -2.613281 1.460938 -2.65625 1.640625 -2.65625 C 1.835938 -2.65625 1.988281 -2.613281 2.09375 -2.53125 C 2.207031 -2.457031 2.296875 -2.335938 2.359375 -2.171875 L 2.40625 -2.171875 C 2.5 -2.328125 2.609375 -2.445312 2.734375 -2.53125 C 2.867188 -2.613281 3.03125 -2.65625 3.21875 -2.65625 C 3.488281 -2.65625 3.6875 -2.582031 3.8125 -2.4375 C 3.945312 -2.289062 4.015625 -2.066406 4.015625 -1.765625 L 4.015625 0 L 3.640625 0 L 3.640625 -1.765625 C 3.640625 -1.953125 3.597656 -2.085938 3.515625 -2.171875 C 3.429688 -2.265625 3.304688 -2.3125 3.140625 -2.3125 C 2.929688 -2.3125 2.757812 -2.234375 2.625 -2.078125 C 2.488281 -1.929688 2.421875 -1.6875 2.421875 -1.34375 L 2.421875 0 L 2.046875 0 L 2.046875 -1.765625 C 2.046875 -1.953125 2.003906 -2.085938 1.921875 -2.171875 C 1.847656 -2.265625 1.722656 -2.3125 1.546875 -2.3125 C 1.335938 -2.3125 1.164062 -2.238281 1.03125 -2.09375 C 0.90625 -1.945312 0.84375 -1.710938 0.84375 -1.390625 L 0.84375 0 Z M 0.453125 0 "/></g></g><g transform="translate(68.744584, 28.365731)"><g><path d="M 0.640625 -3.109375 C 0.554688 -3.109375 0.488281 -3.128906 0.4375 -3.171875 C 0.394531 -3.222656 0.375 -3.289062 0.375 -3.375 C 0.375 -3.445312 0.394531 -3.507812 0.4375 -3.5625 C 0.488281 -3.613281 0.554688 -3.640625 0.640625 -3.640625 C 0.722656 -3.640625 0.789062 -3.613281 0.84375 -3.5625 C 0.894531 -3.507812 0.921875 -3.445312 0.921875 -3.375 C 0.921875 -3.289062 0.894531 -3.222656 0.84375 -3.171875 C 0.789062 -3.128906 0.722656 -3.109375 0.640625 -3.109375 Z M 0.453125 0 L 0.453125 -2.59375 L 0.84375 -2.59375 L 0.84375 0 Z M 0.453125 0 "/></g></g><g transform="translate(70.035667, 28.365731)"><g><path d="M 1.765625 -0.40625 L 1.875 -0.140625 C 1.820312 -0.078125 1.742188 -0.03125 1.640625 0 C 1.535156 0.03125 1.425781 0.046875 1.3125 0.046875 C 0.820312 0.046875 0.578125 -0.203125 0.578125 -0.703125 L 0.578125 -2.28125 L 0.125 -2.28125 L 0.125 -2.609375 L 0.578125 -2.609375 L 0.578125 -3.15625 L 0.953125 -3.21875 L 0.953125 -2.609375 L 1.796875 -2.609375 L 1.796875 -2.28125 L 0.953125 -2.28125 L 0.953125 -0.75 C 0.953125 -0.445312 1.082031 -0.296875 1.34375 -0.296875 C 1.488281 -0.296875 1.609375 -0.332031 1.703125 -0.40625 Z M 1.765625 -0.40625 "/></g></g></g><g fill="#ffffff" fill-opacity="1"><g transform="translate(2.771638, 21.291527)"><g><path d="M 1.125 0 L 1.125 -8.625 L 4.796875 -8.625 C 5.328125 -8.625 5.773438 -8.539062 6.140625 -8.375 C 6.515625 -8.207031 6.796875 -7.96875 6.984375 -7.65625 C 7.171875 -7.34375 7.265625 -6.976562 7.265625 -6.5625 C 7.265625 -6.175781 7.171875 -5.835938 6.984375 -5.546875 C 6.804688 -5.265625 6.539062 -5.035156 6.1875 -4.859375 L 6.1875 -4.734375 C 6.726562 -4.585938 7.144531 -4.328125 7.4375 -3.953125 C 7.738281 -3.578125 7.890625 -3.117188 7.890625 -2.578125 C 7.890625 -1.753906 7.640625 -1.117188 7.140625 -0.671875 C 6.648438 -0.222656 5.914062 0 4.9375 0 Z M 4.453125 -5.1875 C 5.242188 -5.1875 5.640625 -5.539062 5.640625 -6.25 C 5.640625 -6.625 5.539062 -6.898438 5.34375 -7.078125 C 5.144531 -7.253906 4.847656 -7.34375 4.453125 -7.34375 L 2.828125 -7.34375 L 2.828125 -5.1875 Z M 4.765625 -1.34375 C 5.703125 -1.34375 6.171875 -1.769531 6.171875 -2.625 C 6.171875 -3.488281 5.703125 -3.921875 4.765625 -3.921875 L 2.828125 -3.921875 L 2.828125 -1.34375 Z M 4.765625 -1.34375 "/></g></g></g><g fill="#ffffff" fill-opacity="1"><g transform="translate(11.201793, 21.291527)"><g><path d="M 1.75 -7.28125 C 1.457031 -7.28125 1.21875 -7.367188 1.03125 -7.546875 C 0.84375 -7.722656 0.75 -7.957031 0.75 -8.25 C 0.75 -8.519531 0.84375 -8.742188 1.03125 -8.921875 C 1.21875 -9.109375 1.457031 -9.203125 1.75 -9.203125 C 1.945312 -9.203125 2.117188 -9.160156 2.265625 -9.078125 C 2.421875 -8.992188 2.539062 -8.878906 2.625 -8.734375 C 2.71875 -8.585938 2.765625 -8.425781 2.765625 -8.25 C 2.765625 -8.0625 2.71875 -7.894531 2.625 -7.75 C 2.539062 -7.601562 2.421875 -7.488281 2.265625 -7.40625 C 2.117188 -7.320312 1.945312 -7.28125 1.75 -7.28125 Z M 0.9375 0 L 0.9375 -6.5 L 2.578125 -6.5 L 2.578125 0 Z M 0.9375 0 "/></g></g></g><g fill="#ffffff" fill-opacity="1"><g transform="translate(14.703549, 21.291527)"><g><path d="M 2.703125 0.125 C 2.117188 0.125 1.671875 -0.03125 1.359375 -0.34375 C 1.046875 -0.664062 0.890625 -1.148438 0.890625 -1.796875 L 0.890625 -9.125 L 2.53125 -9.125 L 2.53125 -1.859375 C 2.53125 -1.460938 2.695312 -1.265625 3.03125 -1.265625 C 3.125 -1.265625 3.222656 -1.28125 3.328125 -1.3125 L 3.40625 -1.28125 L 3.5625 -0.03125 C 3.46875 0.0195312 3.34375 0.0546875 3.1875 0.078125 C 3.039062 0.109375 2.878906 0.125 2.703125 0.125 Z M 2.703125 0.125 "/></g></g></g><g fill="#ffffff" fill-opacity="1"><g transform="translate(18.441114, 21.291527)"><g><path d="M 2.703125 0.125 C 2.117188 0.125 1.671875 -0.03125 1.359375 -0.34375 C 1.046875 -0.664062 0.890625 -1.148438 0.890625 -1.796875 L 0.890625 -9.125 L 2.53125 -9.125 L 2.53125 -1.859375 C 2.53125 -1.460938 2.695312 -1.265625 3.03125 -1.265625 C 3.125 -1.265625 3.222656 -1.28125 3.328125 -1.3125 L 3.40625 -1.28125 L 3.5625 -0.03125 C 3.46875 0.0195312 3.34375 0.0546875 3.1875 0.078125 C 3.039062 0.109375 2.878906 0.125 2.703125 0.125 Z M 2.703125 0.125 "/></g></g></g><g fill="#ffffff" fill-opacity="1"><g transform="translate(22.178679, 21.291527)"><g><path d="M 3.046875 0.125 C 2.597656 0.125 2.1875 0.0703125 1.8125 -0.03125 C 1.445312 -0.132812 1.132812 -0.273438 0.875 -0.453125 C 0.613281 -0.640625 0.421875 -0.851562 0.296875 -1.09375 L 1.203125 -2.0625 L 1.328125 -2.0625 C 1.546875 -1.78125 1.800781 -1.566406 2.09375 -1.421875 C 2.382812 -1.273438 2.707031 -1.203125 3.0625 -1.203125 C 3.375 -1.203125 3.609375 -1.257812 3.765625 -1.375 C 3.929688 -1.488281 4.015625 -1.648438 4.015625 -1.859375 C 4.015625 -2.023438 3.957031 -2.160156 3.84375 -2.265625 C 3.726562 -2.378906 3.539062 -2.46875 3.28125 -2.53125 L 2.421875 -2.75 C 1.773438 -2.894531 1.300781 -3.125 1 -3.4375 C 0.707031 -3.757812 0.5625 -4.164062 0.5625 -4.65625 C 0.5625 -5.0625 0.660156 -5.410156 0.859375 -5.703125 C 1.066406 -6.003906 1.359375 -6.234375 1.734375 -6.390625 C 2.117188 -6.546875 2.5625 -6.625 3.0625 -6.625 C 3.644531 -6.625 4.128906 -6.539062 4.515625 -6.375 C 4.898438 -6.207031 5.195312 -5.984375 5.40625 -5.703125 L 4.546875 -4.75 L 4.421875 -4.75 C 4.242188 -4.957031 4.039062 -5.109375 3.8125 -5.203125 C 3.582031 -5.296875 3.332031 -5.34375 3.0625 -5.34375 C 2.414062 -5.34375 2.09375 -5.140625 2.09375 -4.734375 C 2.09375 -4.566406 2.148438 -4.429688 2.265625 -4.328125 C 2.390625 -4.222656 2.601562 -4.132812 2.90625 -4.0625 L 3.703125 -3.890625 C 4.359375 -3.753906 4.835938 -3.53125 5.140625 -3.21875 C 5.453125 -2.90625 5.609375 -2.484375 5.609375 -1.953125 C 5.609375 -1.535156 5.503906 -1.171875 5.296875 -0.859375 C 5.097656 -0.546875 4.804688 -0.300781 4.421875 -0.125 C 4.035156 0.0390625 3.578125 0.125 3.046875 0.125 Z M 3.046875 0.125 "/></g></g></g><g fill="#ffffff" fill-opacity="1"><g transform="translate(28.174111, 21.291527)"><g><path d="M 4.453125 -8.625 C 5.066406 -8.625 5.59375 -8.507812 6.03125 -8.28125 C 6.46875 -8.050781 6.796875 -7.734375 7.015625 -7.328125 C 7.242188 -6.921875 7.359375 -6.453125 7.359375 -5.921875 C 7.359375 -5.378906 7.242188 -4.90625 7.015625 -4.5 C 6.796875 -4.09375 6.46875 -3.773438 6.03125 -3.546875 C 5.59375 -3.328125 5.066406 -3.21875 4.453125 -3.21875 L 2.828125 -3.21875 L 2.828125 0 L 1.125 0 L 1.125 -8.625 Z M 4.234375 -4.5625 C 5.179688 -4.5625 5.65625 -5.015625 5.65625 -5.921875 C 5.65625 -6.816406 5.179688 -7.265625 4.234375 -7.265625 L 2.828125 -7.265625 L 2.828125 -4.5625 Z M 4.234375 -4.5625 "/></g></g></g><g fill="#ffffff" fill-opacity="1"><g transform="translate(36.050115, 21.291527)"><g><path d="M 2.53125 0.125 C 2.113281 0.125 1.75 0.046875 1.4375 -0.109375 C 1.132812 -0.265625 0.898438 -0.488281 0.734375 -0.78125 C 0.578125 -1.082031 0.5 -1.441406 0.5 -1.859375 C 0.5 -2.242188 0.578125 -2.566406 0.734375 -2.828125 C 0.898438 -3.085938 1.15625 -3.300781 1.5 -3.46875 C 1.851562 -3.632812 2.304688 -3.757812 2.859375 -3.84375 C 3.253906 -3.914062 3.550781 -3.988281 3.75 -4.0625 C 3.957031 -4.132812 4.09375 -4.21875 4.15625 -4.3125 C 4.226562 -4.40625 4.265625 -4.523438 4.265625 -4.671875 C 4.265625 -4.878906 4.191406 -5.035156 4.046875 -5.140625 C 3.898438 -5.253906 3.660156 -5.3125 3.328125 -5.3125 C 2.960938 -5.3125 2.613281 -5.226562 2.28125 -5.0625 C 1.957031 -4.90625 1.675781 -4.695312 1.4375 -4.4375 L 1.328125 -4.4375 L 0.640625 -5.46875 C 0.972656 -5.832031 1.375 -6.113281 1.84375 -6.3125 C 2.320312 -6.519531 2.84375 -6.625 3.40625 -6.625 C 4.269531 -6.625 4.894531 -6.441406 5.28125 -6.078125 C 5.664062 -5.710938 5.859375 -5.191406 5.859375 -4.515625 L 5.859375 -1.703125 C 5.859375 -1.410156 5.984375 -1.265625 6.234375 -1.265625 C 6.335938 -1.265625 6.4375 -1.28125 6.53125 -1.3125 L 6.609375 -1.296875 L 6.734375 -0.15625 C 6.640625 -0.09375 6.507812 -0.0390625 6.34375 0 C 6.1875 0.03125 6.015625 0.046875 5.828125 0.046875 C 5.429688 0.046875 5.125 -0.0234375 4.90625 -0.171875 C 4.6875 -0.328125 4.53125 -0.5625 4.4375 -0.875 L 4.3125 -0.890625 C 4 -0.210938 3.40625 0.125 2.53125 0.125 Z M 3.0625 -1.09375 C 3.4375 -1.09375 3.734375 -1.21875 3.953125 -1.46875 C 4.179688 -1.726562 4.296875 -2.082031 4.296875 -2.53125 L 4.296875 -3.203125 L 4.1875 -3.21875 C 4.09375 -3.144531 3.960938 -3.078125 3.796875 -3.015625 C 3.640625 -2.960938 3.410156 -2.910156 3.109375 -2.859375 C 2.753906 -2.804688 2.5 -2.707031 2.34375 -2.5625 C 2.195312 -2.414062 2.125 -2.210938 2.125 -1.953125 C 2.125 -1.671875 2.203125 -1.457031 2.359375 -1.3125 C 2.523438 -1.164062 2.757812 -1.09375 3.0625 -1.09375 Z M 3.0625 -1.09375 "/></g></g></g><g fill="#ffffff" fill-opacity="1"><g transform="translate(42.906247, 21.291527)"><g><path d="M 2.703125 0.125 C 2.117188 0.125 1.671875 -0.03125 1.359375 -0.34375 C 1.046875 -0.664062 0.890625 -1.148438 0.890625 -1.796875 L 0.890625 -9.125 L 2.53125 -9.125 L 2.53125 -1.859375 C 2.53125 -1.460938 2.695312 -1.265625 3.03125 -1.265625 C 3.125 -1.265625 3.222656 -1.28125 3.328125 -1.3125 L 3.40625 -1.28125 L 3.5625 -0.03125 C 3.46875 0.0195312 3.34375 0.0546875 3.1875 0.078125 C 3.039062 0.109375 2.878906 0.125 2.703125 0.125 Z M 2.703125 0.125 "/></g></g></g></svg>