<svg width="157" height="43" viewBox="0 0 157 43" fill="none" xmlns="http://www.w3.org/2000/svg">
<path d="M8.232 22.152C8.896 22.152 9.468 22.076 9.948 21.924C10.428 21.772 10.82 21.56 11.124 21.288C11.436 21.008 11.664 20.68 11.808 20.304C11.952 19.92 12.024 19.5 12.024 19.044C12.024 18.156 11.708 17.456 11.076 16.944C10.444 16.424 9.496 16.164 8.232 16.164H4.512V22.152H8.232ZM4.512 8.64V14.508H7.584C8.24 14.508 8.808 14.436 9.288 14.292C9.776 14.148 10.176 13.948 10.488 13.692C10.808 13.436 11.044 13.128 11.196 12.768C11.348 12.4 11.424 12 11.424 11.568C11.424 10.552 11.12 9.812 10.512 9.348C9.904 8.876 8.96 8.64 7.68 8.64H4.512ZM7.68 6.804C8.736 6.804 9.644 6.908 10.404 7.116C11.172 7.324 11.8 7.62 12.288 8.004C12.784 8.388 13.148 8.86 13.38 9.42C13.612 9.972 13.728 10.596 13.728 11.292C13.728 11.716 13.66 12.124 13.524 12.516C13.396 12.9 13.2 13.26 12.936 13.596C12.672 13.932 12.336 14.236 11.928 14.508C11.528 14.772 11.056 14.988 10.512 15.156C11.776 15.396 12.724 15.848 13.356 16.512C13.996 17.168 14.316 18.032 14.316 19.104C14.316 19.832 14.18 20.496 13.908 21.096C13.644 21.696 13.252 22.212 12.732 22.644C12.22 23.076 11.588 23.412 10.836 23.652C10.084 23.884 9.228 24 8.268 24H2.196V6.804H7.68ZM19.2058 11.844V24H17.0698V11.844H19.2058ZM19.6618 8.028C19.6618 8.236 19.6178 8.432 19.5298 8.616C19.4498 8.792 19.3378 8.952 19.1938 9.096C19.0578 9.232 18.8938 9.34 18.7018 9.42C18.5178 9.5 18.3218 9.54 18.1138 9.54C17.9058 9.54 17.7098 9.5 17.5258 9.42C17.3498 9.34 17.1938 9.232 17.0578 9.096C16.9218 8.952 16.8138 8.792 16.7338 8.616C16.6538 8.432 16.6138 8.236 16.6138 8.028C16.6138 7.82 16.6538 7.624 16.7338 7.44C16.8138 7.248 16.9218 7.084 17.0578 6.948C17.1938 6.804 17.3498 6.692 17.5258 6.612C17.7098 6.532 17.9058 6.492 18.1138 6.492C18.3218 6.492 18.5178 6.532 18.7018 6.612C18.8938 6.692 19.0578 6.804 19.1938 6.948C19.3378 7.084 19.4498 7.248 19.5298 7.44C19.6178 7.624 19.6618 7.82 19.6618 8.028ZM24.9234 6.324V24H22.7874V6.324H24.9234ZM30.5953 6.324V24H28.4593V6.324H30.5953ZM41.1392 13.848C41.0432 14.024 40.8952 14.112 40.6952 14.112C40.5752 14.112 40.4392 14.068 40.2872 13.98C40.1352 13.892 39.9472 13.796 39.7232 13.692C39.5072 13.58 39.2472 13.48 38.9432 13.392C38.6392 13.296 38.2792 13.248 37.8632 13.248C37.5032 13.248 37.1792 13.296 36.8912 13.392C36.6032 13.48 36.3552 13.604 36.1472 13.764C35.9472 13.924 35.7912 14.112 35.6792 14.328C35.5752 14.536 35.5232 14.764 35.5232 15.012C35.5232 15.324 35.6112 15.584 35.7872 15.792C35.9712 16 36.2112 16.18 36.5072 16.332C36.8032 16.484 37.1392 16.62 37.5152 16.74C37.8912 16.852 38.2752 16.976 38.6672 17.112C39.0672 17.24 39.4552 17.384 39.8312 17.544C40.2072 17.704 40.5432 17.904 40.8392 18.144C41.1352 18.384 41.3712 18.68 41.5472 19.032C41.7312 19.376 41.8232 19.792 41.8232 20.28C41.8232 20.84 41.7232 21.36 41.5232 21.84C41.3232 22.312 41.0272 22.724 40.6352 23.076C40.2432 23.42 39.7632 23.692 39.1952 23.892C38.6272 24.092 37.9712 24.192 37.2272 24.192C36.3792 24.192 35.6112 24.056 34.9232 23.784C34.2352 23.504 33.6512 23.148 33.1712 22.716L33.6752 21.9C33.7392 21.796 33.8152 21.716 33.9032 21.66C33.9912 21.604 34.1032 21.576 34.2392 21.576C34.3832 21.576 34.5352 21.632 34.6952 21.744C34.8552 21.856 35.0472 21.98 35.2712 22.116C35.5032 22.252 35.7832 22.376 36.1112 22.488C36.4392 22.6 36.8472 22.656 37.3352 22.656C37.7512 22.656 38.1152 22.604 38.4272 22.5C38.7392 22.388 38.9992 22.24 39.2072 22.056C39.4152 21.872 39.5672 21.66 39.6632 21.42C39.7672 21.18 39.8192 20.924 39.8192 20.652C39.8192 20.316 39.7272 20.04 39.5432 19.824C39.3672 19.6 39.1312 19.412 38.8352 19.26C38.5392 19.1 38.1992 18.964 37.8152 18.852C37.4392 18.732 37.0512 18.608 36.6512 18.48C36.2592 18.352 35.8712 18.208 35.4872 18.048C35.1112 17.88 34.7752 17.672 34.4792 17.424C34.1832 17.176 33.9432 16.872 33.7592 16.512C33.5832 16.144 33.4952 15.7 33.4952 15.18C33.4952 14.716 33.5912 14.272 33.7832 13.848C33.9752 13.416 34.2552 13.04 34.6232 12.72C34.9912 12.392 35.4432 12.132 35.9792 11.94C36.5152 11.748 37.1272 11.652 37.8152 11.652C38.6152 11.652 39.3312 11.78 39.9632 12.036C40.6032 12.284 41.1552 12.628 41.6192 13.068L41.1392 13.848ZM49.6704 15.72C50.3344 15.72 50.9184 15.632 51.4224 15.456C51.9344 15.28 52.3624 15.036 52.7064 14.724C53.0584 14.404 53.3224 14.024 53.4984 13.584C53.6744 13.144 53.7624 12.66 53.7624 12.132C53.7624 11.036 53.4224 10.18 52.7424 9.564C52.0704 8.948 51.0464 8.64 49.6704 8.64H46.9104V15.72H49.6704ZM49.6704 6.804C50.7584 6.804 51.7024 6.932 52.5024 7.188C53.3104 7.436 53.9784 7.792 54.5064 8.256C55.0344 8.72 55.4264 9.28 55.6824 9.936C55.9464 10.592 56.0784 11.324 56.0784 12.132C56.0784 12.932 55.9384 13.664 55.6584 14.328C55.3784 14.992 54.9664 15.564 54.4224 16.044C53.8864 16.524 53.2184 16.9 52.4184 17.172C51.6264 17.436 50.7104 17.568 49.6704 17.568H46.9104V24H44.5944V6.804H49.6704ZM64.7175 18.528C63.7335 18.56 62.8935 18.64 62.1975 18.768C61.5095 18.888 60.9455 19.048 60.5055 19.248C60.0735 19.448 59.7575 19.684 59.5575 19.956C59.3655 20.228 59.2695 20.532 59.2695 20.868C59.2695 21.188 59.3215 21.464 59.4255 21.696C59.5295 21.928 59.6695 22.12 59.8455 22.272C60.0295 22.416 60.2415 22.524 60.4815 22.596C60.7295 22.66 60.9935 22.692 61.2735 22.692C61.6495 22.692 61.9935 22.656 62.3055 22.584C62.6175 22.504 62.9095 22.392 63.1815 22.248C63.4615 22.104 63.7255 21.932 63.9735 21.732C64.2295 21.532 64.4775 21.304 64.7175 21.048V18.528ZM57.8175 13.56C58.4895 12.912 59.2135 12.428 59.9895 12.108C60.7655 11.788 61.6255 11.628 62.5695 11.628C63.2495 11.628 63.8535 11.74 64.3815 11.964C64.9095 12.188 65.3535 12.5 65.7135 12.9C66.0735 13.3 66.3455 13.784 66.5295 14.352C66.7135 14.92 66.8055 15.544 66.8055 16.224V24H65.8575C65.6495 24 65.4895 23.968 65.3775 23.904C65.2655 23.832 65.1775 23.696 65.1135 23.496L64.8735 22.344C64.5535 22.64 64.2415 22.904 63.9375 23.136C63.6335 23.36 63.3135 23.552 62.9775 23.712C62.6415 23.864 62.2815 23.98 61.8975 24.06C61.5215 24.148 61.1015 24.192 60.6375 24.192C60.1655 24.192 59.7215 24.128 59.3055 24C58.8895 23.864 58.5255 23.664 58.2135 23.4C57.9095 23.136 57.6655 22.804 57.4815 22.404C57.3055 21.996 57.2175 21.516 57.2175 20.964C57.2175 20.484 57.3495 20.024 57.6135 19.584C57.8775 19.136 58.3055 18.74 58.8975 18.396C59.4895 18.052 60.2615 17.772 61.2135 17.556C62.1655 17.332 63.3335 17.204 64.7175 17.172V16.224C64.7175 15.28 64.5135 14.568 64.1055 14.088C63.6975 13.6 63.1015 13.356 62.3175 13.356C61.7895 13.356 61.3455 13.424 60.9855 13.56C60.6335 13.688 60.3255 13.836 60.0615 14.004C59.8055 14.164 59.5815 14.312 59.3895 14.448C59.2055 14.576 59.0215 14.64 58.8375 14.64C58.6935 14.64 58.5695 14.604 58.4655 14.532C58.3615 14.452 58.2735 14.356 58.2015 14.244L57.8175 13.56ZM72.2672 6.324V24H70.1312V6.324H72.2672Z" fill="white"/>
<path d="M3.636 36.86C3.968 36.86 4.26 36.816 4.512 36.728C4.768 36.64 4.982 36.518 5.154 36.362C5.33 36.202 5.462 36.012 5.55 35.792C5.638 35.572 5.682 35.33 5.682 35.066C5.682 34.518 5.512 34.09 5.172 33.782C4.836 33.474 4.324 33.32 3.636 33.32H2.256V36.86H3.636ZM3.636 32.402C4.18 32.402 4.652 32.466 5.052 32.594C5.456 32.718 5.79 32.896 6.054 33.128C6.318 33.36 6.514 33.64 6.642 33.968C6.774 34.296 6.84 34.662 6.84 35.066C6.84 35.466 6.77 35.832 6.63 36.164C6.49 36.496 6.284 36.782 6.012 37.022C5.744 37.262 5.41 37.45 5.01 37.586C4.614 37.718 4.156 37.784 3.636 37.784H2.256V41H1.098V32.402H3.636ZM11.1595 38.264C10.6675 38.28 10.2475 38.32 9.89953 38.384C9.55553 38.444 9.27353 38.524 9.05353 38.624C8.83753 38.724 8.67953 38.842 8.57953 38.978C8.48353 39.114 8.43553 39.266 8.43553 39.434C8.43553 39.594 8.46153 39.732 8.51353 39.848C8.56553 39.964 8.63553 40.06 8.72353 40.136C8.81553 40.208 8.92153 40.262 9.04153 40.298C9.16553 40.33 9.29753 40.346 9.43753 40.346C9.62553 40.346 9.79753 40.328 9.95353 40.292C10.1095 40.252 10.2555 40.196 10.3915 40.124C10.5315 40.052 10.6635 39.966 10.7875 39.866C10.9155 39.766 11.0395 39.652 11.1595 39.524V38.264ZM7.70953 35.78C8.04553 35.456 8.40753 35.214 8.79553 35.054C9.18353 34.894 9.61353 34.814 10.0855 34.814C10.4255 34.814 10.7275 34.87 10.9915 34.982C11.2555 35.094 11.4775 35.25 11.6575 35.45C11.8375 35.65 11.9735 35.892 12.0655 36.176C12.1575 36.46 12.2035 36.772 12.2035 37.112V41H11.7295C11.6255 41 11.5455 40.984 11.4895 40.952C11.4335 40.916 11.3895 40.848 11.3575 40.748L11.2375 40.172C11.0775 40.32 10.9215 40.452 10.7695 40.568C10.6175 40.68 10.4575 40.776 10.2895 40.856C10.1215 40.932 9.94153 40.99 9.74953 41.03C9.56153 41.074 9.35153 41.096 9.11953 41.096C8.88353 41.096 8.66153 41.064 8.45353 41C8.24553 40.932 8.06353 40.832 7.90753 40.7C7.75553 40.568 7.63353 40.402 7.54153 40.202C7.45353 39.998 7.40953 39.758 7.40953 39.482C7.40953 39.242 7.47553 39.012 7.60753 38.792C7.73953 38.568 7.95353 38.37 8.24953 38.198C8.54553 38.026 8.93153 37.886 9.40753 37.778C9.88353 37.666 10.4675 37.602 11.1595 37.586V37.112C11.1595 36.64 11.0575 36.284 10.8535 36.044C10.6495 35.8 10.3515 35.678 9.95953 35.678C9.69553 35.678 9.47353 35.712 9.29353 35.78C9.11753 35.844 8.96353 35.918 8.83153 36.002C8.70353 36.082 8.59153 36.156 8.49553 36.224C8.40353 36.288 8.31153 36.32 8.21953 36.32C8.14753 36.32 8.08553 36.302 8.03353 36.266C7.98153 36.226 7.93753 36.178 7.90153 36.122L7.70953 35.78ZM17.3704 35.924C17.3224 36.012 17.2484 36.056 17.1484 36.056C17.0884 36.056 17.0204 36.034 16.9444 35.99C16.8684 35.946 16.7744 35.898 16.6624 35.846C16.5544 35.79 16.4244 35.74 16.2724 35.696C16.1204 35.648 15.9404 35.624 15.7324 35.624C15.5524 35.624 15.3904 35.648 15.2464 35.696C15.1024 35.74 14.9784 35.802 14.8744 35.882C14.7744 35.962 14.6964 36.056 14.6404 36.164C14.5884 36.268 14.5624 36.382 14.5624 36.506C14.5624 36.662 14.6064 36.792 14.6944 36.896C14.7864 37 14.9064 37.09 15.0544 37.166C15.2024 37.242 15.3704 37.31 15.5584 37.37C15.7464 37.426 15.9384 37.488 16.1344 37.556C16.3344 37.62 16.5284 37.692 16.7164 37.772C16.9044 37.852 17.0724 37.952 17.2204 38.072C17.3684 38.192 17.4864 38.34 17.5744 38.516C17.6664 38.688 17.7124 38.896 17.7124 39.14C17.7124 39.42 17.6624 39.68 17.5624 39.92C17.4624 40.156 17.3144 40.362 17.1184 40.538C16.9224 40.71 16.6824 40.846 16.3984 40.946C16.1144 41.046 15.7864 41.096 15.4144 41.096C14.9904 41.096 14.6064 41.028 14.2624 40.892C13.9184 40.752 13.6264 40.574 13.3864 40.358L13.6384 39.95C13.6704 39.898 13.7084 39.858 13.7524 39.83C13.7964 39.802 13.8524 39.788 13.9204 39.788C13.9924 39.788 14.0684 39.816 14.1484 39.872C14.2284 39.928 14.3244 39.99 14.4364 40.058C14.5524 40.126 14.6924 40.188 14.8564 40.244C15.0204 40.3 15.2244 40.328 15.4684 40.328C15.6764 40.328 15.8584 40.302 16.0144 40.25C16.1704 40.194 16.3004 40.12 16.4044 40.028C16.5084 39.936 16.5844 39.83 16.6324 39.71C16.6844 39.59 16.7104 39.462 16.7104 39.326C16.7104 39.158 16.6644 39.02 16.5724 38.912C16.4844 38.8 16.3664 38.706 16.2184 38.63C16.0704 38.55 15.9004 38.482 15.7084 38.426C15.5204 38.366 15.3264 38.304 15.1264 38.24C14.9304 38.176 14.7364 38.104 14.5444 38.024C14.3564 37.94 14.1884 37.836 14.0404 37.712C13.8924 37.588 13.7724 37.436 13.6804 37.256C13.5924 37.072 13.5484 36.85 13.5484 36.59C13.5484 36.358 13.5964 36.136 13.6924 35.924C13.7884 35.708 13.9284 35.52 14.1124 35.36C14.2964 35.196 14.5224 35.066 14.7904 34.97C15.0584 34.874 15.3644 34.826 15.7084 34.826C16.1084 34.826 16.4664 34.89 16.7824 35.018C17.1024 35.142 17.3784 35.314 17.6104 35.534L17.3704 35.924ZM22.5618 35.924C22.5138 36.012 22.4398 36.056 22.3398 36.056C22.2798 36.056 22.2118 36.034 22.1358 35.99C22.0598 35.946 21.9658 35.898 21.8538 35.846C21.7458 35.79 21.6158 35.74 21.4638 35.696C21.3118 35.648 21.1318 35.624 20.9238 35.624C20.7438 35.624 20.5818 35.648 20.4378 35.696C20.2938 35.74 20.1698 35.802 20.0658 35.882C19.9658 35.962 19.8878 36.056 19.8318 36.164C19.7798 36.268 19.7538 36.382 19.7538 36.506C19.7538 36.662 19.7978 36.792 19.8858 36.896C19.9778 37 20.0978 37.09 20.2458 37.166C20.3938 37.242 20.5618 37.31 20.7498 37.37C20.9378 37.426 21.1298 37.488 21.3258 37.556C21.5258 37.62 21.7198 37.692 21.9078 37.772C22.0958 37.852 22.2638 37.952 22.4118 38.072C22.5598 38.192 22.6778 38.34 22.7658 38.516C22.8578 38.688 22.9038 38.896 22.9038 39.14C22.9038 39.42 22.8538 39.68 22.7538 39.92C22.6538 40.156 22.5058 40.362 22.3098 40.538C22.1138 40.71 21.8738 40.846 21.5898 40.946C21.3058 41.046 20.9778 41.096 20.6058 41.096C20.1818 41.096 19.7978 41.028 19.4538 40.892C19.1098 40.752 18.8178 40.574 18.5778 40.358L18.8298 39.95C18.8618 39.898 18.8998 39.858 18.9438 39.83C18.9878 39.802 19.0438 39.788 19.1118 39.788C19.1838 39.788 19.2598 39.816 19.3398 39.872C19.4198 39.928 19.5158 39.99 19.6278 40.058C19.7438 40.126 19.8838 40.188 20.0478 40.244C20.2118 40.3 20.4158 40.328 20.6598 40.328C20.8678 40.328 21.0498 40.302 21.2058 40.25C21.3618 40.194 21.4918 40.12 21.5958 40.028C21.6998 39.936 21.7758 39.83 21.8238 39.71C21.8758 39.59 21.9018 39.462 21.9018 39.326C21.9018 39.158 21.8558 39.02 21.7638 38.912C21.6758 38.8 21.5578 38.706 21.4098 38.63C21.2618 38.55 21.0918 38.482 20.8998 38.426C20.7118 38.366 20.5178 38.304 20.3178 38.24C20.1218 38.176 19.9278 38.104 19.7358 38.024C19.5478 37.94 19.3798 37.836 19.2318 37.712C19.0838 37.588 18.9638 37.436 18.8718 37.256C18.7838 37.072 18.7398 36.85 18.7398 36.59C18.7398 36.358 18.7878 36.136 18.8838 35.924C18.9798 35.708 19.1198 35.52 19.3038 35.36C19.4878 35.196 19.7138 35.066 19.9818 34.97C20.2498 34.874 20.5558 34.826 20.8998 34.826C21.2998 34.826 21.6578 34.89 21.9738 35.018C22.2938 35.142 22.5698 35.314 22.8018 35.534L22.5618 35.924ZM25.3412 34.922V41H24.2732V34.922H25.3412ZM25.5692 33.014C25.5692 33.118 25.5472 33.216 25.5032 33.308C25.4632 33.396 25.4072 33.476 25.3352 33.548C25.2672 33.616 25.1852 33.67 25.0892 33.71C24.9972 33.75 24.8992 33.77 24.7952 33.77C24.6912 33.77 24.5932 33.75 24.5012 33.71C24.4132 33.67 24.3352 33.616 24.2672 33.548C24.1992 33.476 24.1452 33.396 24.1052 33.308C24.0652 33.216 24.0452 33.118 24.0452 33.014C24.0452 32.91 24.0652 32.812 24.1052 32.72C24.1452 32.624 24.1992 32.542 24.2672 32.474C24.3352 32.402 24.4132 32.346 24.5012 32.306C24.5932 32.266 24.6912 32.246 24.7952 32.246C24.8992 32.246 24.9972 32.266 25.0892 32.306C25.1852 32.346 25.2672 32.402 25.3352 32.474C25.4072 32.542 25.4632 32.624 25.5032 32.72C25.5472 32.812 25.5692 32.91 25.5692 33.014ZM32.304 34.922L29.826 41H28.866L26.388 34.922H27.258C27.346 34.922 27.418 34.944 27.474 34.988C27.53 35.032 27.568 35.084 27.588 35.144L29.13 39.056C29.178 39.204 29.22 39.348 29.256 39.488C29.292 39.628 29.326 39.768 29.358 39.908C29.39 39.768 29.424 39.628 29.46 39.488C29.496 39.348 29.54 39.204 29.592 39.056L31.152 35.144C31.176 35.08 31.216 35.028 31.272 34.988C31.328 34.944 31.394 34.922 31.47 34.922H32.304ZM37.1874 37.298C37.1874 37.05 37.1514 36.824 37.0794 36.62C37.0114 36.412 36.9094 36.234 36.7734 36.086C36.6414 35.934 36.4794 35.818 36.2874 35.738C36.0954 35.654 35.8774 35.612 35.6334 35.612C35.1214 35.612 34.7154 35.762 34.4154 36.062C34.1194 36.358 33.9354 36.77 33.8634 37.298H37.1874ZM38.0514 40.148C37.9194 40.308 37.7614 40.448 37.5774 40.568C37.3934 40.684 37.1954 40.78 36.9834 40.856C36.7754 40.932 36.5594 40.988 36.3354 41.024C36.1114 41.064 35.8894 41.084 35.6694 41.084C35.2494 41.084 34.8614 41.014 34.5054 40.874C34.1534 40.73 33.8474 40.522 33.5874 40.25C33.3314 39.974 33.1314 39.634 32.9874 39.23C32.8434 38.826 32.7714 38.362 32.7714 37.838C32.7714 37.414 32.8354 37.018 32.9634 36.65C33.0954 36.282 33.2834 35.964 33.5274 35.696C33.7714 35.424 34.0694 35.212 34.4214 35.06C34.7734 34.904 35.1694 34.826 35.6094 34.826C35.9734 34.826 36.3094 34.888 36.6174 35.012C36.9294 35.132 37.1974 35.308 37.4214 35.54C37.6494 35.768 37.8274 36.052 37.9554 36.392C38.0834 36.728 38.1474 37.112 38.1474 37.544C38.1474 37.712 38.1294 37.824 38.0934 37.88C38.0574 37.936 37.9894 37.964 37.8894 37.964H33.8274C33.8394 38.348 33.8914 38.682 33.9834 38.966C34.0794 39.25 34.2114 39.488 34.3794 39.68C34.5474 39.868 34.7474 40.01 34.9794 40.106C35.2114 40.198 35.4714 40.244 35.7594 40.244C36.0274 40.244 36.2574 40.214 36.4494 40.154C36.6454 40.09 36.8134 40.022 36.9534 39.95C37.0934 39.878 37.2094 39.812 37.3014 39.752C37.3974 39.688 37.4794 39.656 37.5474 39.656C37.6354 39.656 37.7034 39.69 37.7514 39.758L38.0514 40.148ZM43.9456 41H42.7816V32.402H43.9456V41ZM46.8071 35.804C46.9391 35.656 47.0791 35.522 47.2271 35.402C47.3751 35.282 47.5311 35.18 47.6951 35.096C47.8631 35.008 48.0391 34.942 48.2231 34.898C48.4111 34.85 48.6131 34.826 48.8291 34.826C49.1611 34.826 49.4531 34.882 49.7051 34.994C49.9611 35.102 50.1731 35.258 50.3411 35.462C50.5131 35.662 50.6431 35.904 50.7311 36.188C50.8191 36.472 50.8631 36.786 50.8631 37.13V41H49.7891V37.13C49.7891 36.67 49.6831 36.314 49.4711 36.062C49.2631 35.806 48.9451 35.678 48.5171 35.678C48.2011 35.678 47.9051 35.754 47.6291 35.906C47.3571 36.058 47.1051 36.264 46.8731 36.524V41H45.7991V34.922H46.4411C46.5931 34.922 46.6871 34.996 46.7231 35.144L46.8071 35.804ZM56.7205 36.002C56.6885 36.046 56.6565 36.08 56.6245 36.104C56.5925 36.128 56.5485 36.14 56.4925 36.14C56.4325 36.14 56.3665 36.116 56.2945 36.068C56.2225 36.016 56.1325 35.96 56.0245 35.9C55.9205 35.84 55.7905 35.786 55.6345 35.738C55.4825 35.686 55.2945 35.66 55.0705 35.66C54.7705 35.66 54.5065 35.714 54.2785 35.822C54.0505 35.926 53.8585 36.078 53.7025 36.278C53.5505 36.478 53.4345 36.72 53.3545 37.004C53.2785 37.288 53.2405 37.606 53.2405 37.958C53.2405 38.326 53.2825 38.654 53.3665 38.942C53.4505 39.226 53.5685 39.466 53.7205 39.662C53.8765 39.854 54.0625 40.002 54.2785 40.106C54.4985 40.206 54.7445 40.256 55.0165 40.256C55.2765 40.256 55.4905 40.226 55.6585 40.166C55.8265 40.102 55.9645 40.032 56.0725 39.956C56.1845 39.88 56.2765 39.812 56.3485 39.752C56.4245 39.688 56.4985 39.656 56.5705 39.656C56.6585 39.656 56.7265 39.69 56.7745 39.758L57.0745 40.148C56.9425 40.312 56.7925 40.452 56.6245 40.568C56.4565 40.684 56.2745 40.782 56.0785 40.862C55.8865 40.938 55.6845 40.994 55.4725 41.03C55.2605 41.066 55.0445 41.084 54.8245 41.084C54.4445 41.084 54.0905 41.014 53.7625 40.874C53.4385 40.734 53.1565 40.532 52.9165 40.268C52.6765 40 52.4885 39.672 52.3525 39.284C52.2165 38.896 52.1485 38.454 52.1485 37.958C52.1485 37.506 52.2105 37.088 52.3345 36.704C52.4625 36.32 52.6465 35.99 52.8865 35.714C53.1305 35.434 53.4285 35.216 53.7805 35.06C54.1365 34.904 54.5445 34.826 55.0045 34.826C55.4325 34.826 55.8085 34.896 56.1325 35.036C56.4605 35.172 56.7505 35.366 57.0025 35.618L56.7205 36.002ZM60.6775 34.826C61.1215 34.826 61.5215 34.9 61.8775 35.048C62.2335 35.196 62.5375 35.406 62.7895 35.678C63.0415 35.95 63.2335 36.28 63.3655 36.668C63.5015 37.052 63.5695 37.482 63.5695 37.958C63.5695 38.438 63.5015 38.87 63.3655 39.254C63.2335 39.638 63.0415 39.966 62.7895 40.238C62.5375 40.51 62.2335 40.72 61.8775 40.868C61.5215 41.012 61.1215 41.084 60.6775 41.084C60.2295 41.084 59.8255 41.012 59.4655 40.868C59.1095 40.72 58.8055 40.51 58.5535 40.238C58.3015 39.966 58.1075 39.638 57.9715 39.254C57.8395 38.87 57.7735 38.438 57.7735 37.958C57.7735 37.482 57.8395 37.052 57.9715 36.668C58.1075 36.28 58.3015 35.95 58.5535 35.678C58.8055 35.406 59.1095 35.196 59.4655 35.048C59.8255 34.9 60.2295 34.826 60.6775 34.826ZM60.6775 40.25C61.2775 40.25 61.7255 40.05 62.0215 39.65C62.3175 39.246 62.4655 38.684 62.4655 37.964C62.4655 37.24 62.3175 36.676 62.0215 36.272C61.7255 35.868 61.2775 35.666 60.6775 35.666C60.3735 35.666 60.1075 35.718 59.8795 35.822C59.6555 35.926 59.4675 36.076 59.3155 36.272C59.1675 36.468 59.0555 36.71 58.9795 36.998C58.9075 37.282 58.8715 37.604 58.8715 37.964C58.8715 38.684 59.0195 39.246 59.3155 39.65C59.6155 40.05 60.0695 40.25 60.6775 40.25ZM64.9241 41V34.922H65.5661C65.7181 34.922 65.8121 34.996 65.8481 35.144L65.9261 35.768C66.1501 35.492 66.4021 35.266 66.6821 35.09C66.9621 34.914 67.2861 34.826 67.6541 34.826C68.0621 34.826 68.3921 34.94 68.6441 35.168C68.9001 35.396 69.0841 35.704 69.1961 36.092C69.2841 35.872 69.3961 35.682 69.5321 35.522C69.6721 35.362 69.8281 35.23 70.0001 35.126C70.1721 35.022 70.3541 34.946 70.5461 34.898C70.7421 34.85 70.9401 34.826 71.1401 34.826C71.4601 34.826 71.7441 34.878 71.9921 34.982C72.2441 35.082 72.4561 35.23 72.6281 35.426C72.8041 35.622 72.9381 35.864 73.0301 36.152C73.1221 36.436 73.1681 36.762 73.1681 37.13V41H72.0941V37.13C72.0941 36.654 71.9901 36.294 71.7821 36.05C71.5741 35.802 71.2741 35.678 70.8821 35.678C70.7061 35.678 70.5381 35.71 70.3781 35.774C70.2221 35.834 70.0841 35.924 69.9641 36.044C69.8441 36.164 69.7481 36.316 69.6761 36.5C69.6081 36.68 69.5741 36.89 69.5741 37.13V41H68.5001V37.13C68.5001 36.642 68.4021 36.278 68.2061 36.038C68.0101 35.798 67.7241 35.678 67.3481 35.678C67.0841 35.678 66.8401 35.75 66.6161 35.894C66.3921 36.034 66.1861 36.226 65.9981 36.47V41H64.9241ZM78.8593 37.298C78.8593 37.05 78.8233 36.824 78.7513 36.62C78.6833 36.412 78.5813 36.234 78.4453 36.086C78.3133 35.934 78.1513 35.818 77.9593 35.738C77.7673 35.654 77.5493 35.612 77.3053 35.612C76.7933 35.612 76.3873 35.762 76.0873 36.062C75.7913 36.358 75.6073 36.77 75.5353 37.298H78.8593ZM79.7233 40.148C79.5913 40.308 79.4333 40.448 79.2493 40.568C79.0653 40.684 78.8673 40.78 78.6553 40.856C78.4473 40.932 78.2313 40.988 78.0073 41.024C77.7833 41.064 77.5613 41.084 77.3413 41.084C76.9213 41.084 76.5333 41.014 76.1773 40.874C75.8253 40.73 75.5193 40.522 75.2593 40.25C75.0033 39.974 74.8033 39.634 74.6593 39.23C74.5153 38.826 74.4433 38.362 74.4433 37.838C74.4433 37.414 74.5073 37.018 74.6353 36.65C74.7673 36.282 74.9553 35.964 75.1993 35.696C75.4433 35.424 75.7413 35.212 76.0933 35.06C76.4453 34.904 76.8413 34.826 77.2813 34.826C77.6453 34.826 77.9813 34.888 78.2893 35.012C78.6013 35.132 78.8693 35.308 79.0933 35.54C79.3213 35.768 79.4993 36.052 79.6273 36.392C79.7553 36.728 79.8193 37.112 79.8193 37.544C79.8193 37.712 79.8013 37.824 79.7653 37.88C79.7293 37.936 79.6613 37.964 79.5613 37.964H75.4993C75.5113 38.348 75.5633 38.682 75.6553 38.966C75.7513 39.25 75.8833 39.488 76.0513 39.68C76.2193 39.868 76.4193 40.01 76.6513 40.106C76.8833 40.198 77.1433 40.244 77.4313 40.244C77.6993 40.244 77.9293 40.214 78.1213 40.154C78.3173 40.09 78.4853 40.022 78.6253 39.95C78.7653 39.878 78.8813 39.812 78.9733 39.752C79.0693 39.688 79.1513 39.656 79.2193 39.656C79.3073 39.656 79.3753 39.69 79.4233 39.758L79.7233 40.148ZM95.4314 32.402L92.7494 41H91.7054L89.5274 34.442C89.5074 34.378 89.4874 34.31 89.4674 34.238C89.4514 34.166 89.4334 34.09 89.4134 34.01C89.3934 34.09 89.3734 34.166 89.3534 34.238C89.3334 34.31 89.3134 34.378 89.2934 34.442L87.1034 41H86.0594L83.3774 32.402H84.3434C84.4474 32.402 84.5334 32.428 84.6014 32.48C84.6734 32.532 84.7194 32.598 84.7394 32.678L86.5154 38.654C86.5434 38.762 86.5694 38.878 86.5934 39.002C86.6214 39.126 86.6474 39.258 86.6714 39.398C86.6994 39.258 86.7274 39.126 86.7554 39.002C86.7874 38.874 86.8214 38.758 86.8574 38.654L88.8794 32.678C88.9034 32.61 88.9494 32.548 89.0174 32.492C89.0894 32.432 89.1754 32.402 89.2754 32.402H89.6114C89.7154 32.402 89.7994 32.428 89.8634 32.48C89.9274 32.532 89.9754 32.598 90.0074 32.678L92.0234 38.654C92.0594 38.758 92.0914 38.87 92.1194 38.99C92.1514 39.11 92.1814 39.236 92.2094 39.368C92.2294 39.236 92.2514 39.11 92.2754 38.99C92.2994 38.87 92.3254 38.758 92.3534 38.654L94.1354 32.678C94.1554 32.606 94.1994 32.542 94.2674 32.486C94.3394 32.43 94.4254 32.402 94.5254 32.402H95.4314ZM97.5404 34.922V41H96.4724V34.922H97.5404ZM97.7684 33.014C97.7684 33.118 97.7464 33.216 97.7024 33.308C97.6624 33.396 97.6064 33.476 97.5344 33.548C97.4664 33.616 97.3844 33.67 97.2884 33.71C97.1964 33.75 97.0984 33.77 96.9944 33.77C96.8904 33.77 96.7924 33.75 96.7004 33.71C96.6124 33.67 96.5344 33.616 96.4664 33.548C96.3984 33.476 96.3444 33.396 96.3044 33.308C96.2644 33.216 96.2444 33.118 96.2444 33.014C96.2444 32.91 96.2644 32.812 96.3044 32.72C96.3444 32.624 96.3984 32.542 96.4664 32.474C96.5344 32.402 96.6124 32.346 96.7004 32.306C96.7924 32.266 96.8904 32.246 96.9944 32.246C97.0984 32.246 97.1964 32.266 97.2884 32.306C97.3844 32.346 97.4664 32.402 97.5344 32.474C97.6064 32.542 97.6624 32.624 97.7024 32.72C97.7464 32.812 97.7684 32.91 97.7684 33.014ZM101.161 41.096C100.681 41.096 100.311 40.962 100.051 40.694C99.7952 40.426 99.6672 40.04 99.6672 39.536V35.816H98.9352C98.8712 35.816 98.8172 35.798 98.7732 35.762C98.7292 35.722 98.7072 35.662 98.7072 35.582V35.156L99.7032 35.03L99.9492 33.152C99.9612 33.092 99.9872 33.044 100.027 33.008C100.071 32.968 100.127 32.948 100.195 32.948H100.735V35.042H102.493V35.816H100.735V39.464C100.735 39.72 100.797 39.91 100.921 40.034C101.045 40.158 101.205 40.22 101.401 40.22C101.513 40.22 101.609 40.206 101.689 40.178C101.773 40.146 101.845 40.112 101.905 40.076C101.965 40.04 102.015 40.008 102.055 39.98C102.099 39.948 102.137 39.932 102.169 39.932C102.225 39.932 102.275 39.966 102.319 40.034L102.631 40.544C102.447 40.716 102.225 40.852 101.965 40.952C101.705 41.048 101.437 41.096 101.161 41.096ZM104.67 35.732C104.93 35.456 105.218 35.236 105.534 35.072C105.85 34.908 106.214 34.826 106.626 34.826C106.958 34.826 107.25 34.882 107.502 34.994C107.758 35.102 107.97 35.258 108.138 35.462C108.31 35.662 108.44 35.904 108.528 36.188C108.616 36.472 108.66 36.786 108.66 37.13V41H107.586V37.13C107.586 36.67 107.48 36.314 107.268 36.062C107.06 35.806 106.742 35.678 106.314 35.678C105.998 35.678 105.702 35.754 105.426 35.906C105.154 36.058 104.902 36.264 104.67 36.524V41H103.596V32.162H104.67V35.732ZM112.849 34.826C113.293 34.826 113.693 34.9 114.049 35.048C114.405 35.196 114.709 35.406 114.961 35.678C115.213 35.95 115.405 36.28 115.537 36.668C115.673 37.052 115.741 37.482 115.741 37.958C115.741 38.438 115.673 38.87 115.537 39.254C115.405 39.638 115.213 39.966 114.961 40.238C114.709 40.51 114.405 40.72 114.049 40.868C113.693 41.012 113.293 41.084 112.849 41.084C112.401 41.084 111.997 41.012 111.637 40.868C111.281 40.72 110.977 40.51 110.725 40.238C110.473 39.966 110.279 39.638 110.143 39.254C110.011 38.87 109.945 38.438 109.945 37.958C109.945 37.482 110.011 37.052 110.143 36.668C110.279 36.28 110.473 35.95 110.725 35.678C110.977 35.406 111.281 35.196 111.637 35.048C111.997 34.9 112.401 34.826 112.849 34.826ZM112.849 40.25C113.449 40.25 113.897 40.05 114.193 39.65C114.489 39.246 114.637 38.684 114.637 37.964C114.637 37.24 114.489 36.676 114.193 36.272C113.897 35.868 113.449 35.666 112.849 35.666C112.545 35.666 112.279 35.718 112.051 35.822C111.827 35.926 111.639 36.076 111.487 36.272C111.339 36.468 111.227 36.71 111.151 36.998C111.079 37.282 111.043 37.604 111.043 37.964C111.043 38.684 111.191 39.246 111.487 39.65C111.787 40.05 112.241 40.25 112.849 40.25ZM122.094 34.922V41H121.458C121.306 41 121.21 40.926 121.17 40.778L121.086 40.124C120.822 40.416 120.526 40.652 120.198 40.832C119.87 41.008 119.494 41.096 119.07 41.096C118.738 41.096 118.444 41.042 118.188 40.934C117.936 40.822 117.724 40.666 117.552 40.466C117.38 40.266 117.25 40.024 117.162 39.74C117.078 39.456 117.036 39.142 117.036 38.798V34.922H118.104V38.798C118.104 39.258 118.208 39.614 118.416 39.866C118.628 40.118 118.95 40.244 119.382 40.244C119.698 40.244 119.992 40.17 120.264 40.022C120.54 39.87 120.794 39.662 121.026 39.398V34.922H122.094ZM125.653 41.096C125.173 41.096 124.803 40.962 124.543 40.694C124.287 40.426 124.159 40.04 124.159 39.536V35.816H123.427C123.363 35.816 123.309 35.798 123.265 35.762C123.221 35.722 123.199 35.662 123.199 35.582V35.156L124.195 35.03L124.441 33.152C124.453 33.092 124.479 33.044 124.519 33.008C124.563 32.968 124.619 32.948 124.687 32.948H125.227V35.042H126.985V35.816H125.227V39.464C125.227 39.72 125.289 39.91 125.413 40.034C125.537 40.158 125.697 40.22 125.893 40.22C126.005 40.22 126.101 40.206 126.181 40.178C126.265 40.146 126.337 40.112 126.397 40.076C126.457 40.04 126.507 40.008 126.547 39.98C126.591 39.948 126.629 39.932 126.661 39.932C126.717 39.932 126.767 39.966 126.811 40.034L127.123 40.544C126.939 40.716 126.717 40.852 126.457 40.952C126.197 41.048 125.929 41.096 125.653 41.096ZM136.289 40.022V41H131.411V32.402H132.569V40.022H136.289ZM138.451 34.922V41H137.383V34.922H138.451ZM138.679 33.014C138.679 33.118 138.657 33.216 138.613 33.308C138.573 33.396 138.517 33.476 138.445 33.548C138.377 33.616 138.295 33.67 138.199 33.71C138.107 33.75 138.009 33.77 137.905 33.77C137.801 33.77 137.703 33.75 137.611 33.71C137.523 33.67 137.445 33.616 137.377 33.548C137.309 33.476 137.255 33.396 137.215 33.308C137.175 33.216 137.155 33.118 137.155 33.014C137.155 32.91 137.175 32.812 137.215 32.72C137.255 32.624 137.309 32.542 137.377 32.474C137.445 32.402 137.523 32.346 137.611 32.306C137.703 32.266 137.801 32.246 137.905 32.246C138.009 32.246 138.107 32.266 138.199 32.306C138.295 32.346 138.377 32.402 138.445 32.474C138.517 32.542 138.573 32.624 138.613 32.72C138.657 32.812 138.679 32.91 138.679 33.014ZM140.205 41V34.922H140.847C140.999 34.922 141.093 34.996 141.129 35.144L141.207 35.768C141.431 35.492 141.683 35.266 141.963 35.09C142.243 34.914 142.567 34.826 142.935 34.826C143.343 34.826 143.673 34.94 143.925 35.168C144.181 35.396 144.365 35.704 144.477 36.092C144.565 35.872 144.677 35.682 144.813 35.522C144.953 35.362 145.109 35.23 145.281 35.126C145.453 35.022 145.635 34.946 145.827 34.898C146.023 34.85 146.221 34.826 146.421 34.826C146.741 34.826 147.025 34.878 147.273 34.982C147.525 35.082 147.737 35.23 147.909 35.426C148.085 35.622 148.219 35.864 148.311 36.152C148.403 36.436 148.449 36.762 148.449 37.13V41H147.375V37.13C147.375 36.654 147.271 36.294 147.063 36.05C146.855 35.802 146.555 35.678 146.163 35.678C145.987 35.678 145.819 35.71 145.659 35.774C145.503 35.834 145.365 35.924 145.245 36.044C145.125 36.164 145.029 36.316 144.957 36.5C144.889 36.68 144.855 36.89 144.855 37.13V41H143.781V37.13C143.781 36.642 143.683 36.278 143.487 36.038C143.291 35.798 143.005 35.678 142.629 35.678C142.365 35.678 142.121 35.75 141.897 35.894C141.673 36.034 141.467 36.226 141.279 36.47V41H140.205ZM151.201 34.922V41H150.133V34.922H151.201ZM151.429 33.014C151.429 33.118 151.407 33.216 151.363 33.308C151.323 33.396 151.267 33.476 151.195 33.548C151.127 33.616 151.045 33.67 150.949 33.71C150.857 33.75 150.759 33.77 150.655 33.77C150.551 33.77 150.453 33.75 150.361 33.71C150.273 33.67 150.195 33.616 150.127 33.548C150.059 33.476 150.005 33.396 149.965 33.308C149.925 33.216 149.905 33.118 149.905 33.014C149.905 32.91 149.925 32.812 149.965 32.72C150.005 32.624 150.059 32.542 150.127 32.474C150.195 32.402 150.273 32.346 150.361 32.306C150.453 32.266 150.551 32.246 150.655 32.246C150.759 32.246 150.857 32.266 150.949 32.306C151.045 32.346 151.127 32.402 151.195 32.474C151.267 32.542 151.323 32.624 151.363 32.72C151.407 32.812 151.429 32.91 151.429 33.014ZM154.821 41.096C154.341 41.096 153.971 40.962 153.711 40.694C153.455 40.426 153.327 40.04 153.327 39.536V35.816H152.595C152.531 35.816 152.477 35.798 152.433 35.762C152.389 35.722 152.367 35.662 152.367 35.582V35.156L153.363 35.03L153.609 33.152C153.621 33.092 153.647 33.044 153.687 33.008C153.731 32.968 153.787 32.948 153.855 32.948H154.395V35.042H156.153V35.816H154.395V39.464C154.395 39.72 154.457 39.91 154.581 40.034C154.705 40.158 154.865 40.22 155.061 40.22C155.173 40.22 155.269 40.206 155.349 40.178C155.433 40.146 155.505 40.112 155.565 40.076C155.625 40.04 155.675 40.008 155.715 39.98C155.759 39.948 155.797 39.932 155.829 39.932C155.885 39.932 155.935 39.966 155.979 40.034L156.291 40.544C156.107 40.716 155.885 40.852 155.625 40.952C155.365 41.048 155.097 41.096 154.821 41.096Z" fill="white"/>
</svg>
